<svg width="133" height="39" fill="none" class="c016"><path fill-rule="evenodd" clip-rule="evenodd" d="M1.42 33.075V39h130.865v-5.925H1.42z" fill="#fff"></path><path d="M18.639.429h6.932v26.72h-6.932V16.341H7.789v10.808H.857V.429h6.932v10.395h10.85V.43zM49.274 8.085v19.064h-6.668v-2.552c-1.23 1.901-3.052 2.852-5.463 2.852-2.436 0-4.257-.675-5.463-2.026-1.18-1.351-1.77-3.415-1.77-6.192V8.084h6.819v11.333c0 1.877.816 2.815 2.449 2.815.954 0 1.72-.338 2.298-1.014.602-.675.904-1.576.904-2.702V8.085h6.894zM77.723 7.56c2.21 0 3.842.675 4.897 2.026 1.08 1.35 1.62 3.415 1.62 6.192v11.371h-6.819V15.965c0-1.125-.175-1.938-.527-2.439-.327-.5-.892-.75-1.695-.75-.955 0-1.696.35-2.223 1.05-.528.7-.791 1.69-.791 2.965V27.15h-6.82V15.965c0-1.125-.175-1.938-.527-2.439-.351-.5-.916-.75-1.695-.75-.954 0-1.695.35-2.223 1.05-.502.7-.753 1.69-.753 2.965V27.15h-6.819V13.564c0-2.052-.1-3.878-.301-5.48h6.404l.34 2.665a5.917 5.917 0 0 1 2.41-2.364c1.055-.55 2.26-.826 3.617-.826 2.737 0 4.596 1.151 5.576 3.453a7.57 7.57 0 0 1 2.674-2.515 7.426 7.426 0 0 1 3.655-.938zM108.344 8.085v19.064h-6.706v-2.59c-.553.901-1.356 1.614-2.411 2.14-1.055.5-2.21.75-3.466.75-1.633 0-3.09-.4-4.37-1.2-1.281-.801-2.286-1.94-3.014-3.416-.703-1.5-1.055-3.227-1.055-5.179 0-1.976.364-3.727 1.093-5.254.728-1.526 1.733-2.714 3.013-3.565 1.281-.85 2.725-1.276 4.333-1.276 1.256 0 2.398.275 3.428.826 1.055.525 1.871 1.238 2.449 2.139v-2.44h6.706zM97.871 22.383c1.205 0 2.134-.413 2.787-1.238.653-.826.98-2.015.98-3.566 0-1.576-.327-2.777-.98-3.603-.653-.85-1.582-1.276-2.787-1.276-1.18 0-2.11.438-2.788 1.314-.678.85-1.017 2.064-1.017 3.64 0 1.526.326 2.702.98 3.528.652.8 1.594 1.2 2.825 1.2zM125.206 7.56c2.26 0 3.943.687 5.048 2.063 1.13 1.351 1.695 3.403 1.695 6.155v11.371h-6.819v-11.07c0-1.177-.201-2.015-.603-2.515-.401-.526-1.029-.788-1.883-.788-1.03 0-1.859.35-2.487 1.05-.628.676-.941 1.577-.941 2.702V27.15h-6.819V13.564c0-2.052-.101-3.878-.302-5.48h6.405l.339 2.815c.728-1.076 1.632-1.901 2.712-2.477 1.08-.575 2.298-.863 3.655-.863z" fill="#fff"></path></svg>