<?xml version="1.0" standalone="no"?>
<!DOCTYPE svg PUBLIC "-//W3C//DTD SVG 20010904//EN"
 "http://www.w3.org/TR/2001/REC-SVG-20010904/DTD/svg10.dtd">
<svg version="1.0" xmlns="http://www.w3.org/2000/svg"
 width="700.000000pt" height="700.000000pt" viewBox="0 0 700.000000 700.000000"
 preserveAspectRatio="xMidYMid meet">
<metadata>
Created by potrace 1.14, written by Peter Selinger 2001-2017
</metadata>
<g transform="translate(0.000000,700.000000) scale(0.100000,-0.100000)"
fill="#000000" stroke="none">
<path d="M5620 6760 c-81 -10 -152 -36 -271 -97 -266 -137 -528 -395 -919
-904 -249 -326 -318 -436 -381 -608 -22 -63 -22 -64 -3 -78 21 -15 76 -10 130
12 37 15 196 200 341 395 115 155 205 246 316 318 205 134 337 130 486 -16 64
-63 95 -117 164 -292 151 -379 227 -844 227 -1397 l0 -232 -57 -34 c-213 -128
-501 -232 -805 -292 -38 -7 -68 -11 -68 -9 0 3 52 102 115 222 146 276 269
540 290 623 37 139 1 339 -94 534 -85 172 -162 240 -276 239 -146 -1 -324
-155 -588 -508 -244 -325 -479 -738 -647 -1136 -29 -69 -55 -128 -59 -132 -3
-4 -244 -45 -536 -92 -291 -47 -541 -89 -554 -93 -24 -8 -27 -22 -107 -473
-46 -256 -83 -475 -84 -486 0 -21 2 -21 158 18 86 22 258 61 382 88 243 53
495 111 710 165 124 31 151 34 340 39 455 13 768 80 1077 230 262 128 429 252
668 497 443 455 761 1023 814 1454 30 246 23 376 -44 805 -20 124 -49 313 -66
420 -74 473 -170 679 -357 774 -82 41 -202 60 -302 46z m-1231 -2724 c48 -26
103 -96 152 -200 l48 -101 -40 -36 c-91 -80 -349 -208 -456 -225 -37 -6 -44
-3 -82 32 -86 77 -90 123 -26 250 110 220 285 341 404 280z"/>
<path d="M0 745 l0 -745 3500 0 3500 0 0 745 0 745 -3500 0 -3500 0 0 -745z"/>
</g>
</svg>
