<svg width="171" height="46" viewBox="0 0 171 46" fill="none" xmlns="http://www.w3.org/2000/svg">
<path fill-rule="evenodd" clip-rule="evenodd" d="M26.5658 0.0357132C28.5236 0.149019 30.4814 0.488936 31.7373 0.979926C32.8824 1.43315 34.6556 2.5662 35.8007 3.62372C36.9458 4.68124 38.3495 6.41859 38.9775 7.70272C39.6424 8.91131 40.3443 10.8753 40.6028 12.0083C40.8984 13.5191 40.8984 14.6899 40.6028 16.3517C40.3812 17.5981 39.7902 19.5243 38.3865 22.5835L39.31 25.2273C39.8271 26.6625 40.3812 29.1175 40.5659 30.6282C40.7506 32.1767 40.7506 34.3673 40.5659 35.6892C40.3812 37.0111 39.9379 38.7107 39.5316 39.466C39.1622 40.2592 38.2387 41.4678 37.4999 42.1098C36.7611 42.7896 34.988 43.9605 33.5843 44.6781C31.5526 45.6978 30.5552 46 28.9668 46C27.8586 46 26.1594 45.6978 25.162 45.3201C24.2016 44.9425 22.6132 44.0738 21.5789 43.3562C20.5815 42.6386 19.067 41.3167 16.7767 38.8995L12.8981 38.7106C10.0537 38.5973 8.42835 38.2952 6.80301 37.6531C5.3993 37.1244 3.99559 36.1802 2.99822 35.1604C1.96391 34.0651 1.26205 32.8565 0.855716 31.5346C0.523258 30.4771 0.153862 28.211 0.0799826 26.5492C-0.104715 23.7543 -0.030836 23.3766 0.966536 21.2616C1.66839 19.8642 2.85046 18.2779 4.06947 17.1448C5.17766 16.1251 7.09853 14.6899 8.39142 13.9345C10.5709 12.6504 10.8294 12.386 12.1593 9.55337C12.935 7.89156 14.2279 5.77652 15.0036 4.87008C15.7794 3.96364 17.1461 2.79281 18.0696 2.22628C18.9931 1.69753 20.5815 0.942156 21.5789 0.564471C22.9826 0.0734811 24.2016 -0.0775927 26.5658 0.0357132ZM21.3942 5.09669C20.6923 5.51214 19.5842 6.53189 18.9192 7.32503C18.2913 8.15594 17.22 9.96883 16.5182 11.4418C15.373 13.9723 15.2991 14.2744 15.2991 18.429C15.2991 21.4882 15.4838 23.4144 15.9641 24.9251L16.592 27.1157C18.7345 26.7758 19.658 26.6247 20.0274 26.5114C20.6185 26.3604 20.5815 26.2093 19.7319 24.3586C19.2148 23.2633 18.6976 21.2994 18.5868 19.9397C18.4021 18.0135 18.5129 16.9182 19.1039 14.841C19.695 12.7637 20.2121 11.8195 21.542 10.3843C22.724 9.17569 23.7214 8.49586 24.7926 8.19371C25.6792 7.9671 26.9721 7.89156 27.6739 8.04263C28.3758 8.19371 29.6687 8.6847 30.5552 9.21346C31.4787 9.74222 32.55 10.8753 33.2149 11.895C33.8429 12.9148 34.4339 14.4633 34.5817 15.4075C34.7294 16.465 35.3574 17.9002 36.244 19.1843L37.6477 21.2616C38.682 18.7689 38.9036 17.1826 38.9036 15.2186C38.9036 12.7259 38.7559 11.895 37.9432 10.3087C37.426 9.25123 36.0962 7.58941 35.025 6.60743C33.9168 5.58768 32.1437 4.45463 31.0724 4.03917C30.0381 3.66149 28.265 3.32157 27.1937 3.32157C26.1594 3.35934 24.6818 3.54818 23.98 3.81256C23.2781 4.07694 22.0961 4.64347 21.3942 5.09669ZM15.0036 8.23147C14.3757 9.17569 13.563 10.8753 13.1936 12.0083C12.7503 13.2547 12.3809 15.7096 12.2701 18.0513C12.1593 20.3174 12.2331 23.1878 12.4917 24.7363L12.8981 27.4934C14.8928 27.4934 15.4838 27.3801 15.4838 27.1913C15.4838 27.0402 15.1514 25.6428 14.745 24.0942C14.3387 22.5457 13.8954 20.053 13.7846 18.6178C13.6738 17.1448 13.7477 14.9543 13.9693 13.7079C14.191 12.4615 14.8189 10.4976 15.373 9.36453C15.9271 8.23147 17.1092 6.49412 17.9957 5.47438C18.8823 4.49239 19.5472 3.69926 19.4733 3.69926C19.3995 3.69926 18.5868 4.34132 17.7002 5.09669C16.8137 5.88983 15.5947 7.28726 15.0036 8.23147ZM26.8243 11.9328C28.1172 12.386 29.1515 12.6504 29.1515 12.4615C29.1515 12.3105 28.7821 11.8195 28.3389 11.3663C27.8586 10.8753 27.1568 10.5354 26.7505 10.5354C26.3441 10.5354 25.6792 10.6864 25.2729 10.8375C24.6818 11.0641 24.9773 11.2907 26.8613 11.9328L26.8243 11.9328ZM21.7267 14.4633C21.7267 14.5766 22.3546 14.841 23.1304 15.0676C23.8692 15.332 25.162 15.8607 25.9747 16.2762C26.7874 16.6916 28.3389 17.9002 29.4101 18.9577C30.5183 20.0152 31.959 21.8281 32.6239 22.9612C33.2888 24.0942 34.2862 26.3226 34.8772 27.8711C35.7268 30.2505 35.8746 31.308 35.9115 34.6694C35.9484 36.86 35.8376 39.2394 35.6899 39.957L35.3943 41.2789C36.835 39.5038 37.4999 38.1441 37.8324 37.1244C38.3126 35.6892 38.4234 34.2917 38.2756 31.2703C38.1648 28.4754 37.8693 26.587 37.2783 24.8496C36.7981 23.49 35.7268 21.2994 34.8402 19.9397C33.9906 18.58 32.3653 16.6539 31.294 15.6719C30.1858 14.6521 28.4866 13.5568 27.4523 13.1791C26.4549 12.8015 25.0882 12.3482 24.4971 12.2349C23.4998 12.0083 23.2412 12.1594 22.5393 13.1414C22.0961 13.7457 21.7267 14.35 21.7267 14.4633ZM32.0698 14.841C32.513 15.2564 32.8086 15.4075 32.8086 15.2186C32.8086 15.0298 32.4761 14.2744 32.0698 13.5946C31.6634 12.9525 31.294 12.386 31.2202 12.386C31.1463 12.386 31.1463 12.7637 31.2202 13.2169C31.294 13.7079 31.6634 14.4255 32.0698 14.841ZM3.77395 21.2616C3.2568 22.3947 2.8874 23.8299 2.8874 24.8496C2.85046 25.9827 3.10904 26.8891 3.62619 27.5689C4.03253 28.1732 5.3993 29.1175 6.65525 29.7595C8.13284 30.4771 10.0168 31.0059 11.7529 31.1947C13.2675 31.3836 15.5947 31.4213 16.9245 31.2325C18.2543 31.0814 20.1382 30.666 21.1726 30.326C22.1699 29.9861 23.8322 29.193 24.8665 28.6265C25.8639 28.0599 26.9721 27.3046 27.2676 26.9269C27.7478 26.3981 27.7478 26.2471 27.2676 25.7561C26.7874 25.2273 26.5288 25.3028 24.8665 26.3604C23.8322 27.0024 22.096 27.8711 20.9879 28.2865C19.3994 28.9286 18.1435 29.0797 15.2622 29.0419C12.344 29.0419 11.2358 28.8531 10.0906 28.2865C9.27797 27.8711 8.31754 26.9646 7.9112 26.2848C7.50486 25.5294 7.24629 24.3964 7.24629 23.3389C7.28323 22.2436 7.65262 21.0728 8.24366 20.0152C8.76082 19.1466 9.42573 18.3534 9.72125 18.2401C10.0537 18.1268 10.3862 17.3714 10.497 16.4272C10.6447 15.5586 10.6817 14.5766 10.5709 14.2744C10.46 13.8967 9.53655 14.5766 7.54181 16.5405C5.84258 18.2401 4.32805 20.1285 3.77395 21.2616ZM20.6185 19.6376C20.6185 20.9595 20.6923 21.0728 21.8005 21.2616C22.4654 21.3371 24.0169 21.9414 25.2359 22.5457C26.5658 23.1878 28.0803 24.3586 29.0407 25.4917C30.112 26.7003 30.8508 27.9844 31.2202 29.3818C31.5896 30.7415 31.7004 32.1012 31.5526 33.3475C31.4418 34.3673 31.0355 35.8025 30.6661 36.5201C30.3336 37.1999 29.447 38.1064 28.7452 38.5218C27.7848 39.0506 27.046 39.1639 25.9747 39.0128C25.162 38.8995 23.98 38.484 23.3889 38.1064C22.3916 37.4643 22.133 37.4265 20.4338 37.9175C19.3994 38.2197 18.5498 38.5218 18.476 38.6351C18.439 38.7484 18.8454 39.1639 19.3994 39.5416C19.9905 39.957 21.505 40.7879 22.8348 41.43C24.2755 42.1098 26.1225 42.6763 27.4523 42.7897C29.1885 42.9785 29.9642 42.8652 30.9246 42.3364C31.6265 41.9587 32.513 41.2411 32.8824 40.7124C33.2518 40.1836 33.7321 38.824 33.9906 37.6909C34.3231 35.9913 34.3231 34.9338 33.8059 31.8368C33.3996 29.1552 32.8455 27.2668 31.922 25.4161C31.2202 23.9809 29.8164 21.8281 28.8191 20.6951C27.8217 19.562 26.0855 18.0891 25.0143 17.4092C23.9061 16.7672 22.6132 16.0873 22.0961 15.974C21.2464 15.7474 21.1356 15.8607 20.877 16.9938C20.7293 17.6736 20.6185 18.8822 20.6185 19.6376ZM9.35185 22.5835C9.20409 23.3011 9.20409 24.2831 9.31491 24.7363L9.53655 25.605C10.9033 23.8299 10.9772 23.4522 10.7186 21.526C10.4231 19.562 10.3492 19.4487 10.0168 20.3174C9.79513 20.8462 9.49961 21.8659 9.35185 22.5835ZM21.542 24.5475L22.096 26.3604C24.5341 25.2273 25.2729 24.6985 25.3098 24.4719C25.3837 24.2831 24.7926 23.7921 24.0169 23.3766C23.2781 22.999 22.2807 22.5457 21.8375 22.4324C21.4311 22.2814 21.0248 22.2814 21.0248 22.4702C20.9879 22.6213 21.2464 23.5655 21.542 24.5475ZM27.2676 28.702C26.7505 29.1175 25.162 30.0617 23.7583 30.7415C22.3177 31.4213 20.2491 32.2522 19.1409 32.5544C18.0327 32.8565 15.9271 33.1965 14.5234 33.3475C12.9719 33.4986 10.8294 33.4231 9.16715 33.1587C7.65262 32.9321 5.62094 32.3655 4.69745 31.9123C3.40456 31.2703 3.03516 31.2325 3.2568 31.6479C3.44149 31.9501 4.03253 32.6677 4.62357 33.2342C5.17766 33.8007 6.47055 34.6317 7.50486 35.0849C8.50223 35.5381 10.6078 36.1424 12.1223 36.4445C13.8585 36.7845 15.7055 36.8978 17.1092 36.7089C18.3282 36.5956 20.5815 36.0669 22.096 35.5759C23.6106 35.0849 25.79 34.1029 26.8982 33.4231C28.3389 32.5544 28.9668 31.9123 29.0407 31.2325C29.1146 30.7415 28.9299 29.7973 28.6713 29.1175L28.1542 27.9089L27.2676 28.702ZM24.5341 36.7467C26.8613 36.9355 27.6739 36.7845 27.9325 36.4823C28.228 36.2179 28.4127 35.878 28.4127 35.7269C28.4127 35.5381 28.0064 35.4248 27.5631 35.4248C27.1198 35.4626 26.2333 35.7647 25.6423 36.1046L24.5341 36.7467ZM159.549 15.7852C160.62 15.7474 161.507 16.0118 162.134 16.465C163.021 17.1826 163.058 17.1826 164.166 16.5028C164.757 16.0873 165.865 15.7852 166.641 15.7852C167.417 15.7852 168.451 16.0118 169.005 16.2384C169.522 16.5028 170.187 17.1826 170.483 17.7492C170.852 18.5045 171 20.393 171 29.7595L167.306 29.7595L167.306 25.114C167.306 21.9037 167.158 20.3552 166.826 20.0153C166.567 19.7509 165.976 19.562 165.533 19.562C165.09 19.562 164.462 19.6376 164.166 19.7509C163.686 19.902 163.612 20.8084 163.612 29.7595L159.549 29.7595L159.549 25.114C159.549 21.9037 159.401 20.3552 159.068 20.0153C158.81 19.7509 158.219 19.562 157.776 19.562C157.332 19.562 156.704 19.6376 156.409 19.7509C155.929 19.902 155.855 20.8084 155.855 29.3819L151.791 29.3819L151.791 16.1629L153.158 16.1251C153.971 16.1251 154.747 16.3517 155.005 16.6916C155.411 17.2204 155.596 17.2204 156.667 16.5406C157.369 16.0873 158.551 15.7852 159.549 15.7852ZM113.005 12.0083L114.187 12.0083C114.852 12.0083 115.701 12.1972 116.071 12.4616C116.403 12.7259 116.846 13.6702 117.253 16.1629L120.762 16.1629L120.762 19.1844L117.068 19.1844L117.068 22.7724C117.068 26.1715 117.105 26.3604 117.881 26.587C118.324 26.7003 119.1 26.587 119.58 26.2848C120.282 25.8694 120.466 25.8694 120.762 26.3604C120.947 26.6625 121.094 27.3046 121.094 27.7578C121.094 28.2488 120.725 28.8909 120.282 29.193C119.802 29.5329 118.62 29.7595 117.511 29.7595C116.44 29.7595 115.258 29.5707 114.852 29.3819C114.445 29.1552 113.854 28.3999 113.559 27.6823C113.115 26.6625 113.005 24.7363 113.005 19.1844L113.005 12.0083ZM54.2705 15.7852C54.9724 15.7852 56.0806 16.1251 56.7455 16.5406C57.4104 16.956 58.2231 17.8624 58.5925 18.5045C59.0727 19.411 59.2205 20.5818 59.2205 22.7724C59.2205 24.8496 58.9988 26.1715 58.5925 27.0024C58.2231 27.6823 57.4843 28.5887 56.9302 29.0419C56.1175 29.6462 55.5265 29.7973 54.0858 29.684C53.0515 29.5707 51.9433 29.4196 51.5739 29.2685C50.9829 29.0419 50.946 29.3063 50.946 35.4248L47.252 35.4248L47.252 16.1629L48.3602 16.1629C48.9512 16.1629 49.8008 16.3139 50.2072 16.5405C50.7243 16.8049 51.2045 16.7672 51.9433 16.3517C52.4974 16.0496 53.5317 15.7852 54.2705 15.7852ZM51.2415 22.8479C51.2784 25.7938 51.3523 26.0204 52.2388 26.4359C52.9776 26.8136 53.347 26.8136 54.0858 26.4359C54.7138 26.1337 55.1201 25.4539 55.3787 24.3586C55.6004 23.49 55.6742 22.2436 55.5265 21.6393C55.3787 20.9972 55.0093 20.2041 54.6769 19.8264C54.3444 19.4487 53.5687 19.1466 52.9407 19.1843C52.3127 19.1843 51.6478 19.2977 51.5001 19.4487C51.3154 19.562 51.2045 21.1105 51.2415 22.8479ZM68.3076 16.0496C69.0095 16.1629 70.0807 16.5406 70.7087 16.8805C71.2997 17.2204 72.0755 18.0891 72.4449 18.8067C72.8143 19.5243 73.1098 20.9217 73.1098 23.7166L69.2311 23.7166C65.3524 23.7166 65.3524 23.7166 65.5741 24.5475C65.6849 25.0385 66.0543 25.7183 66.3868 26.096C66.7192 26.4737 67.4949 26.738 68.1229 26.738C68.714 26.738 69.7483 26.3981 71.6322 25.2273L72.1863 26.0582C72.4818 26.5492 72.7404 27.229 72.7404 27.569C72.7404 27.9466 72.2602 28.5887 71.7061 29.0042C70.9303 29.6085 70.1546 29.7973 68.1968 29.7595C66.83 29.7595 65.1677 29.5329 64.5028 29.2685C63.8379 29.0042 62.8775 28.1732 62.3973 27.4556C61.6585 26.4359 61.4368 25.605 61.326 23.5277C61.2152 21.4882 61.326 20.544 61.8801 19.411C62.2495 18.6178 63.0622 17.5981 63.6902 17.1448C64.2812 16.7294 65.2786 16.2762 65.9065 16.1251C66.4976 15.974 67.5688 15.9363 68.3076 16.0496ZM65.2786 20.8084C65.3155 21.3372 65.7588 21.4505 67.3841 21.4505C69.0464 21.4505 69.4158 21.3372 69.4158 20.7706C69.4158 20.4307 69.1203 19.8264 68.7509 19.4865C68.4184 19.1088 67.7535 18.8067 67.3472 18.8067C66.9039 18.8067 66.239 19.1088 65.8696 19.4865C65.5002 19.8642 65.2416 20.4685 65.2786 20.8084ZM81.6059 15.7852C82.0861 15.7852 82.8619 16.0118 83.2682 16.3139C83.8962 16.7672 83.9331 17.0315 83.6007 18.2779C83.2313 19.7509 83.2313 19.7509 81.4951 19.6376C80.0544 19.562 79.6851 19.7131 79.3895 20.3174C79.1679 20.7329 79.0201 22.9234 79.0201 29.3818L75.3262 29.3818L75.3262 16.1629L76.5082 16.1629C77.1732 16.1629 77.9489 16.3139 78.2813 16.5028C78.6138 16.6916 79.1679 16.6161 79.7589 16.3139C80.2391 16.0118 81.0888 15.7852 81.6059 15.7852ZM92.3554 15.8607C93.5744 15.9363 94.3501 16.2384 95.0889 16.9182C95.643 17.447 96.3079 18.429 96.6034 19.071C96.862 19.7509 97.1206 21.2994 97.0837 22.4702C97.0837 23.6788 96.9359 25.3028 96.7143 26.0582C96.5296 26.8514 95.8646 27.9844 95.2367 28.6265C94.2762 29.5707 93.796 29.7595 92.2815 29.7595C91.2841 29.7595 90.139 29.5707 89.7327 29.3818C88.9939 29.0042 88.9939 29.1175 88.9939 35.4248L84.9305 35.4248L84.9305 16.1629L86.2973 16.1629C87.073 16.1629 87.8487 16.3517 88.0704 16.5783C88.3289 16.8427 88.7353 16.8049 89.548 16.3895C90.2129 16.0118 91.3211 15.823 92.3554 15.8607ZM88.92 22.8101C88.9569 25.7938 89.0308 26.0204 89.9174 26.4359C90.6561 26.8136 91.0255 26.8136 91.7643 26.4359C92.2446 26.2093 92.8356 25.5672 93.0572 25.0385C93.2419 24.5097 93.4266 23.49 93.4266 22.7724C93.4266 22.0548 93.168 20.9217 92.8725 20.3174C92.3923 19.3732 92.0968 19.1844 91.0994 19.2221C90.4345 19.2221 89.6588 19.3354 89.3633 19.4487C88.9569 19.5998 88.8461 20.3174 88.92 22.8101ZM105.986 16.0496C106.688 16.1629 107.759 16.5406 108.313 16.8805C108.904 17.2204 109.717 18.0891 110.086 18.8067C110.493 19.562 110.788 20.8839 110.788 23.7166L106.91 23.7166C104.028 23.7166 102.994 23.8299 102.994 24.1698C102.994 24.4342 103.326 25.114 103.733 25.6805C104.287 26.4737 104.804 26.7381 105.691 26.7381C106.356 26.7381 107.427 26.3981 109.311 25.2273L109.865 26.0582C110.16 26.5492 110.419 27.229 110.419 27.569C110.419 27.9466 109.939 28.5887 109.385 29.0419C108.498 29.7218 107.944 29.7973 105.358 29.684C102.994 29.6085 102.107 29.3818 101.295 28.7776C100.704 28.3243 99.928 27.4179 99.5217 26.7003C99.0415 25.7938 98.8198 24.6608 98.7829 22.9612C98.7829 21.1861 99.0045 20.1663 99.5217 19.2221C99.928 18.5045 100.667 17.5981 101.184 17.2204C101.664 16.8427 102.662 16.3517 103.4 16.2006C104.102 16.0118 105.247 15.9363 105.986 16.0496ZM102.994 20.9595C102.994 21.2994 103.659 21.4505 105.063 21.4505C106.836 21.4505 107.094 21.3749 107.094 20.6951C107.094 20.2796 106.836 19.6753 106.54 19.3732C106.208 19.071 105.58 18.8067 105.063 18.8067C104.545 18.8067 103.881 19.1844 103.548 19.6376C103.216 20.0908 102.957 20.6951 102.994 20.9595ZM122.609 16.1629L123.902 16.1629C124.678 16.1629 125.453 16.465 125.934 16.9182C126.562 17.5603 126.672 18.1646 126.672 21.4505C126.672 23.5277 126.746 25.4917 126.857 25.7938C126.968 26.1338 127.485 26.3604 128.15 26.3604C128.741 26.3604 129.591 26.1715 129.997 25.9827C130.662 25.6428 130.736 25.2273 130.736 16.1629L132.029 16.1629C132.73 16.1629 133.543 16.4273 133.876 16.7294C134.319 17.1826 134.43 18.4668 134.43 29.3819L132.583 29.3819C131.548 29.3819 130.736 29.193 130.736 29.0042C130.736 28.7776 130.219 28.8909 129.628 29.193C129 29.4952 127.67 29.7595 126.672 29.7595C125.084 29.7595 124.641 29.5707 122.609 27.4934L122.609 16.1629ZM137.015 16.1629L138.308 16.1629C139.01 16.1629 139.934 16.314 140.34 16.5406C141.005 16.8805 141.079 17.2959 141.079 20.6951C141.079 22.7724 141.227 24.8874 141.448 25.4162C141.707 26.1338 142.076 26.3604 142.926 26.3604C143.517 26.3604 144.256 26.2848 144.588 26.1715C145.031 26.0205 145.142 25.114 145.142 16.1629L146.509 16.1629C147.322 16.1629 148.171 16.465 148.541 16.8427C149.132 17.4092 149.206 18.2024 149.206 29.3819L147.359 29.3819C146.324 29.3819 145.401 29.193 145.327 29.0042C145.179 28.7776 144.81 28.8531 144.293 29.193C143.849 29.4952 142.667 29.7595 141.707 29.7595C140.746 29.7595 139.454 29.4952 138.862 29.193C138.05 28.7776 137.643 28.211 137.385 27.1913C137.163 26.4359 137.015 23.641 137.015 20.9595L137.015 16.1629Z" fill="white"/>
</svg>
