<svg width="272" height="386" viewBox="0 0 272 386" fill="none" xmlns="http://www.w3.org/2000/svg">
<path d="M68.7758 143.146L48.2295 111.546L72.0216 99.0679L78.2663 123.177L122.265 146.461C124.002 145.848 125.883 145.744 127.68 146.161C129.476 146.578 131.11 147.498 132.382 148.808C133.654 150.119 134.509 151.763 134.843 153.541C135.177 155.32 134.975 157.154 134.263 158.822C133.55 160.49 132.358 161.919 130.83 162.935C129.303 163.95 127.507 164.509 125.661 164.542C123.815 164.575 121.999 164.082 120.435 163.122C118.871 162.162 117.625 160.777 116.851 159.136L68.7758 143.146Z" fill="#DEA7AE"/>
<path d="M33.2183 73.6453C26.7625 82.9277 49.7046 116.669 49.7046 116.669C50.8222 114.309 61.5061 140.803 63.2956 139.238C68.3814 134.79 76.3427 122.4 80.7681 121.848C83.2988 121.532 74.8986 103.955 74.8986 103.955C74.8986 103.955 71.0594 93.5755 65.8499 80.3171C64.4481 76.5419 62.0938 73.1755 59.0061 70.5311C55.9184 67.8868 52.1977 66.0505 48.1903 65.1932C48.1903 65.1932 39.6741 64.3628 33.2183 73.6453Z" fill="#8A86B0"/>
<path d="M33.5336 376.071L43.2914 376.07L47.9332 339.211L33.5315 339.212L33.5336 376.071Z" fill="#DEA7AE"/>
<path d="M31.0442 372.951L33.7907 372.951L44.5138 368.68L50.261 372.95H50.2618C53.5096 372.95 56.6244 374.214 58.921 376.463C61.2177 378.712 62.508 381.762 62.5082 384.943V385.333L31.0447 385.334L31.0442 372.951Z" fill="#2E3956"/>
<path d="M78.8666 376.071L88.6243 376.07L93.2669 339.211L78.8652 339.212L78.8666 376.071Z" fill="#DEA7AE"/>
<path d="M76.3776 372.951L79.1241 372.951L89.8472 368.68L95.5944 372.95H95.5951C98.843 372.95 101.958 374.214 104.254 376.463C106.551 378.712 107.841 381.762 107.842 384.943V385.333L76.3781 385.334L76.3776 372.951Z" fill="#2E3956"/>
<path d="M83.0903 174.56L19.6208 176.114C7.56654 182.526 7.38351 196.403 11.3331 212.88C11.3331 212.88 9.9998 222.673 12.6665 225.284C15.3331 227.896 16.6665 227.896 15.3331 232.466C13.9998 237.036 21.0444 244.5 20.1888 245.338C19.3331 246.176 17.3331 250.746 17.3331 250.746L23.9998 287.96C23.9998 287.96 28.6665 352.595 29.9998 353.901C31.3331 355.206 32.6665 353.901 31.3331 357.165C29.9998 360.43 28.6665 359.124 29.9998 360.43C31.1809 361.677 32.2936 362.984 33.3331 364.347H49.4513C49.4513 364.347 50.6665 357.818 50.6665 357.165C50.6665 356.512 51.9998 352.595 51.9998 351.942C51.9998 351.289 50.8213 350.135 50.8213 350.135C50.4141 348.808 50.139 347.445 49.9998 346.066C49.9998 344.761 45.9998 294.489 45.9998 294.489L53.9998 229.201L73.3331 293.183C73.3331 293.183 73.3331 349.331 74.6665 350.636C75.9998 351.942 75.9998 351.289 75.3331 353.901C74.6664 356.512 71.9998 355.859 73.9998 357.818C75.9998 359.777 76.6664 356.512 75.9998 359.777L75.3331 363.041L95.3331 363.321C95.3331 363.321 97.9998 357.818 96.6665 355.859C95.3331 353.901 95.4131 354.435 97.0398 351.23C98.6665 348.025 99.3331 347.372 98.6665 346.719C97.9998 346.066 97.9998 342.594 97.9998 342.594L94.6665 280.126C94.6665 280.126 93.9998 214.185 93.9998 212.227C93.9495 211.219 94.1391 210.213 94.5536 209.29V206.631L91.9998 197.211L83.0903 174.56Z" fill="#2421A6"/>
<path d="M44.9633 45.3148C55.8546 45.3148 64.6837 36.6683 64.6837 26.0023C64.6837 15.3364 55.8546 6.68994 44.9633 6.68994C34.0721 6.68994 25.243 15.3364 25.243 26.0023C25.243 36.6683 34.0721 45.3148 44.9633 45.3148Z" fill="#DEA7AE"/>
<path d="M54.8235 58.0795C59.072 60.553 61.6134 65.0977 63.0723 69.7224C65.7733 78.2843 67.3991 87.1366 67.9138 96.0837L69.4547 122.87L88.5389 179.904C71.9993 193.61 9.82923 183.019 9.82923 183.019C9.82923 183.019 7.92082 182.396 9.82923 180.527C11.7376 178.658 13.5955 180.314 11.6871 178.445C9.77873 176.576 11.0943 178.658 11.7304 176.789C12.3666 174.92 11.7305 176.166 11.0943 175.543C10.4582 174.92 16.019 169.313 16.019 169.313L10.9298 136.575L4.56848 70.5391C12.2022 61.1944 27.5545 55.6857 27.5545 55.6857L31.5214 48.6931L51.3556 50.247L54.8235 58.0795Z" fill="#8A86B0"/>
<path d="M61.2196 15.7422C62.7523 16.8617 63.8878 18.4238 64.4663 20.2086C64.6885 17.2919 64.7027 14.3636 64.5085 11.445C64.2761 9.39415 62.8017 8.93283 61.0945 8.39829C59.5527 7.91535 57.8091 7.36982 57.34 5.37887C51.141 -0.526848 40.3499 -0.229042 32.9648 1.83096C28.9011 2.96453 26.5628 4.42095 26.3536 5.27415L26.3102 5.4498L26.1452 5.53061C23.0128 7.06442 22.403 11.9079 22.4433 15.7009C22.5196 22.8471 25.0392 30.9634 26.4586 31.6228C26.5337 31.6577 26.5527 31.644 26.5853 31.6175C28.7225 29.9448 31.33 31.7446 32.4759 32.723C33.1517 28.2815 35.3279 24.1899 38.6569 21.1016C41.9858 18.0134 46.2755 16.1067 50.8407 15.6861C52.3316 15.545 53.8106 15.3021 55.267 14.9592C56.0057 14.7721 56.7651 14.6745 57.5282 14.6686C58.8417 14.6491 60.1299 15.0237 61.2196 15.7422Z" fill="#2EC4B6"/>
<path d="M183.641 189.948L221.576 152.223L231.57 122.051L215.487 115.68C207.519 123.55 199.318 147.644 199.318 147.644L173.426 181.675C173.219 181.75 173.013 181.83 172.81 181.924C171.618 182.475 170.591 183.318 169.829 184.372C169.067 185.425 168.595 186.653 168.459 187.937C168.324 189.221 168.528 190.518 169.054 191.702C169.579 192.886 170.407 193.917 171.459 194.696C172.51 195.475 173.749 195.975 175.055 196.148C176.361 196.321 177.691 196.161 178.916 195.684C180.141 195.206 181.219 194.428 182.047 193.423C182.875 192.418 183.424 191.221 183.641 189.948Z" fill="#FFB8B8"/>
<path d="M211.099 119.132L231.439 124.894L231.515 124.879C238.991 123.458 244.905 111.29 248.55 101.333C249.749 98.0489 249.63 94.4414 248.217 91.2399C246.804 88.0384 244.202 85.4818 240.938 84.0869C238.523 83.0738 235.867 82.7424 233.269 83.1303C230.672 83.5181 228.237 84.6097 226.24 86.2816L216.099 94.8334L211.099 119.132Z" fill="#FEDE00"/>
<path d="M193.698 374.949L182.759 374.949L177.555 333.63L193.699 333.631L193.698 374.949Z" fill="#FFB8B8"/>
<path d="M196.488 371.451L193.409 371.451L181.389 366.664L174.946 371.451H174.945C171.304 371.451 167.813 372.867 165.238 375.389C162.664 377.91 161.217 381.329 161.217 384.895V385.332L196.487 385.333L196.488 371.451Z" fill="#15135B"/>
<path d="M242.234 374.949L231.295 374.949L226.092 333.63L242.236 333.631L242.234 374.949Z" fill="#FFB8B8"/>
<path d="M245.024 371.451L241.945 371.451L229.925 366.664L223.482 371.451H223.481C219.84 371.451 216.349 372.867 213.774 375.389C211.2 377.91 209.753 381.329 209.753 384.895V385.332L245.023 385.333L245.024 371.451Z" fill="#15135B"/>
<path d="M258.913 196.975C258.913 196.975 260.19 211.985 256.997 226.37C253.804 240.755 253.804 281.267 253.804 281.267L246.779 360.211L225.704 358.335L219.956 226.37L199.52 270.775L201.436 277.029L198.884 278.593C198.884 278.593 200.797 290.789 199.52 290.789C198.243 290.789 195.05 292.665 195.05 292.665L197.604 357.084L175.89 356.458L168.227 265.772L176.529 213.861L177.168 203.855L180.042 203.97L181.505 199.789L184.193 192.597L258.913 196.975Z" fill="#E5A973"/>
<path d="M260.017 200.128L260.131 199.972C266.21 191.637 257.067 171.61 255.688 168.706L261.496 166.861L260.188 155.973L259.569 151.12L264.008 146.772L264.02 146.664L266.575 124.774L270.289 110.235C271.688 104.739 271.569 98.9768 269.943 93.5406C268.317 88.1044 265.244 83.1898 261.038 79.3013L252.452 71.3738L242.018 56.2546H225.192L219.423 66.9266C213.83 68.1926 208.867 71.3401 205.4 75.8209C201.932 80.3017 200.18 85.8317 200.448 91.4476L201.755 119.437L196.637 154.286L196.634 160.593L190.873 166.862L192.131 173.022L187.747 174.862L185.811 183.708C185.01 184.743 179.722 191.648 179.722 193.535C179.722 193.819 179.936 194.093 180.394 194.397C183.998 196.786 203.915 201.658 212.73 198.204C222.12 194.527 259.447 200.043 259.823 200.099L260.017 200.128Z" fill="#442C2A"/>
<path d="M231.432 51.3735C243.739 51.3735 253.716 41.6031 253.716 29.5507C253.716 17.4982 243.739 7.72778 231.432 7.72778C219.125 7.72778 209.148 17.4982 209.148 29.5507C209.148 41.6031 219.125 51.3735 231.432 51.3735Z" fill="#FFB8B8"/>
<path d="M229.297 51.7275C232.748 51.693 236.19 51.3698 239.585 50.7616C242.946 50.0033 250.361 44.3879 252.382 41.0706C253.884 38.6058 254.785 34.7934 255.277 32.0294C255.94 28.3714 255.813 24.6176 254.901 21.0111C253.989 17.4046 252.314 14.0258 249.985 11.0935C249.087 9.86509 247.866 8.8972 246.453 8.29224C246.328 8.24796 246.199 8.20918 246.069 8.17651C244.02 7.70353 242.162 6.64155 240.734 5.12692C240.457 4.82028 240.157 4.53359 239.838 4.26909C238.235 3.01269 236.352 2.14549 234.342 1.73839C231.094 0.974624 226.449 1.93171 220.535 4.58548C217.564 5.91878 214.266 5.54682 211.725 5.07378C211.582 5.05055 211.436 5.06427 211.3 5.11356C211.165 5.16285 211.045 5.246 210.953 5.35474C209.903 6.37063 208.5 6.95989 207.026 7.00411C206.123 7.0658 205.208 8.31481 204.104 9.94129C203.854 10.3105 203.561 10.7414 203.349 11.0043L203.307 10.5105L202.81 11.0752C202.03 11.9626 201.492 13.029 201.245 14.1751C200.999 15.3212 201.053 16.5096 201.402 17.6299C201.751 18.7501 202.384 19.7656 203.241 20.5818C204.099 21.398 205.154 21.9884 206.307 22.298C207.222 22.5118 208.157 22.6336 209.097 22.6614C209.667 22.6971 210.257 22.7341 210.823 22.8156C212.642 23.1327 214.346 23.9063 215.769 25.0609C217.191 26.2155 218.284 27.7115 218.94 29.4031C219.095 29.794 219.339 30.1448 219.654 30.4285C219.97 30.7121 220.347 30.921 220.758 31.0391C221.169 31.1571 221.602 31.1812 222.024 31.1093C222.446 31.0374 222.845 30.8716 223.191 30.6246C223.766 30.1619 224.448 29.8424 225.177 29.6933C225.905 29.5442 226.66 29.5699 227.377 29.7683C228 30.0873 228.492 30.6063 228.771 31.2384C229.108 31.942 229.651 32.5313 230.331 32.9312C232.651 34.0293 232.944 39.1466 232.235 43.4366C231.55 47.5718 230.062 50.5884 228.615 50.7723C227.501 50.9136 227.376 50.9946 227.3 51.19L227.232 51.365L227.362 51.5238C227.984 51.7272 228.644 51.7967 229.297 51.7275Z" fill="#2EC4B6"/>
<path d="M210.809 121.465L200.098 108.1C189.187 111.042 169.828 127.941 169.828 127.941L130.07 144.837C128.743 144.619 127.381 144.747 126.12 145.208C124.86 145.669 123.745 146.447 122.89 147.464C122.034 148.481 121.467 149.701 121.245 151C121.024 152.3 121.156 153.634 121.629 154.868C122.101 156.102 122.897 157.192 123.936 158.029C124.976 158.866 126.222 159.42 127.549 159.635C128.877 159.85 130.239 159.719 131.498 159.255C132.758 158.791 133.87 158.01 134.723 156.991L186.805 142.762L210.809 121.465Z" fill="#FFB8B8"/>
<path d="M208.242 124.521L225.143 106.071L226.081 92.9971C226.256 90.4298 225.694 87.8659 224.459 85.5951C223.223 83.3243 221.364 81.437 219.091 80.1466C215.998 78.4177 212.35 77.9035 208.885 78.708C205.419 79.5126 202.395 81.5757 200.423 84.4804C194.452 93.2945 188.027 105.211 191.333 111.93L191.366 111.998L208.242 124.521Z" fill="#442C2A"/>
<path d="M52.4684 193.871L8.54219 171.839C5.41773 170.272 4.38276 166.116 6.23512 162.574L34.8759 107.807C36.7283 104.265 40.7773 102.659 43.9018 104.226L87.828 126.257C90.9525 127.824 91.9874 131.981 90.1351 135.523L61.4942 190.289C59.6419 193.831 55.5929 195.438 52.4684 193.871Z" fill="#E6E6E6"/>
<path d="M44.9632 183.743L15.1192 168.775C12.1929 167.307 11.2234 163.414 12.9583 160.097L36.7526 114.598C38.4874 111.281 42.2796 109.776 45.2058 111.244L81.2513 129.323C84.1776 130.79 85.1469 134.683 83.412 138L70.4857 162.718C62.7583 177.494 57.9978 190.28 44.9632 183.743Z" fill="white"/>
<path d="M59.7188 158.896L33.2851 145.638C32.9618 145.413 32.7323 145.081 32.6382 144.703C32.5442 144.325 32.592 143.927 32.7729 143.581C32.9538 143.236 33.2558 142.965 33.6236 142.819C33.9914 142.673 34.4005 142.661 34.7763 142.787L61.2101 156.044C61.5333 156.27 61.7628 156.602 61.8569 156.979C61.9509 157.357 61.9031 157.755 61.7222 158.101C61.5413 158.447 61.2393 158.718 60.8715 158.864C60.5037 159.01 60.0945 159.021 59.7188 158.896Z" fill="#FEDE00"/>
<path d="M36.3712 154.298L30.3387 151.272C30.0155 151.047 29.7859 150.715 29.6919 150.337C29.5979 149.96 29.6457 149.562 29.8266 149.216C30.0075 148.87 30.3095 148.599 30.6773 148.453C31.0451 148.307 31.4543 148.296 31.8301 148.421L37.8625 151.446C38.1857 151.672 38.4153 152.004 38.5093 152.381C38.6033 152.759 38.5555 153.157 38.3746 153.503C38.1937 153.849 37.8917 154.12 37.5239 154.266C37.1561 154.412 36.7469 154.423 36.3712 154.298Z" fill="#FEDE00"/>
<path d="M44.109 165.29L27.3923 156.906C27.0691 156.68 26.8395 156.348 26.7455 155.971C26.6515 155.593 26.6993 155.195 26.8802 154.849C27.0611 154.503 27.3631 154.232 27.7309 154.087C28.0987 153.941 28.5079 153.929 28.8837 154.054L45.6003 162.438C45.9235 162.664 46.1531 162.996 46.2471 163.373C46.3412 163.751 46.2933 164.149 46.1124 164.495C45.9315 164.841 45.6296 165.112 45.2617 165.258C44.8939 165.404 44.4848 165.415 44.109 165.29V165.29Z" fill="#FEDE00"/>
<path d="M70.1792 138.894L43.7455 125.636C43.4223 125.411 43.1927 125.079 43.0987 124.701C43.0046 124.324 43.0524 123.926 43.2333 123.58C43.4142 123.234 43.7162 122.963 44.084 122.817C44.4518 122.671 44.861 122.66 45.2367 122.785L71.6705 136.043C71.9937 136.268 72.2233 136.6 72.3173 136.978C72.4113 137.355 72.3635 137.753 72.1826 138.099C72.0017 138.445 71.6998 138.716 71.332 138.862C70.9641 139.008 70.555 139.019 70.1792 138.894Z" fill="#FEDE00"/>
<path d="M46.8317 134.295L40.7992 131.27C40.476 131.044 40.2464 130.712 40.1524 130.335C40.0584 129.957 40.1062 129.559 40.2871 129.213C40.468 128.867 40.77 128.597 41.1378 128.451C41.5056 128.305 41.9148 128.293 42.2906 128.418L48.323 131.444C48.6462 131.669 48.8758 132.001 48.9698 132.379C49.0638 132.756 49.016 133.154 48.8351 133.5C48.6542 133.846 48.3523 134.117 47.9844 134.263C47.6166 134.409 47.2074 134.42 46.8317 134.295Z" fill="#FEDE00"/>
<path d="M54.5696 145.288L37.8529 136.904C37.5297 136.678 37.3001 136.346 37.2061 135.969C37.1121 135.591 37.1599 135.193 37.3408 134.847C37.5217 134.501 37.8237 134.23 38.1915 134.084C38.5593 133.938 38.9685 133.927 39.3443 134.052L56.0609 142.436C56.3841 142.662 56.6137 142.994 56.7077 143.371C56.8017 143.749 56.7539 144.147 56.573 144.493C56.3921 144.839 56.0902 145.109 55.7223 145.255C55.3545 145.401 54.9454 145.413 54.5696 145.288L54.5696 145.288Z" fill="#FEDE00"/>
<path d="M16.0687 146.192L6.14517 110.013L32.6635 105.096L31.2375 129.93L66.0803 165.064C67.9249 164.99 69.7516 165.444 71.3377 166.369C72.9237 167.294 74.2006 168.652 75.0126 170.275C75.8246 171.899 76.1367 173.719 75.9108 175.513C75.6849 177.308 74.9307 178.999 73.7403 180.381C72.5498 181.763 70.9745 182.775 69.2065 183.296C67.4384 183.816 65.554 183.821 63.783 183.311C62.0119 182.8 60.4308 181.796 59.2324 180.421C58.034 179.046 57.2701 177.359 57.0338 175.566L16.0687 146.192Z" fill="#DEA7AE"/>
<path d="M3.4315 69.4475C-5.56978 76.4066 5.98338 115.333 5.98338 115.333C7.7721 113.41 9.85071 141.822 12.0371 140.855C18.2509 138.105 29.6401 128.624 34.0309 129.397C36.5419 129.839 33.9111 110.604 33.9111 110.604C33.9111 110.604 33.4273 99.5745 32.5179 85.3963C32.3367 81.3832 31.1217 77.4803 28.9859 74.0508C26.8501 70.6213 23.8631 67.7767 20.3027 65.7819C20.3027 65.7819 12.4328 62.4885 3.4315 69.4475Z" fill="#8A86B0"/>
<path d="M153.204 226.495L129.234 215.41C128.722 215.174 128.27 214.828 127.914 214.397C127.557 213.966 127.305 213.461 127.176 212.921C127.046 212.393 127.04 211.843 127.158 211.312C127.277 210.781 127.516 210.283 127.859 209.856C134.802 201.165 139.57 191.002 141.78 180.182C141.947 179.354 142.402 178.607 143.068 178.071C143.734 177.534 144.569 177.24 145.432 177.239C157.657 177.28 166.794 181.652 172.587 190.231C172.893 190.677 173.095 191.183 173.181 191.714C173.266 192.245 173.232 192.787 173.081 193.304C169.726 204.627 164.622 215.381 157.944 225.192C157.448 225.933 156.695 226.474 155.824 226.714C154.952 226.953 154.022 226.875 153.204 226.495Z" fill="#2421A6"/>
<path d="M160.256 210.948L141.928 202.472C141.472 202.261 141.12 201.881 140.95 201.417C140.78 200.952 140.805 200.44 141.021 199.993C141.236 199.547 141.623 199.202 142.098 199.036C142.573 198.869 143.096 198.894 143.552 199.105L161.88 207.58C162.105 207.685 162.308 207.832 162.476 208.013C162.644 208.194 162.773 208.405 162.858 208.635C162.942 208.866 162.979 209.11 162.967 209.354C162.955 209.598 162.894 209.838 162.787 210.059C162.68 210.28 162.53 210.478 162.345 210.643C162.161 210.807 161.944 210.934 161.709 211.017C161.474 211.099 161.225 211.135 160.976 211.124C160.726 211.112 160.482 211.052 160.256 210.948H160.256Z" fill="white"/>
<path d="M163.103 205.042L144.775 196.567C144.319 196.356 143.967 195.976 143.797 195.511C143.627 195.046 143.652 194.534 143.868 194.088C144.083 193.641 144.471 193.297 144.945 193.13C145.42 192.964 145.943 192.988 146.399 193.199L164.727 201.675C165.183 201.886 165.535 202.265 165.705 202.73C165.875 203.195 165.85 203.707 165.634 204.154C165.419 204.6 165.031 204.945 164.557 205.111C164.082 205.278 163.559 205.253 163.103 205.042V205.042Z" fill="white"/>
</svg>
