<svg width="258" height="384" viewBox="0 0 258 384" fill="none" xmlns="http://www.w3.org/2000/svg">
<path d="M51.4792 354.215C53.7955 346.809 60.7861 342.817 72.1581 339.514C79.4019 337.41 88.5471 336.465 102.865 333.562C109.849 332.146 114.773 329.424 114.773 329.424V337.367C114.773 337.367 67.2376 346.749 59.8412 359.043C56.2297 365.046 57.3418 379.826 74.3169 381.347C69.1328 382.104 60.5835 380.796 55.9987 376.15C50.3165 370.393 48.8132 362.738 51.4792 354.215Z" fill="#282323" stroke="black" stroke-width="4" stroke-miterlimit="10" stroke-linecap="round" stroke-linejoin="round"/>
<path d="M114.773 337.367C114.773 337.367 86.314 342.638 71.1446 349.181C57.8149 354.929 58.2158 360.872 57.878 366.979C57.6831 370.505 60.1596 379.27 70.2934 380.767C82.3577 382.55 96.6101 380.643 114.773 369.064V337.367Z" fill="#442C2A"/>
<path opacity="0.37" d="M57.878 366.979C58.1513 362.038 57.9439 357.204 64.9136 352.494C64.6056 354.2 64.5688 355.921 64.4731 357.654C64.2782 361.18 72.7866 356.587 82.921 358.084C93.4856 359.645 99.6964 371.735 114.773 363.62V369.064C96.6101 380.643 82.3577 382.55 70.2934 380.767C60.1596 379.27 57.6831 370.505 57.878 366.979Z" fill="#442C2A"/>
<path d="M114.773 337.367C114.773 337.367 86.314 342.638 71.1446 349.181C57.8149 354.929 58.2158 360.872 57.878 366.979C57.6831 370.505 60.1596 379.27 70.2934 380.767C82.3577 382.55 96.6101 380.643 114.773 369.064V337.367V337.367Z" stroke="black" stroke-width="4" stroke-miterlimit="10" stroke-linecap="round" stroke-linejoin="round"/>
<path d="M88.4465 353.685C86.1649 354.938 86.7212 367.042 92.2682 368.736M97.1061 352.808C94.7343 356.146 96.4374 363.948 100.609 365.907M105.075 350.032C102.703 353.371 104.406 361.172 108.578 363.131" stroke="black" stroke-width="4" stroke-miterlimit="10" stroke-linecap="round" stroke-linejoin="round"/>
<path d="M186.958 314.079C171.988 324.475 150.657 330.437 128.437 330.437C106.217 330.437 84.887 324.475 69.9167 314.079C63.0413 309.305 51.5083 299.308 51.5083 285.99C51.5083 272.671 63.042 262.674 69.9167 257.9C84.887 247.504 106.217 241.542 128.437 241.542C150.657 241.542 171.988 247.504 186.958 257.9C193.833 262.674 205.366 272.671 205.366 285.99C205.366 299.308 193.833 309.305 186.958 314.079Z" fill="#151E28"/>
<path d="M255.513 297.052C255.242 298.419 254.923 299.778 254.555 301.124C243.761 340.617 191.566 370.565 128.806 370.565C65.8794 370.565 13.5734 340.458 2.96652 300.819C2.66822 299.709 2.40461 298.599 2.18262 297.475C1.88432 295.422 1.94676 293.341 2.40461 291.267C4.99216 279.633 19.1508 272.89 34.024 276.199C43.8054 278.377 51.4709 284.357 54.8285 291.509C55.1962 293.063 55.7026 294.562 56.32 295.998C59.8995 304.308 67.1697 310.566 72.0326 314.055C86.5589 324.447 107.245 330.413 128.806 330.413C150.36 330.413 171.053 324.447 185.573 314.055C190.463 310.545 197.789 304.232 201.348 295.852C201.916 294.506 202.388 293.112 202.742 291.662C206.058 284.447 213.751 278.391 223.609 276.199C238.489 272.89 252.641 279.633 255.228 291.267C255.659 293.195 255.742 295.137 255.513 297.052Z" fill="#446EA7"/>
<path opacity="0.67" d="M255.229 291.267C255.156 290.944 255.074 290.624 254.983 290.306C254.747 291.442 254.477 292.571 254.175 293.69C243.38 333.183 191.185 363.131 128.425 363.131C65.4985 363.131 13.1925 333.024 2.58564 293.385C2.47237 292.958 2.36415 292.529 2.26099 292.099C1.95379 293.876 1.92757 295.69 2.18329 297.475C2.40528 298.598 2.66887 299.708 2.96717 300.818C13.574 340.457 65.88 370.564 128.807 370.564C191.567 370.564 243.762 340.617 254.556 301.124C254.924 299.778 255.243 298.418 255.513 297.051C255.742 295.137 255.659 293.195 255.229 291.267Z" fill="#151E28"/>
<path d="M255.513 297.052C255.242 298.419 254.923 299.778 254.555 301.124C243.761 340.617 191.566 370.565 128.806 370.565C65.8794 370.565 13.5734 340.458 2.96652 300.819C2.66822 299.709 2.40461 298.599 2.18262 297.475C1.88432 295.422 1.94676 293.341 2.40461 291.267C4.99216 279.633 19.1508 272.89 34.024 276.199C43.8054 278.377 51.4709 284.357 54.8285 291.509C55.1962 293.063 55.7026 294.562 56.32 295.998C59.8996 304.308 67.1697 310.566 72.0326 314.055C86.5589 324.447 107.245 330.413 128.806 330.413C150.36 330.413 171.053 324.447 185.573 314.055C190.463 310.545 197.789 304.232 201.348 295.852C201.916 294.506 202.388 293.112 202.742 291.662C206.058 284.447 213.751 278.391 223.609 276.199C238.489 272.89 252.641 279.633 255.228 291.267C255.659 293.195 255.742 295.137 255.513 297.052V297.052Z" stroke="black" stroke-width="4" stroke-miterlimit="10" stroke-linecap="round" stroke-linejoin="round"/>
<path d="M129.663 309.322C164.201 309.322 192.2 299.807 192.2 288.071C192.2 276.334 164.201 266.819 129.663 266.819C95.1242 266.819 67.1252 276.334 67.1252 288.071C67.1252 299.807 95.1242 309.322 129.663 309.322Z" fill="#461F1F"/>
<path d="M129.663 309.322C164.201 309.322 192.2 299.807 192.2 288.071C192.2 276.334 164.201 266.819 129.663 266.819C95.1242 266.819 67.1252 276.334 67.1252 288.071C67.1252 299.807 95.1242 309.322 129.663 309.322Z" stroke="black" stroke-width="4" stroke-miterlimit="10" stroke-linecap="round" stroke-linejoin="round"/>
<path d="M200.837 241.741H56.7709C45.7561 241.741 37.2338 232.088 38.5983 221.159L44.9638 170.184C46.78 155.641 59.1419 144.726 73.798 144.726H183.811C198.467 144.726 210.829 155.64 212.645 170.184L219.01 221.159C220.374 232.088 211.852 241.741 200.837 241.741Z" fill="#F1534D"/>
<path d="M72.4092 187.78L71.0343 205.146M186.223 187.78L187.598 205.146M200.837 241.741H56.7709C45.7561 241.741 37.2338 232.088 38.5983 221.159L44.9638 170.184C46.78 155.641 59.1419 144.726 73.798 144.726H183.811C198.467 144.726 210.829 155.64 212.645 170.184L219.01 221.159C220.374 232.088 211.852 241.741 200.837 241.741V241.741Z" stroke="black" stroke-width="4" stroke-miterlimit="10" stroke-linecap="round" stroke-linejoin="round"/>
<path d="M200.837 241.741H56.7709C45.7561 241.741 37.2338 232.088 38.5983 221.159L44.9638 170.184C46.78 155.641 59.1419 144.726 73.798 144.726H183.811C198.467 144.726 210.829 155.64 212.645 170.184L219.01 221.159C220.374 232.088 211.852 241.741 200.837 241.741Z" fill="#FEDE00"/>
<g opacity="0.24">
<path d="M44.9632 175.567C46.7794 161.024 59.1413 150.109 73.7974 150.109H183.81C198.466 150.109 210.828 161.023 212.644 175.567L218.957 226.123C219.193 224.52 219.221 222.855 219.009 221.159L212.643 170.184C210.827 155.641 198.465 144.726 183.809 144.726H73.7981C59.142 144.726 46.78 155.64 44.9639 170.184L38.5984 221.159C38.3911 222.808 38.4086 224.478 38.6504 226.123L44.9632 175.567Z" fill="#9B2121"/>
<path d="M80.2011 150.11C80.2011 150.11 88.7254 151.604 89.4607 156.362C90.0449 160.144 89.947 162.699 91.4351 164.188C92.9231 165.677 96.3223 168.809 103.175 168.809C99.3392 164.973 99.2636 151.605 98.266 151.605C97.2685 151.605 94.7926 144.954 94.7926 144.954L91.4351 143.431C91.4351 143.429 79.1529 144.968 80.2011 150.11ZM171.306 150.11C171.306 150.11 162.782 151.604 162.047 156.362C161.463 160.144 161.56 162.699 160.072 164.188C158.584 165.677 155.185 168.809 148.333 168.809C152.168 164.973 152.244 151.605 153.241 151.605C154.239 151.605 156.715 144.954 156.715 144.954L160.072 143.431C160.072 143.429 172.354 144.968 171.306 150.11Z" fill="#9B2121"/>
</g>
<path d="M72.4092 187.78L71.0343 205.146M186.223 187.78L187.598 205.146M200.837 241.741H56.7709C45.7561 241.741 37.2338 232.088 38.5983 221.159L44.9638 170.184C46.78 155.641 59.1419 144.726 73.798 144.726H183.811C198.467 144.726 210.829 155.64 212.645 170.184L219.01 221.159C220.374 232.088 211.852 241.741 200.837 241.741V241.741Z" stroke="black" stroke-width="4" stroke-miterlimit="10" stroke-linecap="round" stroke-linejoin="round"/>
<path d="M110.28 115.673L87.4496 114.476L76.7879 115.673C76.7879 115.673 69.6101 121.002 69.6101 122.473C69.6101 123.944 70.3149 135.821 70.3149 135.821C70.3149 135.821 87.1777 138.078 88.9564 139.856C90.7351 141.634 101.465 151.603 101.465 151.603L111.826 147.583L117.238 133.155L110.28 115.673Z" fill="#FFB800"/>
<path d="M106.269 106.839H79.9388C69.3001 106.839 60.6751 115.464 60.6751 126.103C60.6751 136.741 69.3001 145.366 79.9388 145.366H83.4081C88.9987 145.366 93.5314 149.898 93.5314 155.49V156.543C93.5314 163.284 98.9958 168.749 105.737 168.749V156.262C105.893 156.262 106.018 156.388 106.018 156.543V155.488C106.018 143.021 95.8755 132.879 83.4088 132.879H79.9395C76.2025 132.879 73.1626 129.838 73.1626 126.101C73.1626 122.364 76.2025 119.324 79.9395 119.324H106.27L106.269 106.839Z" fill="#FEDE00"/>
<path d="M104.632 147.691C101.448 139.055 93.136 132.88 83.4081 132.88H79.9388C76.2018 132.88 73.1619 129.84 73.1619 126.103C73.1619 122.365 76.2018 119.326 79.9388 119.326H106.269V106.839H79.9388C69.3001 106.839 60.6751 115.464 60.6751 126.103C60.6751 136.741 69.3001 145.366 79.9388 145.366H83.4081C88.9987 145.366 93.5314 149.898 93.5314 155.49V156.543C93.5314 163.284 98.9958 168.749 105.737 168.749" stroke="black" stroke-width="4" stroke-miterlimit="10" stroke-linecap="round" stroke-linejoin="round"/>
<path d="M140.481 115.673L163.311 114.476L173.972 115.673C173.972 115.673 181.15 121.002 181.15 122.473C181.15 123.944 180.445 135.821 180.445 135.821C180.445 135.821 163.583 138.078 161.804 139.856C160.025 141.635 149.295 151.603 149.295 151.603L138.934 147.583L133.522 133.155L140.481 115.673Z" fill="#FFB800"/>
<path d="M144.491 106.839H170.821C181.46 106.839 190.085 115.464 190.085 126.103C190.085 136.741 181.46 145.366 170.821 145.366H167.352C161.762 145.366 157.229 149.898 157.229 155.49V156.543C157.229 163.284 151.764 168.749 145.024 168.749V156.262C144.949 156.262 144.878 156.291 144.825 156.344C144.772 156.397 144.743 156.468 144.743 156.543V155.488C144.743 143.021 154.885 132.879 167.352 132.879H170.821C174.558 132.879 177.598 129.838 177.598 126.101C177.598 122.364 174.558 119.324 170.821 119.324H144.491V106.839Z" fill="#FEDE00"/>
<path d="M146.129 147.691C149.312 139.055 157.624 132.88 167.352 132.88H170.821C174.558 132.88 177.598 129.84 177.598 126.103C177.598 122.365 174.558 119.326 170.821 119.326H144.491V106.839H170.821C181.46 106.839 190.085 115.464 190.085 126.103C190.085 136.741 181.46 145.366 170.821 145.366H167.352C161.762 145.366 157.229 149.898 157.229 155.49V156.543C157.229 163.284 151.764 168.749 145.024 168.749" stroke="black" stroke-width="4" stroke-miterlimit="10" stroke-linecap="round" stroke-linejoin="round"/>
<path d="M126.667 158.928C141.609 158.928 153.721 146.815 153.721 131.874C153.721 116.932 141.609 104.819 126.667 104.819C111.725 104.819 99.6118 116.932 99.6118 131.874C99.6118 146.815 111.725 158.928 126.667 158.928Z" fill="#FEDE00"/>
<path d="M100.799 123.932C108.266 128.742 117.143 131.546 126.667 131.546C136.191 131.546 145.067 128.741 152.534 123.932C149.141 112.866 138.845 104.819 126.667 104.819C114.488 104.819 104.192 112.866 100.799 123.932Z" fill="#F1534D"/>
<path d="M126.667 158.928C141.609 158.928 153.721 146.815 153.721 131.874C153.721 116.932 141.609 104.819 126.667 104.819C111.725 104.819 99.6118 116.932 99.6118 131.874C99.6118 146.815 111.725 158.928 126.667 158.928Z" stroke="black" stroke-width="4" stroke-miterlimit="10" stroke-linecap="round" stroke-linejoin="round"/>
<path d="M126.667 147.583C117.854 147.583 110.711 140.44 110.711 131.628V119.667C110.711 118.608 111.132 117.592 111.881 116.842C112.63 116.093 113.646 115.673 114.706 115.673H138.628C139.688 115.673 140.704 116.093 141.453 116.842C142.202 117.592 142.623 118.608 142.623 119.667V131.628C142.622 140.44 135.479 147.583 126.667 147.583Z" fill="#FFC897"/>
<path d="M138.628 115.673H114.705C112.499 115.673 110.71 117.592 110.71 119.96V129.769C115.805 131.714 121.212 132.711 126.666 132.712C132.119 132.711 137.526 131.714 142.621 129.769V119.96C142.622 117.593 140.834 115.673 138.628 115.673Z" fill="#E5A973"/>
<path d="M126.667 147.583C117.854 147.583 110.711 140.44 110.711 131.628V119.667C110.711 118.608 111.132 117.592 111.881 116.842C112.63 116.093 113.646 115.673 114.706 115.673H138.628C139.688 115.673 140.704 116.093 141.453 116.842C142.202 117.592 142.623 118.608 142.623 119.667V131.628C142.622 140.44 135.479 147.583 126.667 147.583Z" stroke="black" stroke-width="4" stroke-miterlimit="10" stroke-linecap="round" stroke-linejoin="round"/>
<path d="M129.063 327.323H143.941V374.715H129.063V327.323Z" fill="#607691"/>
<path d="M129.063 327.323H143.941V374.715H129.063V327.323ZM56.3205 295.998C55.7031 294.562 55.1967 293.063 54.8291 291.509C55.5152 292.966 56.0216 294.465 56.3205 295.998ZM201.348 295.852C201.64 294.423 202.111 293.022 202.743 291.662C202.389 293.112 201.916 294.506 201.348 295.852Z" stroke="black" stroke-width="4" stroke-miterlimit="10" stroke-linecap="round" stroke-linejoin="round"/>
<path d="M201.12 292.488H56.4871C53.9911 292.488 51.5806 291.578 49.707 289.928C47.8335 288.279 46.6254 286.003 46.309 283.528L37.2838 212.925C36.4999 206.791 41.2789 201.363 47.4619 201.363H210.146C216.33 201.363 221.108 206.791 220.324 212.925L211.299 283.528C210.982 286.004 209.774 288.279 207.9 289.929C206.027 291.578 203.616 292.488 201.12 292.488Z" fill="#B5B5B5"/>
<path opacity="0.21" d="M211.299 279.121C210.983 281.597 209.774 283.873 207.901 285.522C206.027 287.171 203.617 288.081 201.121 288.081H56.4872C53.9911 288.081 51.5806 287.171 49.7071 285.522C47.8335 283.873 46.6254 281.597 46.309 279.121L37.4135 209.535C37.1823 210.649 37.1384 211.795 37.2838 212.924L46.309 283.527C46.6254 286.003 47.8335 288.278 49.7071 289.928C51.5806 291.577 53.9911 292.487 56.4872 292.487H201.12C203.616 292.487 206.027 291.577 207.9 289.928C209.774 288.278 210.982 286.003 211.298 283.527L220.323 212.924C220.469 211.795 220.425 210.649 220.194 209.535L211.299 279.121Z" fill="#7E7E7E"/>
<path opacity="0.21" d="M37.3684 213.59C38.2196 208.849 42.3569 205.146 47.4619 205.146H210.146C215.25 205.146 219.388 208.849 220.24 213.59L220.325 212.925C221.109 206.791 216.33 201.363 210.147 201.363H47.4619C41.2782 201.363 36.4999 206.792 37.2838 212.925L37.3684 213.59Z" fill="#7E7E7E"/>
<path d="M201.12 292.488H56.4871C53.9911 292.488 51.5806 291.578 49.707 289.928C47.8335 288.279 46.6254 286.003 46.309 283.528L37.2838 212.925C36.4999 206.791 41.2789 201.363 47.4619 201.363H210.146C216.33 201.363 221.108 206.791 220.324 212.925L211.299 283.528C210.982 286.004 209.774 288.279 207.9 289.929C206.027 291.578 203.616 292.488 201.12 292.488Z" stroke="black" stroke-width="4" stroke-miterlimit="10" stroke-linecap="round" stroke-linejoin="round"/>
<path opacity="0.66" d="M135.69 242.591C134.205 242.591 132.782 242.001 131.732 240.952C130.682 239.902 130.093 238.478 130.093 236.994C130.093 236.779 130.107 236.568 130.131 236.359C129.572 236.253 129.005 236.199 128.437 236.197C123.343 236.197 119.214 240.327 119.214 245.42C119.214 250.513 123.344 254.643 128.437 254.643C133.53 254.643 137.66 250.513 137.66 245.42C137.66 244.358 137.471 243.342 137.141 242.393C136.668 242.523 136.18 242.589 135.69 242.591Z" fill="white"/>
<path d="M207.235 354.215C204.919 346.809 197.928 342.817 186.556 339.514C179.313 337.41 170.167 336.465 155.85 333.562C148.865 332.146 143.941 329.424 143.941 329.424V337.367C143.941 337.367 191.477 346.749 198.873 359.043C202.485 365.046 201.373 379.826 184.397 381.347C189.582 382.104 198.131 380.796 202.716 376.15C208.398 370.393 209.901 362.738 207.235 354.215Z" fill="#282323" stroke="black" stroke-width="4" stroke-miterlimit="10" stroke-linecap="round" stroke-linejoin="round"/>
<path d="M143.941 337.367C143.941 337.367 172.4 342.638 187.57 349.181C200.899 354.929 200.499 360.872 200.836 366.979C201.031 370.505 198.555 379.27 188.421 380.767C176.357 382.55 162.104 380.643 143.941 369.064V337.367Z" fill="#442C2A"/>
<path opacity="0.37" d="M200.836 366.979C200.563 362.038 200.77 357.204 193.801 352.494C194.109 354.2 194.146 355.921 194.241 357.654C194.436 361.18 191.96 369.945 181.826 371.442C171.261 373.003 159.019 371.735 143.941 363.62V369.064C162.104 380.643 176.357 382.55 188.421 380.767C198.555 379.27 201.031 370.505 200.836 366.979Z" fill="#442C2A"/>
<path d="M143.941 337.367C143.941 337.367 172.4 342.638 187.57 349.181C200.899 354.929 200.499 360.872 200.836 366.979C201.031 370.505 198.555 379.27 188.421 380.767C176.357 382.55 162.104 380.643 143.941 369.064V337.367Z" stroke="black" stroke-width="4" stroke-miterlimit="10" stroke-linecap="round" stroke-linejoin="round"/>
<path d="M170.268 353.685C172.549 354.938 171.993 367.042 166.446 368.736M161.608 352.808C163.98 356.146 162.277 363.948 158.105 365.907M153.639 350.032C156.011 353.371 154.308 361.172 150.136 363.131" stroke="black" stroke-width="4" stroke-miterlimit="10" stroke-linecap="round" stroke-linejoin="round"/>
<path d="M102.281 161.748V198.617M149.12 161.748V187.78" stroke="black" stroke-width="6" stroke-miterlimit="10" stroke-linecap="round" stroke-linejoin="round"/>
<path d="M149.12 195.598C152.31 195.598 154.897 193.012 154.897 189.821C154.897 186.631 152.31 184.045 149.12 184.045C145.93 184.045 143.344 186.631 143.344 189.821C143.344 193.012 145.93 195.598 149.12 195.598Z" fill="black"/>
<path d="M149.12 191.454C150.405 191.454 151.446 190.412 151.446 189.128C151.446 187.843 150.405 186.802 149.12 186.802C147.835 186.802 146.794 187.843 146.794 189.128C146.794 190.412 147.835 191.454 149.12 191.454Z" fill="#7E7E7E"/>
<path d="M126.667 127.384C102.501 127.384 82.9114 107.794 82.9114 83.6292V32.8231H170.421V83.6292C170.421 107.794 150.832 127.384 126.667 127.384Z" fill="#FFC897"/>
<path d="M126.667 121.33C102.501 121.33 82.9114 101.741 82.9114 77.5759V83.6292C82.9114 107.795 102.501 127.384 126.666 127.384C150.831 127.384 170.421 107.794 170.421 83.6292V77.5759C170.421 101.741 150.832 121.33 126.667 121.33Z" fill="#E5A973"/>
<path d="M126.667 127.384C102.501 127.384 82.9114 107.794 82.9114 83.6292V32.8231H170.421V83.6292C170.421 107.794 150.832 127.384 126.667 127.384V127.384Z" stroke="black" stroke-width="4" stroke-miterlimit="10" stroke-linecap="round" stroke-linejoin="round"/>
<path d="M170.798 37.8913C170.66 35.507 170.534 33.1214 170.422 30.7343C141.258 32.1113 112.03 31.8956 82.9232 29.3601C82.731 32.0586 82.5527 34.7585 82.3897 37.4605C83.7229 38.664 85.0655 39.857 86.4174 41.0394C87.5544 41.6069 89.0133 42.3741 90.2946 43.0373C96.1224 46.0772 104.254 49.9959 111.988 51.4673C114.846 52.0188 117.839 52.2838 120.871 52.263C134.005 52.1416 145.02 46.9193 149.661 44.764C150.346 44.4435 150.937 44.166 151.247 44.0397C151.537 43.9218 151.837 43.8607 152.189 43.8455C153.002 43.8122 154 44.0252 155.157 44.2666C156.711 44.5912 158.475 44.9506 160.475 44.8417C162.761 44.7182 164.876 43.9981 166.849 42.6814C168.168 41.0796 169.485 39.4827 170.798 37.8913Z" fill="#E5A973"/>
<path d="M149.652 11.5226C149.652 11.5226 114.629 -11.5905 85.6175 14.201C80.2405 18.9814 78.0518 25.8298 78.0518 32.1849V65.6544H82.912V41.3696C82.912 39.6007 84.1392 38.1667 85.6528 38.1667C88.128 38.1667 101.68 45.3869 113.097 47.3758C130.354 50.3816 146.152 42.3596 149.49 41.1705C155.295 39.1026 160.047 46.2797 167.421 38.1667H167.681C169.195 38.1667 170.422 39.6007 170.422 41.3696V65.6544H175.282V32.3451C175.281 24.2516 165.833 3.68991 149.652 11.5226Z" fill="#231A17"/>
<path opacity="0.34" d="M78.0518 61.1058H82.912V65.6545H78.0518V61.1058ZM170.421 61.1058H175.281V65.6545H170.421V61.1058Z" fill="#231A17"/>
<path d="M149.652 11.5226C149.652 11.5226 114.629 -11.5905 85.6175 14.201C80.2405 18.9814 78.0518 25.8298 78.0518 32.1849V65.6545H82.912V41.3696C82.912 39.6007 84.1392 38.1667 85.6528 38.1667C88.128 38.1667 101.68 45.3869 113.097 47.3758C130.354 50.3816 146.152 42.3596 149.49 41.1705C155.295 39.1026 160.047 46.2797 167.421 38.1667H167.681C169.195 38.1667 170.422 39.6007 170.422 41.3696V65.6545H175.282V32.3451C175.281 24.2516 165.833 3.68991 149.652 11.5226V11.5226Z" stroke="black" stroke-width="4" stroke-miterlimit="10" stroke-linecap="round" stroke-linejoin="round"/>
<path d="M120.08 34.0704C120.08 34.0704 82.4874 36.5108 74.4757 16.5395M125.38 29.2782C125.38 29.2782 89.145 26.9612 79.7112 7.0329" stroke="black" stroke-width="4" stroke-miterlimit="10" stroke-linecap="round" stroke-linejoin="round"/>
<path d="M170.421 60.249V82.9806C175.256 82.9806 179.175 77.8922 179.175 71.6148C179.175 65.3381 175.256 60.249 170.421 60.249Z" fill="#FFC897"/>
<path d="M170.421 61.5137V81.7167C173.242 79.8298 175.175 76.0192 175.175 71.6155C175.175 67.2111 173.242 63.4006 170.421 61.5137Z" fill="#E5A973"/>
<path d="M170.421 60.249V82.9806C175.256 82.9806 179.175 77.8922 179.175 71.6148C179.175 65.3381 175.256 60.249 170.421 60.249Z" stroke="black" stroke-width="4" stroke-miterlimit="10" stroke-linecap="round" stroke-linejoin="round"/>
<path d="M82.9113 60.249V82.9806C78.0768 82.9806 74.1573 77.8922 74.1573 71.6148C74.158 65.3381 78.0768 60.249 82.9113 60.249Z" fill="#FFC897"/>
<path d="M82.9113 61.9028C80.3827 63.8959 78.6873 67.4935 78.6873 71.6148C78.6873 75.7362 80.3827 79.3345 82.9113 81.3268V61.9028Z" fill="#E5A973"/>
<path d="M124.872 78.758L121.956 88.2834C121.956 89.3198 125.38 88.4769 128.803 89.3191M82.9113 60.249V82.9806C78.0768 82.9806 74.1573 77.8922 74.1573 71.6148C74.158 65.3381 78.0768 60.249 82.9113 60.249Z" stroke="black" stroke-width="4" stroke-miterlimit="10" stroke-linecap="round" stroke-linejoin="round"/>
<path d="M135.202 102.88C132.514 109.671 121.272 110.563 115.612 105.767" stroke="black" stroke-width="3" stroke-miterlimit="10" stroke-linecap="round" stroke-linejoin="round"/>
<path d="M110.87 70.6984C112.478 70.6984 113.782 69.3002 113.782 67.5753C113.782 65.8505 112.478 64.4522 110.87 64.4522C109.262 64.4522 107.958 65.8505 107.958 67.5753C107.958 69.3002 109.262 70.6984 110.87 70.6984Z" stroke="black" stroke-width="2" stroke-miterlimit="10" stroke-linecap="round" stroke-linejoin="round"/>
<path d="M110.87 70.6984C112.478 70.6984 113.782 69.3002 113.782 67.5753C113.782 65.8505 112.478 64.4522 110.87 64.4522C109.262 64.4522 107.958 65.8505 107.958 67.5753C107.958 69.3002 109.262 70.6984 110.87 70.6984Z" fill="black"/>
<path d="M100.811 60.9948C102.272 59.2674 105.692 58.0562 109.678 58.0562C112.846 58.0562 115.657 58.8221 117.411 60.0035" stroke="black" stroke-width="3" stroke-miterlimit="10" stroke-linecap="round" stroke-linejoin="round"/>
<path d="M142.816 70.6984C144.424 70.6984 145.728 69.3002 145.728 67.5753C145.728 65.8505 144.424 64.4522 142.816 64.4522C141.207 64.4522 139.903 65.8505 139.903 67.5753C139.903 69.3002 141.207 70.6984 142.816 70.6984Z" stroke="black" stroke-width="2" stroke-miterlimit="10" stroke-linecap="round" stroke-linejoin="round"/>
<path d="M142.816 70.6984C144.424 70.6984 145.728 69.3002 145.728 67.5753C145.728 65.8505 144.424 64.4522 142.816 64.4522C141.207 64.4522 139.903 65.8505 139.903 67.5753C139.903 69.3002 141.207 70.6984 142.816 70.6984Z" fill="black"/>
<path d="M152.875 60.9948C151.414 59.2674 147.994 58.0562 144.008 58.0562C140.839 58.0562 138.028 58.8221 136.274 60.0035" stroke="black" stroke-width="3" stroke-miterlimit="10" stroke-linecap="round" stroke-linejoin="round"/>
</svg>
