<svg width="253" height="376" viewBox="0 0 253 376" fill="none" xmlns="http://www.w3.org/2000/svg">
<path d="M50.4298 346.745C52.697 339.496 59.5393 335.589 70.6701 332.355C77.7602 330.296 86.7115 329.371 100.725 326.53C107.562 325.144 112.381 322.479 112.381 322.479V330.254C112.381 330.254 65.854 339.437 58.6145 351.47C55.0796 357.346 56.168 371.813 72.7832 373.301C67.709 374.042 59.341 372.762 54.8535 368.215C49.2918 362.58 47.8204 355.088 50.4298 346.745V346.745Z" fill="#282323" stroke="black" stroke-width="4" stroke-miterlimit="10" stroke-linecap="round" stroke-linejoin="round"/>
<path d="M112.381 330.254C112.381 330.254 84.5257 335.413 69.678 341.817C56.631 347.444 57.0235 353.26 56.6928 359.238C56.502 362.689 58.926 371.269 68.8449 372.734C80.6534 374.479 94.6034 372.612 112.381 361.279V330.254V330.254Z" fill="#442C2A"/>
<path opacity="0.37" d="M56.6928 359.238C56.9604 354.402 56.7573 349.67 63.5793 345.06C63.2778 346.73 63.2418 348.414 63.1481 350.111C62.9573 353.562 71.2852 349.067 81.2047 350.532C91.5452 352.06 97.6243 363.893 112.381 355.951V361.279C94.6034 372.613 80.6534 374.478 68.8449 372.734C58.926 371.269 56.502 362.689 56.6928 359.238V359.238Z" fill="#442C2A"/>
<path d="M112.381 330.254C112.381 330.254 84.5257 335.413 69.678 341.817C56.631 347.444 57.0235 353.26 56.6928 359.238C56.502 362.689 58.926 371.269 68.8449 372.734C80.6534 374.479 94.6034 372.612 112.381 361.279V330.254V330.254Z" stroke="black" stroke-width="4" stroke-miterlimit="10" stroke-linecap="round" stroke-linejoin="round"/>
<path d="M86.6131 346.227C84.3798 347.453 84.9244 359.299 90.3537 360.957M95.089 345.368C92.7675 348.635 94.4345 356.271 98.518 358.188M102.889 342.651C100.567 345.918 102.234 353.554 106.318 355.472" stroke="black" stroke-width="4" stroke-miterlimit="10" stroke-linecap="round" stroke-linejoin="round"/>
<path d="M183.035 307.46C168.382 317.635 147.504 323.471 125.755 323.471C104.006 323.471 83.129 317.635 68.4762 307.46C61.7466 302.788 50.4583 293.002 50.4583 279.966C50.4583 266.93 61.7473 257.145 68.4762 252.472C83.129 242.297 104.006 236.461 125.755 236.461C147.504 236.461 168.382 242.297 183.035 252.472C189.765 257.145 201.053 266.93 201.053 279.966C201.053 293.002 189.764 302.788 183.035 307.46Z" fill="#151E28"/>
<path d="M250.136 290.794C249.871 292.132 249.559 293.463 249.199 294.78C238.634 333.436 187.546 362.748 126.117 362.748C64.5245 362.748 13.3279 333.279 2.94602 294.481C2.65405 293.395 2.39602 292.308 2.17874 291.209C1.88677 289.199 1.94789 287.162 2.39603 285.131C4.9287 273.745 18.7871 267.145 33.3448 270.384C42.9187 272.516 50.4217 278.369 53.708 285.369C54.0679 286.89 54.5636 288.357 55.1679 289.762C58.6715 297.897 65.7875 304.021 70.5472 307.437C84.7655 317.608 105.013 323.447 126.117 323.447C147.213 323.447 167.468 317.608 181.679 307.437C186.466 304.001 193.636 297.822 197.12 289.62C197.676 288.302 198.138 286.938 198.484 285.518C201.73 278.457 209.26 272.529 218.909 270.384C233.473 267.145 247.325 273.745 249.858 285.131C250.279 287.019 250.361 288.92 250.136 290.794Z" fill="#446EA7"/>
<path opacity="0.67" d="M249.858 285.131C249.787 284.816 249.706 284.503 249.617 284.192C249.386 285.303 249.122 286.408 248.826 287.504C238.261 326.159 187.173 355.472 125.744 355.472C64.1517 355.472 12.9551 326.003 2.5732 287.205C2.46233 286.787 2.35641 286.367 2.25543 285.946C1.95475 287.685 1.92909 289.461 2.17939 291.208C2.39667 292.308 2.65467 293.394 2.94664 294.481C13.3286 333.279 64.5252 362.747 126.117 362.747C187.546 362.747 238.634 333.435 249.2 294.779C249.559 293.462 249.872 292.131 250.137 290.794C250.361 288.92 250.279 287.019 249.858 285.131Z" fill="#151E28"/>
<path d="M250.136 290.794C249.871 292.132 249.559 293.463 249.199 294.78C238.634 333.436 187.546 362.748 126.117 362.748C64.5245 362.748 13.3279 333.279 2.94602 294.481C2.65405 293.395 2.39602 292.308 2.17874 291.209C1.88677 289.199 1.94789 287.162 2.39603 285.131C4.9287 273.745 18.7871 267.145 33.3448 270.384C42.9187 272.516 50.4217 278.369 53.708 285.369C54.0679 286.89 54.5636 288.357 55.1679 289.762C58.6715 297.897 65.7875 304.021 70.5473 307.437C84.7655 317.608 105.013 323.447 126.117 323.447C147.213 323.447 167.468 317.608 181.679 307.437C186.466 304.001 193.636 297.822 197.12 289.62C197.676 288.302 198.138 286.938 198.484 285.518C201.73 278.457 209.26 272.529 218.909 270.384C233.473 267.145 247.325 273.745 249.858 285.131C250.279 287.019 250.361 288.92 250.136 290.794V290.794Z" stroke="black" stroke-width="4" stroke-miterlimit="10" stroke-linecap="round" stroke-linejoin="round"/>
<path d="M126.955 302.804C160.761 302.804 188.166 293.491 188.166 282.003C188.166 270.516 160.761 261.203 126.955 261.203C93.1491 261.203 65.7439 270.516 65.7439 282.003C65.7439 293.491 93.1491 302.804 126.955 302.804Z" fill="#461F1F"/>
<path d="M126.955 302.804C160.761 302.804 188.166 293.491 188.166 282.003C188.166 270.516 160.761 261.203 126.955 261.203C93.1491 261.203 65.7439 270.516 65.7439 282.003C65.7439 293.491 93.1491 302.804 126.955 302.804Z" stroke="black" stroke-width="4" stroke-miterlimit="10" stroke-linecap="round" stroke-linejoin="round"/>
<path d="M196.62 236.656H55.6092C44.8281 236.656 36.4865 227.208 37.8221 216.51L44.0526 166.617C45.8302 152.382 57.93 141.699 72.2753 141.699H179.954C194.3 141.699 206.399 152.382 208.177 166.617L214.408 216.51C215.743 227.208 207.401 236.656 196.62 236.656V236.656Z" fill="#F1534D"/>
<path d="M70.9159 183.84L69.5701 200.838M182.316 183.84L183.662 200.838M196.62 236.656H55.6092C44.8281 236.656 36.4865 227.208 37.8221 216.51L44.0526 166.617C45.8302 152.382 57.93 141.699 72.2753 141.699H179.954C194.3 141.699 206.399 152.382 208.177 166.617L214.408 216.51C215.743 227.208 207.401 236.656 196.62 236.656V236.656Z" stroke="black" stroke-width="4" stroke-miterlimit="10" stroke-linecap="round" stroke-linejoin="round"/>
<path d="M196.62 236.656H55.6092C44.8281 236.656 36.4865 227.208 37.8221 216.51L44.0526 166.617C45.8302 152.382 57.93 141.699 72.2753 141.699H179.954C194.3 141.699 206.399 152.382 208.177 166.617L214.408 216.51C215.743 227.208 207.401 236.656 196.62 236.656V236.656Z" fill="#FEDE00"/>
<g opacity="0.24">
<path d="M44.052 171.886C45.8296 157.651 57.9294 146.968 72.2746 146.968H179.954C194.299 146.968 206.399 157.651 208.176 171.886L214.355 221.37C214.587 219.8 214.614 218.171 214.406 216.51L208.176 166.617C206.398 152.382 194.298 141.699 179.953 141.699H72.2753C57.93 141.699 45.8303 152.382 44.0526 166.617L37.8221 216.51C37.6192 218.125 37.6364 219.76 37.8731 221.37L44.052 171.886Z" fill="#9B2121"/>
<path d="M78.5425 146.969C78.5425 146.969 86.886 148.431 87.6058 153.088C88.1775 156.79 88.0817 159.291 89.5382 160.748C90.9947 162.205 94.3218 165.271 101.029 165.271C97.2747 161.517 97.2007 148.432 96.2243 148.432C95.2479 148.432 92.8246 141.922 92.8246 141.922L89.5382 140.431C89.5382 140.43 77.5165 141.936 78.5425 146.969V146.969ZM167.716 146.969C167.716 146.969 159.372 148.431 158.652 153.088C158.081 156.79 158.176 159.291 156.72 160.748C155.263 162.205 151.936 165.271 145.229 165.271C148.983 161.517 149.057 148.432 150.034 148.432C151.01 148.432 153.433 141.922 153.433 141.922L156.72 140.431C156.72 140.43 168.741 141.936 167.716 146.969V146.969Z" fill="#9B2121"/>
</g>
<path d="M70.9159 183.84L69.5701 200.838M182.316 183.84L183.662 200.838M196.62 236.656H55.6092C44.8281 236.656 36.4865 227.208 37.8221 216.51L44.0526 166.617C45.8302 152.382 57.93 141.699 72.2753 141.699H179.954C194.3 141.699 206.399 152.382 208.177 166.617L214.408 216.51C215.743 227.208 207.401 236.656 196.62 236.656V236.656Z" stroke="black" stroke-width="4" stroke-miterlimit="10" stroke-linecap="round" stroke-linejoin="round"/>
<path d="M107.983 113.262L85.6373 112.09L75.2017 113.262C75.2017 113.262 68.1761 118.478 68.1761 119.918C68.1761 121.358 68.866 132.983 68.866 132.983C68.866 132.983 85.3711 135.192 87.1121 136.932C88.8531 138.673 99.3558 148.43 99.3558 148.43L109.497 144.496L114.794 130.373L107.983 113.262V113.262Z" fill="#FFB800"/>
<path d="M104.058 104.615H78.2858C67.8727 104.615 59.4307 113.057 59.4307 123.47C59.4307 133.884 67.8727 142.326 78.2858 142.326H81.6815C87.1535 142.326 91.5901 146.761 91.5901 152.234V153.266C91.5901 159.863 96.9386 165.212 103.537 165.212V152.99C103.689 152.99 103.812 153.114 103.812 153.265V152.233C103.812 140.031 93.8845 130.103 81.6822 130.103H78.2865C74.6287 130.103 71.6533 127.127 71.6533 123.469C71.6533 119.811 74.6287 116.836 78.2865 116.836H104.059L104.058 104.615V104.615Z" fill="#FEDE00"/>
<path d="M102.455 144.601C99.3389 136.148 91.2031 130.104 81.6815 130.104H78.2858C74.628 130.104 71.6527 127.128 71.6527 123.47C71.6527 119.813 74.628 116.837 78.2858 116.837H104.058V104.615H78.2858C67.8727 104.615 59.4307 113.057 59.4307 123.47C59.4307 133.884 67.8727 142.326 78.2858 142.326H81.6815C87.1535 142.326 91.5901 146.761 91.5901 152.234V153.266C91.5901 159.863 96.9386 165.212 103.537 165.212" stroke="black" stroke-width="4" stroke-miterlimit="10" stroke-linecap="round" stroke-linejoin="round"/>
<path d="M137.543 113.262L159.889 112.09L170.325 113.262C170.325 113.262 177.351 118.478 177.351 119.918C177.351 121.358 176.661 132.983 176.661 132.983C176.661 132.983 160.156 135.192 158.415 136.932C156.674 138.673 146.171 148.43 146.171 148.43L136.03 144.496L130.732 130.373L137.543 113.262V113.262Z" fill="#FFB800"/>
<path d="M141.469 104.615H167.241C177.654 104.615 186.096 113.057 186.096 123.47C186.096 133.884 177.654 142.326 167.241 142.326H163.845C158.373 142.326 153.937 146.761 153.937 152.234V153.266C153.937 159.863 148.588 165.212 141.99 165.212V152.99C141.917 152.99 141.847 153.019 141.796 153.07C141.744 153.122 141.715 153.192 141.715 153.265V152.233C141.715 140.031 151.643 130.103 163.845 130.103H167.241C170.899 130.103 173.874 127.127 173.874 123.469C173.874 119.811 170.899 116.836 167.241 116.836H141.469V104.615V104.615Z" fill="#FEDE00"/>
<path d="M143.072 144.601C146.188 136.148 154.324 130.104 163.845 130.104H167.241C170.899 130.104 173.874 127.128 173.874 123.47C173.874 119.813 170.899 116.837 167.241 116.837H141.469V104.615H167.241C177.654 104.615 186.096 113.057 186.096 123.47C186.096 133.884 177.654 142.326 167.241 142.326H163.845C158.373 142.326 153.937 146.761 153.937 152.234V153.266C153.937 159.863 148.588 165.212 141.99 165.212" stroke="black" stroke-width="4" stroke-miterlimit="10" stroke-linecap="round" stroke-linejoin="round"/>
<path d="M124.023 155.6C138.648 155.6 150.504 143.744 150.504 129.119C150.504 114.494 138.648 102.638 124.023 102.638C109.397 102.638 97.5415 114.494 97.5415 129.119C97.5415 143.744 109.397 155.6 124.023 155.6Z" fill="#FEDE00"/>
<path d="M98.7032 121.346C106.013 126.054 114.7 128.799 124.022 128.799C133.344 128.799 142.032 126.053 149.342 121.346C146.02 110.514 135.942 102.639 124.022 102.639C112.103 102.638 102.025 110.514 98.7032 121.346V121.346Z" fill="#F1534D"/>
<path d="M124.023 155.6C138.648 155.6 150.504 143.744 150.504 129.119C150.504 114.494 138.648 102.638 124.023 102.638C109.397 102.638 97.5415 114.494 97.5415 129.119C97.5415 143.744 109.397 155.6 124.023 155.6Z" stroke="black" stroke-width="4" stroke-miterlimit="10" stroke-linecap="round" stroke-linejoin="round"/>
<path d="M124.023 144.496C115.397 144.496 108.406 137.504 108.406 128.879V117.171C108.406 116.134 108.817 115.14 109.551 114.407C110.284 113.674 111.278 113.262 112.315 113.262H135.731C136.767 113.262 137.762 113.674 138.495 114.407C139.228 115.14 139.64 116.134 139.64 117.171V128.879C139.64 137.504 132.648 144.496 124.023 144.496Z" fill="#FFC897"/>
<path d="M135.73 113.262H112.314C110.155 113.262 108.405 115.14 108.405 117.459V127.059C113.391 128.963 118.684 129.939 124.022 129.94C129.359 129.939 134.652 128.963 139.639 127.059V117.459C139.639 115.141 137.889 113.262 135.73 113.262Z" fill="#E5A973"/>
<path d="M124.023 144.496C115.397 144.496 108.406 137.504 108.406 128.879V117.171C108.406 116.134 108.817 115.14 109.551 114.407C110.284 113.674 111.278 113.262 112.315 113.262H135.731C136.767 113.262 137.762 113.674 138.495 114.407C139.228 115.14 139.64 116.134 139.64 117.171V128.879C139.64 137.504 132.648 144.496 124.023 144.496Z" stroke="black" stroke-width="4" stroke-miterlimit="10" stroke-linecap="round" stroke-linejoin="round"/>
<path d="M126.368 320.423H140.93V366.81H126.368V320.423Z" fill="#607691"/>
<path d="M126.368 320.423H140.93V366.81H126.368V320.423ZM55.1685 289.762C54.5642 288.357 54.0685 286.89 53.7086 285.369C54.3801 286.795 54.8758 288.262 55.1685 289.762ZM197.12 289.62C197.405 288.221 197.867 286.849 198.485 285.519C198.139 286.938 197.676 288.302 197.12 289.62Z" stroke="black" stroke-width="4" stroke-miterlimit="10" stroke-linecap="round" stroke-linejoin="round"/>
<path d="M196.897 286.327H55.3315C52.8884 286.327 50.529 285.436 48.6952 283.822C46.8614 282.207 45.679 279.98 45.3692 277.557L36.5355 208.451C35.7682 202.448 40.4458 197.134 46.4977 197.134H205.731C211.784 197.134 216.461 202.448 215.694 208.451L206.86 277.557C206.55 279.98 205.367 282.207 203.534 283.822C201.7 285.436 199.34 286.327 196.897 286.327Z" fill="#B5B5B5"/>
<path opacity="0.21" d="M206.86 273.244C206.55 275.667 205.368 277.894 203.534 279.509C201.7 281.123 199.341 282.014 196.898 282.014H55.3315C52.8884 282.014 50.529 281.123 48.6952 279.509C46.8614 277.894 45.679 275.667 45.3693 273.244L36.6624 205.133C36.4361 206.224 36.3932 207.345 36.5355 208.451L45.3693 277.556C45.679 279.979 46.8614 282.207 48.6952 283.821C50.529 285.435 52.8884 286.326 55.3315 286.326H196.897C199.34 286.326 201.699 285.435 203.533 283.821C205.367 282.207 206.549 279.979 206.859 277.556L215.693 208.451C215.835 207.345 215.792 206.224 215.566 205.133L206.86 273.244Z" fill="#7E7E7E"/>
<path opacity="0.21" d="M36.6183 209.102C37.4514 204.462 41.501 200.838 46.4978 200.838H205.731C210.728 200.838 214.778 204.462 215.611 209.102L215.694 208.451C216.462 202.448 211.784 197.134 205.732 197.134H46.4978C40.4451 197.134 35.7682 202.448 36.5355 208.451L36.6183 209.102V209.102Z" fill="#7E7E7E"/>
<path d="M196.897 286.327H55.3315C52.8884 286.327 50.529 285.436 48.6952 283.822C46.8614 282.207 45.679 279.98 45.3692 277.557L36.5355 208.451C35.7682 202.448 40.4458 197.134 46.4977 197.134H205.731C211.784 197.134 216.461 202.448 215.694 208.451L206.86 277.557C206.55 279.98 205.367 282.207 203.534 283.822C201.7 285.436 199.34 286.327 196.897 286.327Z" stroke="black" stroke-width="4" stroke-miterlimit="10" stroke-linecap="round" stroke-linejoin="round"/>
<path opacity="0.66" d="M132.854 237.488C131.401 237.488 130.008 236.911 128.981 235.884C127.953 234.856 127.376 233.463 127.376 232.01C127.376 231.799 127.39 231.593 127.413 231.389C126.867 231.285 126.312 231.232 125.755 231.23C120.769 231.23 116.728 235.272 116.728 240.257C116.728 245.242 120.77 249.284 125.755 249.284C130.741 249.284 134.783 245.242 134.783 240.257C134.783 239.218 134.598 238.223 134.275 237.295C133.812 237.421 133.334 237.486 132.854 237.488V237.488Z" fill="white"/>
<path d="M202.882 346.745C200.615 339.496 193.773 335.589 182.642 332.355C175.552 330.296 166.601 329.371 152.587 326.53C145.751 325.144 140.931 322.479 140.931 322.479V330.254C140.931 330.254 187.458 339.437 194.698 351.47C198.233 357.346 197.144 371.813 180.529 373.301C185.603 374.042 193.971 372.762 198.459 368.215C204.02 362.58 205.492 355.088 202.882 346.745V346.745Z" fill="#282323" stroke="black" stroke-width="4" stroke-miterlimit="10" stroke-linecap="round" stroke-linejoin="round"/>
<path d="M140.931 330.254C140.931 330.254 168.786 335.413 183.634 341.817C196.681 347.444 196.289 353.26 196.619 359.238C196.81 362.689 194.386 371.269 184.467 372.734C172.659 374.479 158.709 372.612 140.931 361.279V330.254Z" fill="#442C2A"/>
<path opacity="0.37" d="M196.619 359.238C196.352 354.402 196.555 349.67 189.733 345.06C190.034 346.73 190.07 348.414 190.164 350.111C190.355 353.562 187.931 362.142 178.012 363.607C167.671 365.135 155.688 363.893 140.931 355.951V361.279C158.709 372.613 172.659 374.478 184.467 372.734C194.386 371.269 196.81 362.689 196.619 359.238Z" fill="#442C2A"/>
<path d="M140.931 330.254C140.931 330.254 168.786 335.413 183.634 341.817C196.681 347.444 196.289 353.26 196.619 359.238C196.81 362.689 194.386 371.269 184.467 372.734C172.659 374.479 158.709 372.612 140.931 361.279V330.254Z" stroke="black" stroke-width="4" stroke-miterlimit="10" stroke-linecap="round" stroke-linejoin="round"/>
<path d="M166.699 346.227C168.932 347.453 168.388 359.299 162.958 360.957M158.223 345.368C160.545 348.635 158.878 356.271 154.794 358.188M150.423 342.651C152.745 345.918 151.078 353.554 146.994 355.472" stroke="black" stroke-width="4" stroke-miterlimit="10" stroke-linecap="round" stroke-linejoin="round"/>
<path d="M100.154 158.359V194.447M146 158.359V183.84" stroke="black" stroke-width="6" stroke-miterlimit="10" stroke-linecap="round" stroke-linejoin="round"/>
<path d="M146 191.492C149.122 191.492 151.654 188.961 151.654 185.838C151.654 182.715 149.122 180.184 146 180.184C142.877 180.184 140.346 182.715 140.346 185.838C140.346 188.961 142.877 191.492 146 191.492Z" fill="black"/>
<path d="M146 187.436C147.257 187.436 148.276 186.416 148.276 185.159C148.276 183.902 147.257 182.882 146 182.882C144.742 182.882 143.723 183.902 143.723 185.159C143.723 186.416 144.742 187.436 146 187.436Z" fill="#7E7E7E"/>
<path d="M124.023 124.725C100.37 124.725 81.1953 105.55 81.1953 81.898V32.1694H166.849V81.898C166.849 105.55 147.676 124.725 124.023 124.725V124.725Z" fill="#FFC897"/>
<path d="M124.023 118.8C100.37 118.8 81.1953 99.6253 81.1953 75.973V81.8979C81.1953 105.551 100.37 124.725 124.022 124.725C147.675 124.725 166.848 105.55 166.848 81.8979V75.973C166.849 99.6253 147.676 118.8 124.023 118.8V118.8Z" fill="#E5A973"/>
<path d="M124.023 124.725C100.37 124.725 81.1953 105.55 81.1953 81.898V32.1694H166.849V81.898C166.849 105.55 147.676 124.725 124.023 124.725V124.725Z" stroke="black" stroke-width="4" stroke-miterlimit="10" stroke-linecap="round" stroke-linejoin="round"/>
<path d="M167.218 37.1301C167.083 34.7964 166.96 32.4613 166.85 30.1249C138.304 31.4727 109.696 31.2615 81.2069 28.7798C81.0188 31.4211 80.8443 34.0638 80.6847 36.7085C81.9896 37.8864 83.3038 39.0541 84.627 40.2114C85.7398 40.7669 87.1678 41.5178 88.4219 42.1669C94.1262 45.1423 102.085 48.978 109.655 50.4182C112.453 50.958 115.382 51.2173 118.35 51.197C131.206 51.0781 141.986 45.9666 146.529 43.857C147.2 43.5433 147.778 43.2717 148.082 43.1481C148.365 43.0327 148.659 42.9729 149.004 42.958C149.799 42.9254 150.776 43.1338 151.908 43.3701C153.429 43.6879 155.157 44.0396 157.114 43.933C159.352 43.8122 161.422 43.1074 163.352 41.8186C164.644 40.2508 165.932 38.6877 167.218 37.1301V37.1301Z" fill="#E5A973"/>
<path d="M146.52 11.3207C146.52 11.3207 112.24 -11.3023 83.844 13.9423C78.5811 18.6213 76.4388 25.3244 76.4388 31.5447V64.3044H81.1959V40.5346C81.1959 38.8032 82.3971 37.3997 83.8786 37.3997C86.3013 37.3997 99.5656 44.4667 110.741 46.4134C127.631 49.3555 143.094 41.5036 146.362 40.3398C152.044 38.3157 156.695 45.3406 163.913 37.3997H164.167C165.649 37.3997 166.85 38.8032 166.85 40.5346V64.3044H171.607V31.7015C171.606 23.7796 162.358 3.65407 146.52 11.3207V11.3207Z" fill="#231A17"/>
<path opacity="0.34" d="M76.4388 59.8522H81.1959V64.3044H76.4388V59.8522ZM166.849 59.8522H171.606V64.3044H166.849V59.8522Z" fill="#231A17"/>
<path d="M146.52 11.3207C146.52 11.3207 112.24 -11.3023 83.844 13.9423C78.5811 18.6213 76.4388 25.3244 76.4388 31.5447V64.3044H81.1959V40.5346C81.1959 38.8032 82.3971 37.3997 83.8786 37.3997C86.3013 37.3997 99.5656 44.4667 110.741 46.4134C127.631 49.3555 143.094 41.5036 146.362 40.3398C152.044 38.3157 156.695 45.3406 163.913 37.3997H164.167C165.649 37.3997 166.85 38.8032 166.85 40.5346V64.3044H171.607V31.7015C171.606 23.7796 162.358 3.65407 146.52 11.3207V11.3207Z" stroke="black" stroke-width="4" stroke-miterlimit="10" stroke-linecap="round" stroke-linejoin="round"/>
<path d="M117.575 33.3902C117.575 33.3902 80.7804 35.7789 72.9386 16.2312M122.764 28.6997C122.764 28.6997 87.2967 26.4318 78.063 6.92616" stroke="black" stroke-width="4" stroke-miterlimit="10" stroke-linecap="round" stroke-linejoin="round"/>
<path d="M166.849 59.0136V81.2631C171.581 81.2631 175.417 76.2826 175.417 70.1383C175.417 63.9948 171.582 59.0136 166.849 59.0136Z" fill="#FFC897"/>
<path d="M166.849 60.2514V80.026C169.61 78.1791 171.502 74.4493 171.502 70.139C171.502 65.8281 169.61 62.0983 166.849 60.2514Z" fill="#E5A973"/>
<path d="M166.849 59.0136V81.2631C171.581 81.2631 175.417 76.2826 175.417 70.1383C175.417 63.9948 171.582 59.0136 166.849 59.0136Z" stroke="black" stroke-width="4" stroke-miterlimit="10" stroke-linecap="round" stroke-linejoin="round"/>
<path d="M81.1953 59.0136V81.2631C76.4633 81.2631 72.627 76.2826 72.627 70.1383C72.6276 63.9948 76.4633 59.0136 81.1953 59.0136Z" fill="#FFC897"/>
<path d="M81.1952 60.6324C78.7203 62.5831 77.0608 66.1044 77.0608 70.1384C77.0608 74.1723 78.7203 77.6943 81.1952 79.6444V60.6324Z" fill="#E5A973"/>
<path d="M122.266 77.13L119.412 86.4534C119.412 87.4678 122.763 86.6428 126.114 87.4671M81.1953 59.0136V81.2631C76.4633 81.2631 72.627 76.2826 72.627 70.1383C72.6276 63.9948 76.4633 59.0136 81.1953 59.0136Z" stroke="black" stroke-width="4" stroke-miterlimit="10" stroke-linecap="round" stroke-linejoin="round"/>
<path d="M138.29 94.5029C139.333 101.575 130.239 107.831 123.094 106.534" stroke="black" stroke-width="3" stroke-miterlimit="10" stroke-linecap="round" stroke-linejoin="round"/>
<path d="M108.561 69.2414C110.135 69.2414 111.411 67.8728 111.411 66.1845C111.411 64.4963 110.135 63.1277 108.561 63.1277C106.987 63.1277 105.711 64.4963 105.711 66.1845C105.711 67.8728 106.987 69.2414 108.561 69.2414Z" stroke="black" stroke-width="2" stroke-miterlimit="10" stroke-linecap="round" stroke-linejoin="round"/>
<path d="M108.561 69.2414C110.135 69.2414 111.411 67.8728 111.411 66.1845C111.411 64.4963 110.135 63.1277 108.561 63.1277C106.987 63.1277 105.711 64.4963 105.711 66.1845C105.711 67.8728 106.987 69.2414 108.561 69.2414Z" fill="black"/>
<path d="M98.7148 59.7435C100.145 58.0528 103.492 56.8673 107.394 56.8673C110.495 56.8673 113.247 57.6169 114.963 58.7732" stroke="black" stroke-width="3" stroke-miterlimit="10" stroke-linecap="round" stroke-linejoin="round"/>
<path d="M139.829 69.2414C141.403 69.2414 142.679 67.8728 142.679 66.1845C142.679 64.4963 141.403 63.1277 139.829 63.1277C138.255 63.1277 136.979 64.4963 136.979 66.1845C136.979 67.8728 138.255 69.2414 139.829 69.2414Z" stroke="black" stroke-width="2" stroke-miterlimit="10" stroke-linecap="round" stroke-linejoin="round"/>
<path d="M139.829 69.2414C141.403 69.2414 142.679 67.8728 142.679 66.1845C142.679 64.4963 141.403 63.1277 139.829 63.1277C138.255 63.1277 136.979 64.4963 136.979 66.1845C136.979 67.8728 138.255 69.2414 139.829 69.2414Z" fill="black"/>
<path d="M149.675 59.7435C148.245 58.0528 144.898 56.8673 140.996 56.8673C137.894 56.8673 135.143 57.6169 133.427 58.7732" stroke="black" stroke-width="3" stroke-miterlimit="10" stroke-linecap="round" stroke-linejoin="round"/>
</svg>
