<svg width="217" height="217" viewBox="0 0 217 217" fill="none" xmlns="http://www.w3.org/2000/svg">
<circle cx="108.5" cy="108.5" r="108.5" fill="#15135B"/>
<path d="M26 85H43.5436C47.1406 85 50.2314 85.5385 52.8161 86.6154C55.4224 87.6924 57.4255 89.2863 58.8255 91.3971C60.2256 93.5079 60.9256 96.1034 60.9256 99.1835C60.9256 101.704 60.4948 103.868 59.6332 105.678C58.7932 107.465 57.5978 108.962 56.047 110.168C54.5177 111.353 52.7192 112.301 50.6515 113.012L47.5821 114.627H32.3325L32.2679 107.067H43.6082C45.3098 107.067 46.7206 106.765 47.8406 106.162C48.9606 105.559 49.8007 104.719 50.3607 103.642C50.9422 102.565 51.233 101.316 51.233 99.8943C51.233 98.3865 50.953 97.0834 50.393 95.9849C49.833 94.8864 48.9822 94.0464 47.8406 93.4649C46.699 92.8833 45.2667 92.5925 43.5436 92.5925H35.6926V132.041H26V85ZM52.2992 132.041L41.5727 111.073L51.8146 111.008L62.6703 131.589V132.041H52.2992Z" fill="#61DAFB"/>
<path d="M83.897 132.687C81.1831 132.687 78.7492 132.257 76.5953 131.395C74.4414 130.512 72.6105 129.295 71.1028 127.744C69.6166 126.193 68.475 124.395 67.6781 122.349C66.8811 120.281 66.4827 118.084 66.4827 115.758V114.465C66.4827 111.816 66.8596 109.393 67.6135 107.196C68.3673 104.999 69.4443 103.093 70.8443 101.477C72.2659 99.862 73.989 98.6235 76.0137 97.7619C78.0384 96.8788 80.3215 96.4372 82.8631 96.4372C85.3401 96.4372 87.5371 96.8465 89.4541 97.665C91.3711 98.4835 92.9757 99.6466 94.2681 101.154C95.5819 102.662 96.5727 104.471 97.2405 106.582C97.9082 108.671 98.242 110.998 98.242 113.561V117.438H70.4566V111.235H89.0987V110.524C89.0987 109.231 88.8618 108.079 88.3879 107.067C87.9356 106.033 87.2463 105.214 86.3201 104.611C85.394 104.008 84.2093 103.707 82.7662 103.707C81.5385 103.707 80.4831 103.976 79.6 104.514C78.7169 105.053 77.9953 105.807 77.4353 106.776C76.8968 107.745 76.4876 108.887 76.2076 110.201C75.9491 111.493 75.8199 112.915 75.8199 114.465V115.758C75.8199 117.158 76.0137 118.45 76.4014 119.635C76.8107 120.819 77.3814 121.843 78.1138 122.704C78.8676 123.566 79.7723 124.233 80.8277 124.707C81.9046 125.181 83.1216 125.418 84.4786 125.418C86.1586 125.418 87.7202 125.095 89.1633 124.449C90.628 123.781 91.888 122.78 92.9434 121.444L97.4666 126.355C96.7343 127.41 95.7327 128.423 94.4619 129.392C93.2126 130.361 91.7049 131.158 89.9387 131.783C88.1725 132.386 86.1586 132.687 83.897 132.687Z" fill="#61DAFB"/>
<path d="M122.409 124.158V108.585C122.409 107.465 122.226 106.507 121.86 105.71C121.493 104.891 120.923 104.256 120.147 103.804C119.393 103.351 118.413 103.125 117.207 103.125C116.173 103.125 115.279 103.308 114.526 103.674C113.772 104.019 113.19 104.525 112.781 105.193C112.372 105.839 112.167 106.604 112.167 107.487H102.862C102.862 106.001 103.207 104.59 103.896 103.254C104.585 101.919 105.587 100.745 106.901 99.7327C108.215 98.6988 109.776 97.8911 111.585 97.3096C113.416 96.728 115.463 96.4372 117.724 96.4372C120.438 96.4372 122.85 96.8896 124.961 97.7942C127.072 98.6988 128.731 100.056 129.937 101.865C131.164 103.674 131.778 105.936 131.778 108.65V123.609C131.778 125.526 131.897 127.098 132.134 128.326C132.371 129.532 132.715 130.587 133.168 131.492V132.041H123.766C123.313 131.094 122.969 129.909 122.732 128.487C122.517 127.044 122.409 125.601 122.409 124.158ZM123.637 110.75L123.701 116.016H118.5C117.272 116.016 116.206 116.156 115.301 116.436C114.396 116.716 113.653 117.115 113.072 117.632C112.49 118.127 112.059 118.709 111.779 119.376C111.521 120.044 111.392 120.776 111.392 121.573C111.392 122.37 111.575 123.092 111.941 123.738C112.307 124.363 112.835 124.858 113.524 125.224C114.213 125.569 115.021 125.741 115.947 125.741C117.347 125.741 118.564 125.461 119.598 124.901C120.632 124.341 121.429 123.652 121.989 122.833C122.57 122.015 122.872 121.239 122.893 120.507L125.349 124.449C125.004 125.332 124.53 126.247 123.927 127.195C123.346 128.143 122.603 129.037 121.698 129.877C120.793 130.695 119.706 131.374 118.435 131.912C117.164 132.429 115.656 132.687 113.912 132.687C111.693 132.687 109.679 132.246 107.87 131.363C106.082 130.458 104.661 129.22 103.605 127.647C102.571 126.053 102.054 124.244 102.054 122.22C102.054 120.389 102.399 118.762 103.088 117.341C103.778 115.919 104.79 114.724 106.125 113.755C107.482 112.764 109.173 112.021 111.198 111.525C113.222 111.008 115.57 110.75 118.241 110.75H123.637Z" fill="#61DAFB"/>
<path d="M153.393 125.418C154.534 125.418 155.547 125.203 156.43 124.772C157.313 124.32 158.002 123.695 158.498 122.898C159.014 122.08 159.284 121.121 159.305 120.023H168.061C168.039 122.478 167.382 124.664 166.09 126.581C164.798 128.477 163.064 129.974 160.888 131.072C158.713 132.149 156.279 132.687 153.587 132.687C150.873 132.687 148.503 132.235 146.479 131.331C144.476 130.426 142.806 129.177 141.471 127.583C140.135 125.967 139.134 124.093 138.466 121.961C137.799 119.807 137.465 117.502 137.465 115.047V114.11C137.465 111.633 137.799 109.328 138.466 107.196C139.134 105.042 140.135 103.168 141.471 101.574C142.806 99.9589 144.476 98.6988 146.479 97.7942C148.482 96.8896 150.83 96.4372 153.522 96.4372C156.387 96.4372 158.896 96.9865 161.05 98.085C163.225 99.1835 164.927 100.756 166.155 102.802C167.404 104.827 168.039 107.228 168.061 110.007H159.305C159.284 108.844 159.036 107.788 158.562 106.841C158.11 105.893 157.442 105.139 156.559 104.579C155.697 103.997 154.631 103.707 153.36 103.707C152.004 103.707 150.894 103.997 150.033 104.579C149.171 105.139 148.503 105.914 148.03 106.905C147.556 107.874 147.222 108.984 147.028 110.233C146.856 111.461 146.77 112.753 146.77 114.11V115.047C146.77 116.404 146.856 117.707 147.028 118.956C147.2 120.206 147.523 121.315 147.997 122.284C148.493 123.253 149.171 124.018 150.033 124.578C150.894 125.138 152.014 125.418 153.393 125.418Z" fill="#61DAFB"/>
<path d="M190.58 97.0834V103.674H170.226V97.0834H190.58ZM175.266 88.457H184.571V121.509C184.571 122.521 184.7 123.296 184.958 123.835C185.238 124.373 185.648 124.75 186.186 124.966C186.724 125.16 187.403 125.257 188.221 125.257C188.803 125.257 189.32 125.235 189.772 125.192C190.246 125.127 190.645 125.063 190.968 124.998L191 131.847C190.203 132.106 189.341 132.311 188.415 132.461C187.489 132.612 186.466 132.687 185.346 132.687C183.3 132.687 181.512 132.354 179.983 131.686C178.475 130.997 177.312 129.898 176.493 128.39C175.675 126.883 175.266 124.901 175.266 122.446V88.457Z" fill="#61DAFB"/>
</svg>
