<svg width="217" height="217" viewBox="0 0 217 217" fill="none" xmlns="http://www.w3.org/2000/svg">
<circle cx="108.5" cy="108.5" r="108.5" fill="#FEDE00"/>
<path d="M108.5 108.75C108.5 100.992 111.582 93.5526 117.067 88.0671C122.553 82.5817 129.992 79.5 137.75 79.5C145.508 79.5 152.947 82.5817 158.433 88.0671C163.918 93.5526 167 100.992 167 108.75C167 116.508 163.918 123.947 158.433 129.433C152.947 134.918 145.508 138 137.75 138C129.992 138 122.553 134.918 117.067 129.433C111.582 123.947 108.5 116.508 108.5 108.75V108.75Z" fill="#1ABCFE"/>
<path d="M50 167.25C50 159.492 53.0817 152.053 58.5671 146.567C64.0526 141.082 71.4924 138 79.25 138H108.5V167.25C108.5 175.008 105.418 182.447 99.9329 187.933C94.4474 193.418 87.0076 196.5 79.25 196.5C71.4924 196.5 64.0526 193.418 58.5671 187.933C53.0817 182.447 50 175.008 50 167.25V167.25Z" fill="#0ACF83"/>
<path d="M108.5 21V79.5H137.75C145.508 79.5 152.947 76.4183 158.433 70.9329C163.918 65.4474 167 58.0076 167 50.25C167 42.4924 163.918 35.0526 158.433 29.5671C152.947 24.0817 145.508 21 137.75 21L108.5 21Z" fill="#FF7262"/>
<path d="M50 50.25C50 58.0076 53.0817 65.4474 58.5671 70.9329C64.0526 76.4183 71.4924 79.5 79.25 79.5H108.5V21H79.25C71.4924 21 64.0526 24.0817 58.5671 29.5671C53.0817 35.0526 50 42.4924 50 50.25V50.25Z" fill="#F24E1E"/>
<path d="M50 108.75C50 116.508 53.0817 123.947 58.5671 129.433C64.0526 134.918 71.4924 138 79.25 138H108.5V79.5H79.25C71.4924 79.5 64.0526 82.5817 58.5671 88.0671C53.0817 93.5526 50 100.992 50 108.75V108.75Z" fill="#A259FF"/>
</svg>
