<svg width="217" height="217" viewBox="0 0 217 217" fill="none" xmlns="http://www.w3.org/2000/svg">
<circle cx="108.5" cy="108.5" r="108.5" fill="#FEDE00"/>
<path d="M20.083 77.9003V127.997L26.5439 128.022V104.166H42.0749V97.8546H26.5191V84.1873H46.7715V77.9003H20.083ZM58.3514 88.0887C59.4718 88.0887 60.5463 87.6436 61.3385 86.8514C62.1307 86.0591 62.5758 84.9846 62.5758 83.8642C62.5758 82.7438 62.1307 81.6693 61.3385 80.8771C60.5463 80.0849 59.4718 79.6398 58.3514 79.6398C57.231 79.6398 56.1565 80.0849 55.3643 80.8771C54.572 81.6693 54.127 82.7438 54.127 83.8642C54.127 84.9846 54.572 86.0591 55.3643 86.8514C56.1565 87.6436 57.231 88.0887 58.3514 88.0887V88.0887ZM55.0961 94.3756V128.022H61.557V94.3756H55.0961V94.3756Z" fill="black"/>
<path fill-rule="evenodd" clip-rule="evenodd" d="M85.4372 93.4064C76.889 93.4064 70.925 100.638 70.925 109.236C70.925 117.834 76.889 125.065 85.4372 125.065C89.3634 125.065 92.5939 123.574 94.9546 121.089V125.562C94.971 126.898 94.7224 128.225 94.223 129.465C93.7237 130.704 92.9835 131.833 92.0454 132.785C91.1072 133.737 89.9897 134.494 88.7573 135.011C87.525 135.529 86.2023 135.797 84.8657 135.8C82.8032 135.8 80.7655 135.005 79.1503 133.862L75.9198 139.453C78.4177 141.067 81.3052 141.978 84.2775 142.088C87.2498 142.199 90.1968 141.505 92.8075 140.08C95.4183 138.655 97.5961 136.551 99.1111 133.992C100.626 131.432 101.422 128.511 101.416 125.537V94.4004H94.9546V97.4072C92.5939 94.9223 89.3634 93.4313 85.4372 93.4313V93.4064ZM77.3611 109.236C77.3611 103.893 81.4364 99.6934 86.1579 99.6934C90.8793 99.6934 94.9298 103.918 94.9298 109.236C94.9298 114.578 90.8544 118.753 86.1579 118.753C81.4364 118.753 77.3611 114.578 77.3611 109.236V109.236Z" fill="black"/>
<path d="M124.625 99.6933C122.777 99.726 121.017 100.485 119.724 101.805C118.431 103.126 117.71 104.903 117.717 106.751V128.022H111.256V94.3755H117.717V97.4569C118.684 96.1757 119.939 95.1411 121.382 94.4372C122.824 93.7333 124.412 93.3801 126.017 93.4064C130.539 93.4064 134.018 95.6429 136.006 99.0721C137.115 97.353 138.633 95.9357 140.424 94.9469C142.215 93.9582 144.224 93.4289 146.269 93.4064C153.6 93.4064 158.197 99.3206 158.197 106.651V128.022H151.786V106.726C151.793 104.878 151.072 103.101 149.779 101.781C148.486 100.46 146.725 99.7011 144.878 99.6685C143.03 99.7011 141.269 100.46 139.976 101.781C138.684 103.101 137.963 104.878 137.969 106.726V127.997H131.509V106.726C131.515 104.882 130.798 103.109 129.51 101.789C128.223 100.469 126.469 99.7076 124.625 99.6685V99.6933Z" fill="black"/>
<path fill-rule="evenodd" clip-rule="evenodd" d="M192.564 98.2025C191.097 96.6727 189.333 95.4583 187.38 94.6336C185.428 93.809 183.327 93.3914 181.208 93.4065C171.616 93.4065 164.807 101.507 164.807 111.199C164.807 120.89 171.616 128.991 181.208 128.991C183.327 129.002 185.426 128.582 187.378 127.758C189.33 126.934 191.094 125.722 192.564 124.195V128.022H199V94.3757H192.539V98.2025H192.564ZM171.243 111.199C171.243 104.788 176.163 99.6935 181.904 99.6935C187.619 99.6935 192.564 104.788 192.564 111.199C192.564 117.61 187.644 122.679 181.904 122.679C176.188 122.679 171.243 117.61 171.243 111.199V111.199Z" fill="black"/>
</svg>
