<svg width="217" height="217" viewBox="0 0 217 217" fill="none" xmlns="http://www.w3.org/2000/svg">
<circle cx="108.5" cy="108.5" r="108.5" fill="#15135B"/>
<path d="M107.996 126.548C117.448 126.548 125.11 118.886 125.11 109.435C125.11 99.9837 117.448 92.3219 107.996 92.3219C98.5452 92.3219 90.8834 99.9837 90.8834 109.435C90.8834 118.886 98.5452 126.548 107.996 126.548Z" fill="#61DAFB"/>
<path fill-rule="evenodd" clip-rule="evenodd" d="M26.1869 98.8859C22.0563 102.615 20.3478 106.187 20.3478 109.435C20.3478 112.683 22.0563 116.255 26.1869 119.984C30.3171 123.712 36.528 127.261 44.558 130.327C60.5893 136.448 83.0183 140.322 108 140.322C132.982 140.322 155.411 136.448 171.442 130.327C179.472 127.261 185.683 123.712 189.813 119.984C193.944 116.255 195.652 112.683 195.652 109.435C195.652 106.187 193.944 102.615 189.813 98.8859C185.683 95.1575 179.472 91.6085 171.442 88.5425C155.411 82.4214 132.982 78.548 108 78.548C83.0183 78.548 60.5893 82.4214 44.558 88.5425C36.528 91.6085 30.3171 95.1575 26.1869 98.8859ZM41.5803 80.7438C58.7835 74.1753 82.2676 70.2001 108 70.2001C133.732 70.2001 157.217 74.1753 174.42 80.7438C183.007 84.0226 190.244 88.0286 195.407 92.6894C200.569 97.3498 204 103.002 204 109.435C204 115.868 200.569 121.52 195.407 126.18C190.244 130.841 183.007 134.847 174.42 138.126C157.217 144.695 133.732 148.67 108 148.67C82.2676 148.67 58.7835 144.695 41.5803 138.126C32.9931 134.847 25.7563 130.841 20.5932 126.18C15.4306 121.52 12 115.868 12 109.435C12 103.002 15.4306 97.3498 20.5932 92.6894C25.7563 88.0286 32.9931 84.0226 41.5803 80.7438Z" fill="#61DAFB"/>
<path fill-rule="evenodd" clip-rule="evenodd" d="M76.2274 33.3067C70.9328 31.5939 66.9853 31.9002 64.1722 33.5244C61.359 35.1486 59.1199 38.4141 57.956 43.8557C56.7922 49.2968 56.8241 56.4501 58.1839 64.9373C60.8985 81.8813 68.7585 103.242 81.2494 124.877C93.7402 146.512 108.309 163.999 121.626 174.822C128.296 180.243 134.475 183.848 139.769 185.56C145.064 187.273 149.011 186.967 151.824 185.342C154.638 183.718 156.877 180.453 158.041 175.011C159.204 169.57 159.172 162.417 157.813 153.93C155.098 136.986 147.238 115.625 134.747 93.99C122.256 72.3552 107.687 54.8678 94.3706 44.0448C87.7004 38.6237 81.5214 35.0194 76.2274 33.3067ZM99.6356 37.5667C113.926 49.1809 129.11 67.5311 141.977 89.8161C154.843 112.101 163.142 134.426 166.055 152.609C167.509 161.685 167.659 169.955 166.204 176.757C164.749 183.558 161.57 189.355 155.998 192.572C150.427 195.789 143.817 195.643 137.2 193.503C130.582 191.362 123.494 187.098 116.361 181.3C102.071 169.686 86.8861 151.336 74.0199 129.051C61.1537 106.766 52.8543 84.4405 49.9412 66.2579C48.487 57.1817 48.3379 48.9115 49.7928 42.1097C51.2475 35.3085 54.4267 29.5117 59.9982 26.295C65.5697 23.0783 72.1795 23.2234 78.7969 25.3642C85.4149 27.5051 92.5025 31.7694 99.6356 37.5667Z" fill="#61DAFB"/>
<path fill-rule="evenodd" clip-rule="evenodd" d="M158.042 43.8563C156.878 38.4146 154.639 35.1491 151.825 33.5249C149.012 31.9007 145.065 31.5944 139.77 33.3072C134.476 35.0199 128.297 38.6242 121.627 44.0453C108.31 54.8683 93.7413 72.3557 81.2504 93.9905C68.7596 115.625 60.8996 136.986 58.185 153.93C56.8252 162.417 56.7933 169.571 57.9571 175.012C59.121 180.453 61.3601 183.719 64.1732 185.343C66.9864 186.967 70.9339 187.274 76.2285 185.561C81.5225 183.848 87.7015 180.244 94.3717 174.823C107.688 164 122.257 146.512 134.748 124.877C147.239 103.243 155.099 81.8818 157.814 64.9378C159.173 56.4506 159.205 49.2973 158.042 43.8563ZM166.056 66.2584C163.143 84.441 154.844 106.766 141.978 129.051C129.111 151.336 113.927 169.687 99.6367 181.301C92.5036 187.098 85.4159 191.362 78.798 193.503C72.1806 195.644 65.5708 195.789 59.9993 192.572C54.4278 189.356 51.2486 183.559 49.7939 176.758C48.339 169.956 48.4881 161.686 49.9422 152.61C52.8554 134.427 61.1548 112.101 74.021 89.8166C86.8872 67.5316 102.072 49.1814 116.362 37.5673C123.495 31.7699 130.583 27.5056 137.201 25.3647C143.818 23.2239 150.428 23.0788 155.999 26.2955C161.571 29.5122 164.75 35.309 166.205 42.1102C167.66 48.912 167.511 57.1822 166.056 66.2584Z" fill="#61DAFB"/>
</svg>
