<svg width="217" height="217" viewBox="0 0 217 217" fill="none" xmlns="http://www.w3.org/2000/svg">
<circle cx="108.5" cy="108.5" r="108.5" fill="#2EC4B6"/>
<path d="M176 51.0388L163.673 189.134L108.262 204.495L53.0037 189.155L40.6897 51.0388H176Z" fill="#264DE4"/>
<path d="M153.119 180.34L163.654 62.3318H108.345V192.753L153.119 180.34Z" fill="#2965F1"/>
<path d="M68.9196 113.557L70.4378 130.497H108.345V113.557H68.9196Z" fill="#EBEBEB"/>
<path d="M108.345 79.2715H108.286H65.8688L67.4086 96.2111H108.345V79.2715Z" fill="#EBEBEB"/>
<path d="M108.345 175.175V157.551L108.271 157.571L89.405 152.477L88.199 138.967H79.0318H71.1945L73.5677 165.564L108.267 175.197L108.345 175.175Z" fill="#EBEBEB"/>
<path d="M72.5341 13.5046H93.0506V22.0843H81.1137V30.664H93.0506V39.2436H72.5341V13.5046Z" fill="black"/>
<path d="M97.1539 13.5046H117.671V20.9652H105.734V22.4573H117.671V39.6167H97.1539V31.783H109.091V30.2909H97.1539V13.5046Z" fill="black"/>
<path d="M121.774 13.5046H142.291V20.9652H130.354V22.4573H142.291V39.6167H121.774V31.783H133.711V30.2909H121.774V13.5046Z" fill="black"/>
<path d="M129.145 130.497L127.179 152.466L108.286 157.565V175.188L143.013 165.564L143.268 162.702L147.248 118.106L147.662 113.557L150.72 79.2715H108.286V96.2111H132.156L130.614 113.557H108.286V130.497H129.145Z" fill="white"/>
</svg>
