<svg width="90" height="86" viewBox="0 0 90 86" fill="none" xmlns="http://www.w3.org/2000/svg">
<rect width="90" height="64.2857" fill="#FEDE00"/>
<path d="M61.9442 23.8387C60.5244 23.8387 58.8464 24.9681 56.9103 27.2269C52.3281 32.4545 48.4558 38.9728 45.2935 46.7818L30.9661 49.1052L28.7395 61.6901C31.6437 60.9156 34.5479 60.238 37.4521 59.6571C40.4208 59.0118 43.3573 58.3018 46.2615 57.5274V57.6242C46.3906 57.4951 46.5842 57.4306 46.8424 57.4306C47.1005 57.4306 47.2619 57.4306 47.3264 57.4306H48.3913C53.2961 57.4306 57.4911 56.7529 60.9761 55.3976C64.4612 54.0423 67.4945 52.1385 70.076 49.6861C72.722 47.2336 75.1099 44.3939 77.2397 41.1671C80.1439 36.7139 81.7896 32.6803 82.1768 29.0662C82.2414 28.5499 82.2736 28.0336 82.2736 27.5173C82.3382 26.9365 82.3704 26.3879 82.3704 25.8716C82.3704 25.0326 82.3059 24.2259 82.1768 23.4514C82.1123 22.677 82.0155 21.8702 81.8864 21.0313C81.6282 19.676 81.4024 18.2884 81.2088 16.8686C81.0151 15.3842 80.7893 13.8998 80.5311 12.4155C79.8212 8.02689 78.595 5.25176 76.8524 4.09008C75.8198 3.38016 74.5936 3.02521 73.1738 3.02521C72.3348 3.02521 71.5603 3.15428 70.8504 3.41243C69.3015 3.92873 67.7526 4.76773 66.2037 5.92941C64.7193 7.09109 63.3318 8.38184 62.041 9.80168C60.7503 11.2215 59.6208 12.5445 58.6528 13.7708C57.4266 15.3842 56.1681 17.0299 54.8773 18.7079C53.5866 20.3859 52.5862 22.2575 51.8763 24.3227C51.8763 24.3872 51.844 24.4195 51.7795 24.4195C51.7795 24.7422 52.0699 24.9035 52.6508 24.9035L52.7476 24.8067C53.393 24.8067 53.877 24.6454 54.1997 24.3227C54.9096 23.4837 55.6195 22.6447 56.3294 21.8057C57.0393 20.9667 57.717 20.0632 58.3624 19.0951C59.7177 17.159 61.4279 15.6746 63.4931 14.642C64.2676 14.3193 64.8807 14.158 65.3324 14.158C66.3005 14.158 67.1718 14.5129 67.9462 15.2229C68.7207 15.8682 69.237 16.4813 69.4951 17.0622C70.8504 19.8373 71.8508 22.9351 72.4961 26.3556C73.1415 29.7116 73.4642 33.3257 73.4642 37.198C73.4642 37.7143 73.4642 38.2629 73.4642 38.8437C73.4642 39.36 73.4319 39.8763 73.3674 40.3926C70.1405 42.4578 66.1392 43.9099 61.3634 44.7489C62.2669 43.0709 63.1059 41.4897 63.8803 40.0054C64.6548 38.4565 65.3647 36.9721 66.0101 35.5523C66.5909 34.3906 66.8814 33.2289 66.8814 32.0672C66.8814 31.1637 66.6555 30.0665 66.2037 28.7758C65.8165 27.485 65.2679 26.3556 64.558 25.3876C63.8481 24.355 62.9768 23.8387 61.9442 23.8387ZM50.6178 43.2968C50.6178 43.1032 50.6824 42.8128 50.8114 42.4255C51.9086 40.0376 53.2639 38.5533 54.8773 37.9724C55.0709 37.9079 55.2968 37.8756 55.555 37.8756C56.8457 37.8756 57.9429 39.1664 58.8464 41.7479L59.04 42.0383C57.362 43.5227 55.1677 44.6521 52.4571 45.4266H52.3603C52.1022 45.4266 51.7472 45.2007 51.2955 44.7489C50.8437 44.2326 50.6178 43.7486 50.6178 43.2968Z" fill="black"/>
<path d="M0.258484 81.0012C0.258484 81.4591 0.524372 81.7324 1.0783 81.7324C1.63224 81.7324 1.89812 81.4591 1.89812 81.0012V76.5845C1.89812 76.5845 2.48899 75.3954 3.67071 75.3954C4.6604 75.3954 5.23649 75.9789 5.23649 77.3379V81.0012C5.23649 81.4591 5.50976 81.7324 6.05631 81.7324C6.61024 81.7324 6.87613 81.4591 6.87613 81.0012V77.1237C6.87613 75.1369 5.81258 74.0734 4.07693 74.0734C2.57023 74.0734 1.8612 75.1 1.8612 75.1H1.83904C1.88335 74.7159 1.89812 74.3983 1.89812 74.0364V71.4588C1.89812 71.0009 1.63224 70.735 1.0783 70.735C0.524372 70.735 0.258484 71.0009 0.258484 71.4588V81.0012Z" fill="white"/>
<path d="M13.3387 79.6644C13.3387 79.6644 12.7257 80.5802 11.6621 80.5802C10.8349 80.5802 10.3918 80.1297 10.3918 79.5536C10.3918 78.9627 10.9309 78.6451 12.0536 78.6451C12.8069 78.6451 13.3387 78.8002 13.3387 78.8002V79.6644ZM13.3387 77.6924C13.3387 77.6924 12.7847 77.5447 11.8837 77.5447C9.94861 77.5447 8.72257 78.2537 8.72257 79.6201C8.72257 80.8756 9.66057 81.821 11.2559 81.821C12.7626 81.821 13.5086 80.7944 13.5086 80.7944H13.5307C13.6563 81.3631 13.9369 81.7472 14.4687 81.7472C14.9192 81.7472 15.1851 81.4887 15.1851 81.1341C15.1851 80.787 14.9709 80.5654 14.9709 79.2508V76.6584C14.9709 74.9818 13.996 74.0734 12.0314 74.0734C10.6576 74.0734 9.60887 74.4943 9.31343 74.7898C9.17311 74.9227 9.11402 75.063 9.11402 75.2477C9.11402 75.6022 9.33559 75.809 9.64579 75.809C10.0151 75.809 10.4804 75.3659 11.6695 75.3659C12.8881 75.3659 13.3387 75.8164 13.3387 76.9169V77.6924Z" fill="white"/>
<path d="M17.3196 81.0012C17.3196 81.4591 17.5855 81.7324 18.1394 81.7324C18.6934 81.7324 18.9592 81.4591 18.9592 81.0012V76.5845C18.9592 76.5845 19.5501 75.3954 20.7318 75.3954C21.7215 75.3954 22.2976 75.9789 22.2976 77.3379V81.0012C22.2976 81.4591 22.5709 81.7324 23.1174 81.7324C23.6714 81.7324 23.9373 81.4591 23.9373 81.0012V77.1237C23.9373 75.1369 22.8737 74.0734 21.138 74.0734C19.5058 74.0734 18.8189 75.2329 18.8189 75.2329H18.7894L18.7229 74.7824C18.6638 74.3688 18.4422 74.1398 17.9991 74.1398C17.5633 74.1398 17.3196 74.3836 17.3196 74.8193V81.0012Z" fill="white"/>
<path d="M27.8074 81.8875C27.2387 83.2095 26.5814 83.926 25.6877 83.926C25.4587 83.926 25.3184 83.8817 25.082 83.8817C24.7201 83.8817 24.4986 84.1106 24.4986 84.4504C24.4986 84.6572 24.565 84.827 24.698 84.96C24.8826 85.1446 25.2224 85.248 25.6581 85.248C27.4677 85.248 28.7085 84.0589 29.9197 80.8756L32.0321 75.3289C32.1355 75.0483 32.1576 74.9449 32.1576 74.8341C32.1576 74.3762 31.6997 74.1398 31.3083 74.1398C31.0941 74.1398 30.9168 74.2063 30.806 74.3245C30.7026 74.4353 30.6435 74.5977 30.5549 74.8562L29.0925 79.0809C28.8783 79.7013 28.7528 80.2257 28.7528 80.2257H28.7232C28.7232 80.2257 28.6051 79.7013 28.3835 79.0809L26.9063 74.9006C26.7955 74.583 26.7438 74.4426 26.6404 74.3319C26.5297 74.2137 26.3746 74.1398 26.1456 74.1398C25.7394 74.1398 25.2371 74.4131 25.2371 74.8932C25.2371 75.0187 25.2593 75.1147 25.3775 75.4397L27.8074 81.8875Z" fill="white"/>
<path d="M37.8003 79.6644C37.8003 79.6644 37.1873 80.5802 36.1238 80.5802C35.2966 80.5802 34.8534 80.1297 34.8534 79.5536C34.8534 78.9627 35.3926 78.6451 36.5152 78.6451C37.2686 78.6451 37.8003 78.8002 37.8003 78.8002V79.6644ZM37.8003 77.6924C37.8003 77.6924 37.2464 77.5447 36.3453 77.5447C34.4103 77.5447 33.1842 78.2537 33.1842 79.6201C33.1842 80.8756 34.1222 81.821 35.7176 81.821C37.2243 81.821 37.9702 80.7944 37.9702 80.7944H37.9924C38.1179 81.3631 38.3986 81.7472 38.9304 81.7472C39.3809 81.7472 39.6468 81.4887 39.6468 81.1341C39.6468 80.787 39.4326 80.5654 39.4326 79.2508V76.6584C39.4326 74.9818 38.4577 74.0734 36.4931 74.0734C35.1193 74.0734 34.0705 74.4943 33.7751 74.7898C33.6348 74.9227 33.5757 75.063 33.5757 75.2477C33.5757 75.6022 33.7973 75.809 34.1075 75.809C34.4767 75.809 34.942 75.3659 36.1312 75.3659C37.3498 75.3659 37.8003 75.8164 37.8003 76.9169V77.6924Z" fill="white"/>
<path d="M42.0915 75.4471V81.0012C42.0915 81.4591 42.3574 81.7324 42.9113 81.7324C43.4578 81.7324 43.7311 81.4591 43.7311 81.0012V75.4471H46.8036V81.0012C46.8036 81.4591 47.0695 81.7324 47.6234 81.7324C48.17 81.7324 48.4432 81.4591 48.4432 81.0012V74.9596C48.4432 74.4648 48.1773 74.2063 47.6899 74.2063H43.7311V73.5342C43.7311 72.4928 44.285 71.9389 45.5332 71.9389C46.7076 71.9389 46.9735 72.2491 47.3575 72.2491C47.6603 72.2491 47.9115 72.0201 47.9115 71.6582C47.9115 71.444 47.8524 71.3185 47.7194 71.1781C47.4609 70.9196 46.7814 70.6611 45.7031 70.6611C43.251 70.6611 42.0915 71.8207 42.0915 73.6302V74.2063H41.3751C41.0427 74.2063 40.8137 74.4353 40.8137 74.8267C40.8137 75.2255 41.0427 75.4471 41.3751 75.4471H42.0915Z" fill="white"/>
<path d="M51.1464 75.4471V81.0012C51.1464 81.4591 51.4123 81.7324 51.9662 81.7324C52.5128 81.7324 52.7861 81.4591 52.7861 81.0012V75.4471H55.8585V81.0012C55.8585 81.4591 56.1244 81.7324 56.6784 81.7324C57.2249 81.7324 57.4982 81.4591 57.4982 81.0012V74.9596C57.4982 74.4648 57.2323 74.2063 56.7448 74.2063H52.7861V73.5342C52.7861 72.4928 53.34 71.9389 54.5882 71.9389C55.7625 71.9389 56.0284 72.2491 56.4125 72.2491C56.7153 72.2491 56.9664 72.0201 56.9664 71.6582C56.9664 71.444 56.9073 71.3185 56.7744 71.1781C56.5159 70.9196 55.8364 70.6611 54.7581 70.6611C52.306 70.6611 51.1464 71.8207 51.1464 73.6302V74.2063H50.43C50.0976 74.2063 49.8687 74.4353 49.8687 74.8267C49.8687 75.2255 50.0976 75.4471 50.43 75.4471H51.1464Z" fill="white"/>
<path d="M70.961 73.3274C70.961 73.6376 70.9683 73.933 70.9831 74.2137L70.961 74.2211C70.961 74.2211 70.4661 74.066 69.8014 74.066C67.2385 74.066 65.7318 75.5727 65.7318 78.1429C65.7318 80.595 66.9579 81.821 68.7822 81.821C70.3923 81.821 71.1013 80.6541 71.1013 80.6541H71.1234L71.1899 81.0972C71.2564 81.5182 71.478 81.7472 71.9137 81.7472C72.3495 81.7472 72.5932 81.5034 72.5932 81.0677V71.4588C72.5932 71.0009 72.3273 70.735 71.7734 70.735C71.2268 70.735 70.961 71.0009 70.961 71.4588V73.3274ZM70.961 79.3025C70.961 79.3025 70.3627 80.4916 69.1736 80.4916C68.1027 80.4916 67.4084 79.7899 67.4084 78.0026C67.4084 76.2595 68.3095 75.3585 69.6315 75.3585C70.4957 75.3585 70.961 75.6318 70.961 75.6318V79.3025Z" fill="white"/>
<path d="M80.2153 78.2094C80.7766 78.2094 81.0868 77.8918 81.0868 77.264C81.0868 75.2625 79.8756 74.066 78.0808 74.066C75.9833 74.066 74.4766 75.5727 74.4766 78.1872C74.4766 80.4177 75.8873 81.821 78.1325 81.821C79.4398 81.821 80.2744 81.437 80.5477 81.1711C80.6954 81.016 80.7619 80.8756 80.7619 80.6762C80.7619 80.3882 80.5772 80.1518 80.2596 80.1518C79.8977 80.1518 79.4915 80.5137 78.4132 80.5137C77.069 80.5137 76.1827 79.6792 76.1162 78.2463V78.2094H80.2153ZM76.1605 77.1015C76.3895 75.8386 77.0911 75.2772 77.911 75.2772C78.8711 75.2772 79.4177 75.8681 79.5506 77.1015H76.1605Z" fill="white"/>
<path d="M84.2553 80.5581C84.4178 80.979 84.5582 81.2671 84.7206 81.437C84.9201 81.629 85.1786 81.7324 85.6069 81.7324C86.0427 81.7324 86.3086 81.6216 86.4932 81.4296C86.6631 81.2671 86.796 80.979 86.9585 80.5581L88.9527 75.3289C89.0561 75.0483 89.0782 74.9449 89.0782 74.8341C89.0782 74.3909 88.6203 74.1398 88.2289 74.1398C88.0073 74.1398 87.8374 74.2137 87.7267 74.3245C87.6233 74.4279 87.5642 74.5977 87.4681 74.8636L86.0058 79.0144C85.799 79.6127 85.6808 80.0706 85.6808 80.0706H85.6513C85.6513 80.0706 85.5405 79.6127 85.3263 79.0144L83.8417 74.9006C83.731 74.583 83.6719 74.4279 83.5685 74.3245C83.4577 74.2137 83.2952 74.1398 83.0662 74.1398C82.66 74.1398 82.1578 74.4131 82.1578 74.8932C82.1578 75.0187 82.1799 75.1147 82.2981 75.4397L84.2553 80.5581Z" fill="white"/>
<circle cx="61.6387" cy="78.2773" r="1.89076" fill="#FEDE00"/>
</svg>
