<svg width="88" height="34" viewBox="0 0 88 34" fill="none" xmlns="http://www.w3.org/2000/svg">
<path d="M23.1199 0.188596C20.7718 0.856906 18.785 3.3134 18.785 5.5712V6.2937L19.9048 6.23951L21.0428 6.18533L21.1692 5.39058C21.3679 4.23458 22.1084 3.07859 22.9393 2.66315C25.5222 1.34459 28.1594 2.66315 28.629 5.49895L28.7554 6.27564H29.9295H31.1216L30.9952 5.31833C30.5978 2.3019 28.2677 0.152471 25.2333 0.0260334C24.5108 -0.0100913 23.5715 0.0621586 23.1199 0.188596Z" fill="white"/>
<path d="M81.4975 0.278868C79.8358 0.874928 79.1133 1.86836 79.1133 3.56623C79.1133 4.5416 79.3842 5.2641 79.9803 5.78791C80.2873 6.05885 80.6486 6.09497 83.0148 6.05885L85.7061 6.00466L83.9721 5.4086C82.1839 4.79448 81.5878 4.3971 81.3711 3.74686C81.2085 3.25917 81.6962 2.51861 82.3284 2.2838C82.9967 2.01286 84.9474 2.21155 86.2299 2.64505C86.8259 2.8618 87.3136 3.0063 87.3317 2.98823C87.3497 2.95211 87.422 2.4283 87.4762 1.83224L87.5846 0.712366L86.4647 0.405305C84.7849 -0.0823812 82.6716 -0.136569 81.4975 0.278868Z" fill="white"/>
<path d="M8.09183 0.243024C8.00151 0.315273 7.94733 1.70608 7.94733 3.3317L7.94733 6.27588L11.7946 6.27588C14.2331 6.27588 15.5336 6.20363 15.3529 6.09525C15.1362 5.95075 15.1542 5.87851 15.4794 5.51726C16.1116 4.81282 16.3102 4.25289 16.3102 3.1872C16.2922 1.90477 15.8767 1.12808 14.9014 0.622335C14.2872 0.297211 13.7634 0.243024 11.1986 0.170774C9.55488 0.134649 8.16408 0.152711 8.09183 0.243024ZM13.7273 2.66339C14.2331 3.16914 14.215 4.28901 13.7092 4.75863C13.4202 5.02957 12.9867 5.11988 11.8127 5.17407L10.2954 5.22826V3.7652V2.30214H11.8308C13.1312 2.30214 13.4202 2.35633 13.7273 2.66339Z" fill="white"/>
<path d="M33.2349 3.11467V6.09497H34.409H35.583V4.1081V2.12123H36.9377C39.0871 2.12123 39.7374 2.60892 39.7374 4.19841C39.7374 4.88479 39.6471 5.13766 39.2136 5.57116L38.6898 6.09497H40.1709C41.6159 6.09497 41.6701 6.07691 41.8868 5.60728C42.23 4.84866 42.1578 2.93404 41.7604 2.15736C40.9656 0.603988 39.5026 0.134365 35.5469 0.134365H33.2349V3.11467Z" fill="white"/>
<path d="M44.6141 3.11492V6.09522H45.7882H46.9622V4.1806V2.26598L48.913 2.33823C50.7373 2.39242 50.9179 2.42854 51.532 2.89817C52.3087 3.49423 52.7061 4.19866 52.8867 5.24628L53.0131 6.00491L54.2594 6.05909L55.5058 6.11328L55.3974 5.22822C55.1806 3.40391 53.9524 1.66992 52.3448 0.875173C51.2069 0.3333 49.8161 0.134613 47.0164 0.134613H44.6141V3.11492Z" fill="white"/>
<path d="M57.6914 0.369461C57.6553 0.495898 57.6372 1.85058 57.6553 3.38589L57.7095 6.18557L61.1052 6.23975L64.4829 6.27588V5.75207V5.21019L62.2793 5.15601L60.0576 5.10182L60.0034 3.78326L59.9492 2.48277L62.8573 2.48277L65.7473 2.48277V1.30871V0.134649H61.7735C58.6849 0.134649 57.7637 0.188837 57.6914 0.369461Z" fill="white"/>
<path d="M68.0956 3.11467V6.09497H69.2697H70.4438V4.1081V2.12123H71.7984C73.9479 2.12123 74.5981 2.60892 74.5981 4.19841C74.5981 4.88479 74.5078 5.13766 74.0743 5.57116L73.5505 6.09497H75.0316C76.4766 6.09497 76.5308 6.07691 76.7476 5.60728C77.0907 4.84866 77.0185 2.93404 76.6211 2.15736C75.8264 0.603988 74.3633 0.134365 70.4076 0.134365H68.0956V3.11467Z" fill="white"/>
<path d="M33.2349 10.43V12.7781H34.409H35.6011L35.5469 10.4661L35.4927 8.17215L34.3728 8.11797L33.2349 8.06378V10.43Z" fill="white"/>
<path d="M39.1053 10.43L40.2794 12.7781H41.5437C42.2482 12.7781 42.8081 12.742 42.8081 12.7058C42.8081 12.6697 42.2662 11.6401 41.5979 10.4119L40.3697 8.17215L39.1414 8.11797L37.9132 8.06378L39.1053 10.43Z" fill="white"/>
<path d="M44.6141 10.43V12.7781H47.486C49.8522 12.7781 50.5566 12.7058 51.514 12.4168C52.959 11.9653 54.1511 10.9718 54.8013 9.67134C55.5419 8.20828 55.4877 8.08184 54.0969 8.08184C52.9228 8.08184 52.9228 8.08184 52.5796 8.75015C52.11 9.67134 51.3153 10.3938 50.5566 10.6106C50.2315 10.719 49.2742 10.7912 48.4614 10.7912H46.9803L46.9261 9.47265L46.8719 8.17215L45.752 8.11797L44.6141 8.06378V10.43Z" fill="white"/>
<path d="M68.0956 10.43V12.7781H69.2697H70.4618L70.4076 10.4661L70.3534 8.17215L69.2336 8.11797L68.0956 8.06378V10.43Z" fill="white"/>
<path d="M73.9658 10.43L75.1399 12.7781H76.4042C77.1087 12.7781 77.6686 12.742 77.6686 12.7058C77.6686 12.6697 77.1267 11.6401 76.4584 10.4119L75.2302 8.17215L74.0019 8.11797L72.7737 8.06378L73.9658 10.43Z" fill="white"/>
<path d="M85.1281 8.40717C85.6157 8.94905 85.5254 9.9786 84.9474 10.4302C84.4959 10.7914 84.2791 10.8275 82.9967 10.7553C82.0213 10.7011 81.1904 10.5205 80.4318 10.2134L79.33 9.76186L79.2216 10.3037C79.1675 10.5927 79.1133 11.1527 79.1133 11.5139C79.1133 12.1822 79.1494 12.2183 79.9803 12.4893C82.0033 13.1576 84.9655 13.1576 86.2841 12.4712C87.2956 11.9474 87.9819 10.7372 88 9.47286C88 8.93098 87.9639 8.38911 87.8916 8.28074C87.8194 8.1543 87.1872 8.08205 86.3021 8.08205C84.8932 8.08205 84.8571 8.10011 85.1281 8.40717Z" fill="white"/>
<path d="M7.94733 10.5383V12.8142L11.4334 12.742C14.6666 12.6878 14.9556 12.6516 15.6239 12.2723C16.7257 11.6402 17.2134 10.7912 17.3037 9.41847L17.3759 8.26247L16.1838 8.26247H14.9917V8.96691C14.9917 9.47266 14.8652 9.85197 14.5582 10.1952C14.1427 10.6828 14.0524 10.7009 12.2101 10.7551L10.2954 10.8273V9.54491V8.26247H9.12139H7.94733L7.94733 10.5383Z" fill="white"/>
<path d="M18.9656 8.53369C18.9656 9.11169 19.7965 10.5567 20.5913 11.3514C21.7111 12.4713 23.0839 12.9771 24.9624 12.9771C26.1003 12.9771 26.588 12.8867 27.455 12.4894C29.0625 11.7669 30.2547 10.3941 30.7785 8.66013C30.9049 8.28082 30.8688 8.26275 29.6405 8.26275C28.6832 8.26275 28.3581 8.31694 28.3581 8.49757C28.3581 9.0575 27.2924 10.2135 26.4796 10.5206C25.2152 11.0082 23.4993 10.8457 22.6504 10.1412C22.2711 9.83419 21.8195 9.29231 21.6208 8.93106C21.2776 8.26275 21.2776 8.26275 20.1216 8.26275C19.2185 8.26275 18.9656 8.31694 18.9656 8.53369Z" fill="white"/>
<path d="M57.6189 10.5203V12.7781H61.7733L65.9276 12.7781V11.6943V10.6106L62.9473 10.6106H59.967V9.43652V8.26247H58.793H57.6189V10.5203Z" fill="white"/>
<path d="M24.5648 20.9786C22.2709 21.5928 20.5369 23.6699 20.284 26.0722L20.1756 27.0476H21.3497H22.5237L22.6502 26.1987C22.885 24.4466 24.1132 23.2003 25.8653 22.9655C27.9605 22.6765 29.7306 24.0673 30.0919 26.307L30.2183 27.0476L31.3924 27.0476H32.5664L32.4581 26.1084C32.2955 24.7717 31.3924 23.0558 30.399 22.1707C28.972 20.9244 26.5697 20.4187 24.5648 20.9786Z" fill="white"/>
<path d="M8.01962 21.1412C7.9835 21.2676 7.96543 22.6223 7.9835 24.1576L8.03768 26.9573L9.15755 27.0115L10.2774 27.0657L10.3316 26.0361L10.3858 24.9885L11.0722 26.0181L11.7405 27.0476H13.0049H14.2692L12.9507 25.0066C12.2282 23.9047 11.307 22.5139 10.9277 21.9359L10.2413 20.9064H9.17562C8.47118 20.9064 8.09187 20.9786 8.01962 21.1412Z" fill="white"/>
<path d="M15.7144 23.977V27.0476H16.7982H17.8819V23.977V20.9064H16.7982H15.7144L15.7144 23.977Z" fill="white"/>
<path d="M34.6798 23.977V27.0476H35.8539H37.028V26.018V25.0066L37.7143 25.9819L38.4007 26.9573L39.6109 27.0115C40.2792 27.0476 40.8211 26.9934 40.8211 26.9212C40.8211 26.8489 39.9541 25.4581 38.8884 23.8506L36.9376 20.9064H35.8178H34.6798V23.977Z" fill="white"/>
<path d="M42.4465 23.977V27.0476H43.5302H44.614V23.977V20.9064H43.5302H42.4465V23.977Z" fill="white"/>
<path d="M47.5042 23.977V27.0476L50.8999 27.0115L54.2776 26.9573L54.3318 26.4515L54.386 25.9639H52.1282H49.8523V24.6092V23.2726L52.7062 23.2184L55.542 23.1642V22.0804V20.9967L51.5321 20.9425L47.5042 20.9064V23.977Z" fill="white"/>
<path d="M0.126437 24.6453C0.0541873 24.6995 0 25.2775 0 25.9097L0 27.0476H1.17406H2.34812V25.7832L2.34812 24.5189H1.3005C0.722498 24.5189 0.180624 24.5731 0.126437 24.6453Z" fill="white"/>
<path d="M7.94733 31.2922V33.55H9.12139H10.2954V31.2922V29.0344H9.12139H7.94733L7.94733 31.2922Z" fill="white"/>
<path d="M13.1855 29.1248C13.1855 29.1789 13.8357 30.1904 14.6305 31.3826L16.0755 33.55H16.9786H17.8817V31.2922V29.0344H15.5336C14.2512 29.0344 13.1855 29.0706 13.1855 29.1248Z" fill="white"/>
<path d="M20.4106 29.2693C20.4106 29.4138 20.6634 30.0099 20.9705 30.624C22 32.6831 23.8424 33.7488 26.3712 33.7488C28.5206 33.7488 30.1101 32.9902 31.2661 31.4187C31.6815 30.8407 32.3318 29.4499 32.3318 29.1067C32.3318 29.0706 31.7718 29.0345 31.0674 29.0345C30.1281 29.0345 29.803 29.0887 29.803 29.2693C29.803 29.4138 29.5682 29.8473 29.2792 30.2447C28.5567 31.2562 27.491 31.6535 25.9015 31.509C24.5288 31.4007 23.6618 30.8407 23.0657 29.7028C22.7225 29.0345 22.7225 29.0345 21.5665 29.0345C20.7176 29.0345 20.4106 29.1067 20.4106 29.2693Z" fill="white"/>
<path d="M34.6798 31.2922V33.55H35.8539H37.028V31.2922V29.0344H35.8539H34.6798V31.2922Z" fill="white"/>
<path d="M41.2184 31.2922L42.7176 33.532L43.6749 33.55H44.6142V31.2922V29.0344H42.1757H39.7373L41.2184 31.2922Z" fill="white"/>
<path d="M47.5042 31.2922V33.55H51.6585H55.8129V32.4663V31.3826H52.8326H49.8523V30.2085V29.0344H48.6782H47.5042V31.2922Z" fill="white"/>
<path d="M0 32.376L0 33.55H1.17406H2.34812V32.376L2.34812 31.2019H1.17406H0L0 32.376Z" fill="white"/>
</svg>
