<svg width="120" height="40" viewBox="0 0 120 40" fill="none" xmlns="http://www.w3.org/2000/svg">
<path d="M26.3157 0.00460917C26.7369 0.0186506 27.3618 0.0748181 27.7058 0.138005C28.0428 0.19417 28.6536 0.355645 29.0678 0.49606C29.4891 0.636474 30.128 0.903264 30.493 1.0858C30.8581 1.26834 31.4619 1.61938 31.827 1.85808C32.1921 2.10381 32.6344 2.41272 32.8099 2.55314C32.9854 2.68653 33.3715 3.0165 33.6734 3.27627C34.0806 3.63433 34.2561 3.74666 34.3685 3.72559C34.4597 3.70453 34.8459 3.5922 35.232 3.47285C35.6182 3.3535 36.3132 3.17798 36.7766 3.07969C37.4155 2.9463 37.921 2.89715 38.8477 2.86204C39.7885 2.83396 40.2378 2.85503 40.7644 2.93927C41.1365 3.00246 41.7051 3.13585 42.0211 3.23414C42.344 3.33945 42.8565 3.54306 43.1654 3.69751C43.4744 3.85197 43.9167 4.11173 44.1484 4.28023C44.38 4.44171 44.8223 4.84189 45.1312 5.16484C45.4472 5.48779 45.8263 5.94414 45.9878 6.17583C46.1422 6.40751 46.416 6.8779 46.5916 7.22894C46.7671 7.57997 46.9917 8.07844 47.0971 8.35225C47.1953 8.61904 47.3779 9.20878 47.4902 9.65109C47.6096 10.0934 47.7219 10.4725 47.75 10.5006C47.7781 10.5217 48.0659 10.7604 48.3959 11.0342C48.7259 11.308 49.1963 11.7433 49.442 12.01C49.6947 12.2768 50.0879 12.7472 50.3125 13.0561C50.5442 13.3651 50.8672 13.8986 51.0357 14.2497C51.2042 14.6007 51.4148 15.1483 51.492 15.4783C51.6184 15.9697 51.6395 16.2155 51.6114 16.8824C51.5833 17.5213 51.5412 17.8021 51.3937 18.2164C51.2884 18.5042 51.0708 18.9606 50.9093 19.2344C50.7478 19.5012 50.3476 20.0067 50.0177 20.3507C49.6807 20.6877 49.1611 21.1581 48.8522 21.3897C48.5433 21.6214 47.9817 21.9865 47.6025 22.2041C47.2304 22.4218 46.9215 22.6394 46.9215 22.6745C46.9215 22.7096 46.753 23.0958 46.5494 23.517C46.3458 23.9383 46.0018 24.542 45.7982 24.851C45.5876 25.1599 45.1944 25.6443 44.9206 25.9322C44.6538 26.22 44.1764 26.6412 43.8675 26.8729C43.5586 27.0976 43.025 27.4276 42.674 27.5961C42.323 27.7646 41.7402 27.9822 41.3752 28.0735C41.0101 28.1647 40.3572 28.2771 39.9359 28.3262C39.3672 28.3824 38.9319 28.3824 38.286 28.3262C37.8016 28.2771 37.3453 28.2209 37.268 28.1928C37.1908 28.1577 36.9451 27.8699 36.7204 27.5469C36.5028 27.224 36.2079 26.7044 36.0745 26.3955C35.9411 26.0866 35.8569 25.8268 35.885 25.8128C35.913 25.7988 36.1517 25.8549 36.4255 25.9322C36.6994 26.0094 37.1697 26.1217 37.4787 26.1779C37.7876 26.234 38.3211 26.3042 38.6722 26.3323C39.0583 26.3604 39.5638 26.3464 39.971 26.2902C40.3361 26.2411 40.8275 26.1428 41.0592 26.0655C41.2909 25.9883 41.6841 25.8198 41.9368 25.6934C42.1896 25.5671 42.5476 25.3424 42.7442 25.188C42.9338 25.0405 43.2497 24.7597 43.4322 24.5631C43.6218 24.3735 43.9237 23.9944 44.1062 23.7276C44.2958 23.4538 44.5415 23.0466 44.6538 22.8149C44.7732 22.5833 44.9136 22.2533 44.9768 22.0778C45.04 21.9023 45.1242 21.6284 45.1664 21.4599C45.2295 21.1861 45.2717 21.151 45.7421 20.9123C46.0229 20.7719 46.5073 20.5051 46.8162 20.3156C47.1251 20.133 47.6306 19.775 47.9395 19.5292C48.2485 19.2765 48.6416 18.9044 48.8101 18.7008C48.9716 18.4902 49.2033 18.1462 49.3086 17.9355C49.4209 17.7249 49.5403 17.3458 49.5894 17.0931C49.6526 16.721 49.6456 16.5454 49.5613 16.1102C49.4981 15.8223 49.3507 15.38 49.2243 15.1273C49.098 14.8745 48.8171 14.4322 48.5995 14.1444C48.3748 13.8565 47.9676 13.3931 47.6798 13.1123C47.3989 12.8385 46.8654 12.3892 45.8333 11.6099L45.6789 10.8235C45.5946 10.3883 45.4402 9.78448 45.3419 9.47557C45.2366 9.16666 45.04 8.66116 44.8925 8.35225C44.7521 8.04334 44.4924 7.58699 44.3239 7.33425C44.1554 7.0815 43.8043 6.6743 43.5446 6.42155C43.2848 6.16881 42.9057 5.85989 42.7021 5.74054C42.4915 5.61417 42.1334 5.43163 41.9017 5.34036C41.67 5.24207 41.2909 5.1157 41.0592 5.04549C40.7854 4.97529 40.2518 4.91912 39.5498 4.89104C38.8828 4.86997 38.2299 4.89104 37.8648 4.94018C37.5348 4.98933 36.9521 5.10166 36.566 5.19995C36.1798 5.29824 35.6252 5.45972 35.3373 5.55801C35.0495 5.6563 34.5721 5.84585 33.7577 6.21093L32.845 5.31228C32.3465 4.82083 31.6795 4.23109 31.3706 3.9994C31.0617 3.76772 30.5281 3.41668 30.1771 3.21308C29.8261 3.00948 29.2714 2.72865 28.9274 2.59526C28.5904 2.46186 28.0568 2.28635 27.7409 2.20912C27.418 2.13189 26.8282 2.04764 26.421 2.01956C25.8734 1.99148 25.4943 2.01254 24.9467 2.10381C24.5395 2.16699 23.9427 2.32145 23.6127 2.43378C23.2827 2.54611 22.7141 2.79886 22.349 2.99544C21.9839 3.185 21.4363 3.52199 21.1274 3.73964C20.8255 3.95728 20.32 4.37852 20.0041 4.68042C19.6952 4.97529 19.2739 5.42461 19.0844 5.67736C18.8878 5.93011 18.7123 6.1337 18.6772 6.14073C18.6491 6.14073 18.2559 5.88798 17.7996 5.58609C17.3502 5.27717 16.6341 4.85593 16.2059 4.64531C15.7776 4.43469 15.23 4.19598 14.9772 4.11173C14.7245 4.03451 14.3032 3.91516 14.0294 3.85899C13.7556 3.80282 13.208 3.75368 12.8008 3.75368C12.3936 3.75368 11.846 3.80282 11.5722 3.85899C11.2984 3.91516 10.8139 4.09067 10.484 4.25215C10.154 4.4066 9.72572 4.65233 9.53616 4.78573C9.33958 4.92614 9.03067 5.17187 8.84813 5.32632C8.66559 5.4878 8.31456 5.85288 8.06883 6.14073C7.82311 6.42858 7.47909 6.88492 7.31059 7.15873C7.13507 7.42552 6.89637 7.83974 6.77702 8.07143C6.59448 8.44352 6.50321 8.53479 6.01878 8.84371C5.70987 9.03327 5.22544 9.37026 4.93759 9.58088C4.64974 9.79852 4.19339 10.1776 3.9266 10.4304C3.65982 10.6761 3.29474 11.0693 3.1122 11.301C2.92966 11.5326 2.66989 11.9258 2.52948 12.1786C2.39609 12.4313 2.22759 12.8104 2.15738 13.021C2.07313 13.2808 2.03101 13.6178 2.03101 14.039C2.03101 14.5024 2.07313 14.7973 2.19248 15.1624C2.27673 15.4291 2.45225 15.8434 2.58565 16.0751C2.71202 16.3067 2.99987 16.735 3.23155 17.0229C3.46324 17.3107 3.89852 17.7811 4.20743 18.0619C4.50932 18.3427 5.02886 18.757 5.95559 19.3888L6.01176 19.8382C6.04686 20.0839 6.14515 20.5683 6.23642 20.9194C6.32067 21.2704 6.48917 21.7689 6.6015 22.0427C6.71383 22.3095 6.93147 22.7237 7.07891 22.9554C7.22635 23.187 7.50717 23.5451 7.70375 23.7557C7.90034 23.9664 8.26541 24.2682 8.51816 24.4297C8.77091 24.5982 9.16407 24.8088 9.39575 24.9071C9.62743 24.9984 10.0206 25.1318 10.2733 25.195C10.5261 25.2511 11.0737 25.3354 11.502 25.3705C11.9724 25.4126 12.5761 25.4196 13.0465 25.3775C13.4748 25.3424 14.1067 25.2652 14.4507 25.209C14.7947 25.1458 15.3985 25.0195 15.7846 24.9141C16.1708 24.8159 16.8237 24.6123 17.9961 24.184L18.2559 24.4789C18.3963 24.6474 18.8316 25.0967 19.2248 25.4828C19.6179 25.869 20.2077 26.3745 20.5306 26.6061C20.8536 26.8378 21.4223 27.1748 21.7873 27.3574C22.1524 27.5399 22.7422 27.7716 23.0862 27.8699C23.4302 27.9682 24.034 28.0735 24.4201 28.1086C24.8203 28.1507 25.389 28.1507 25.754 28.1156C26.1051 28.0805 26.5895 28.0103 26.8423 27.9471C27.095 27.8909 27.5794 27.7435 27.9305 27.6241C28.2815 27.4978 28.8361 27.2591 29.1802 27.0906C29.5172 26.9221 30.0226 26.6342 30.2965 26.4587C30.5773 26.2762 30.9985 25.9813 31.2302 25.8058C31.4619 25.6303 31.8972 25.2441 32.1991 24.9563C32.522 24.6403 32.7678 24.4578 32.8029 24.4999C32.8309 24.535 32.8941 24.8018 32.9363 25.0756C32.9854 25.3565 33.1118 25.883 33.2311 26.234C33.3435 26.5921 33.4417 26.908 33.4417 26.9361C33.4417 26.9712 33.3786 26.9572 33.3013 26.9221C33.182 26.8659 33.0767 26.9151 32.6484 27.2591C32.3746 27.4767 31.8761 27.8348 31.5461 28.0524C31.2162 28.2701 30.7107 28.5719 30.4228 28.7334C30.135 28.8879 29.5452 29.1617 29.124 29.3302C28.7028 29.5057 28.099 29.7163 27.7901 29.7936C27.4811 29.8778 26.9476 29.9901 26.5965 30.0463C26.2455 30.1025 25.5715 30.1516 25.0871 30.1516C24.6026 30.1516 23.9076 30.1025 23.5425 30.0393C23.1774 29.9831 22.5456 29.8216 22.1384 29.6882C21.7312 29.5478 21.0712 29.267 20.664 29.0564C20.2568 28.8458 19.625 28.4526 19.2599 28.1788C18.8948 27.905 18.3191 27.4276 17.3643 26.571L17.0273 26.6763C16.8447 26.7325 16.4305 26.8448 16.1005 26.9291C15.7706 27.0063 15.1738 27.1397 14.7666 27.2099C14.3313 27.2942 13.531 27.3644 12.8008 27.3925C11.9794 27.4205 11.3405 27.4065 10.8701 27.3433C10.484 27.2942 9.88018 27.1818 9.53616 27.0836C9.19215 26.9923 8.65155 26.7957 8.34264 26.6483C8.03373 26.5079 7.59142 26.2621 7.35974 26.1006C7.12806 25.9462 6.75596 25.6513 6.52427 25.4407C6.29961 25.2301 5.93453 24.8229 5.71689 24.535C5.49925 24.2472 5.19033 23.7557 5.02886 23.4468C4.86738 23.1379 4.62868 22.5552 4.49528 22.148C4.36189 21.7408 4.21445 21.2212 4.16531 20.9896C4.08808 20.5894 4.06 20.5543 3.6528 20.2524C3.42111 20.0769 2.92264 19.6346 2.55054 19.2695C2.17844 18.9044 1.67295 18.3357 1.42723 18.0058C1.18852 17.6758 0.837484 17.0931 0.647924 16.7069C0.465385 16.3208 0.261784 15.8012 0.198598 15.5485C0.135411 15.2958 0.0581832 14.8534 0.0230795 14.5656C-0.0120241 14.2567 -0.00500298 13.7933 0.0301006 13.4423C0.072225 13.1123 0.191577 12.5647 0.31093 12.2137C0.423261 11.8626 0.647924 11.3571 0.809401 11.0903C0.970877 10.8165 1.19554 10.4725 1.31489 10.3181C1.42722 10.1636 1.71507 9.81958 1.95378 9.5528C2.18546 9.28601 2.67691 8.81562 3.04199 8.51373C3.40707 8.20482 3.99681 7.76251 4.34785 7.52381C4.94461 7.12363 5.02184 7.0464 5.34479 6.49176C5.53435 6.16179 5.87837 5.64225 6.11707 5.33334C6.34875 5.02443 6.84723 4.46979 7.22635 4.10472C7.61249 3.73262 8.18818 3.25521 8.51816 3.03756C8.84813 2.81992 9.36767 2.52505 9.67658 2.37762C9.98549 2.2372 10.5401 2.04062 10.9052 1.94935C11.3896 1.81596 11.8249 1.75979 12.52 1.73873C13.208 1.71065 13.6433 1.73171 14.1137 1.81596C14.4717 1.87915 15.0755 2.02658 15.4476 2.14593C15.8267 2.26528 16.4235 2.49697 16.7675 2.65845C17.1115 2.81992 17.596 3.07267 18.277 3.47285L18.7474 3.06565C19.0141 2.83396 19.4635 2.46889 19.7513 2.24422C20.0392 2.02658 20.5657 1.67554 20.9097 1.47194C21.2538 1.26132 21.7452 1.00156 21.998 0.889223C22.2507 0.776892 22.7562 0.587332 23.1213 0.46798C23.4863 0.348627 24.055 0.20821 24.385 0.145024C24.715 0.088858 25.1081 0.025674 25.2626 0.0116325C25.417 -0.00240893 25.8945 -0.00241153 26.3157 0.00460917Z" fill="white"/>
<path fill-rule="evenodd" clip-rule="evenodd" d="M44.3239 14.6359C43.994 14.6008 43.1585 14.5657 42.4634 14.5727C41.7684 14.5727 40.9329 14.6218 40.6029 14.671C40.273 14.7201 39.7394 14.8324 39.4094 14.9167C39.0795 15.0009 38.5318 15.1765 38.1808 15.3099C37.8298 15.4433 37.2962 15.696 36.9873 15.8785C36.6784 16.0541 36.2361 16.3489 36.0044 16.5244C35.7727 16.7 35.4006 17.0299 35.1829 17.2476C34.9583 17.4722 34.5932 17.9005 34.3685 18.2024C34.1509 18.4973 33.849 18.9677 33.7086 19.2344C33.5682 19.5083 33.3576 20.0067 33.2382 20.3578C33.1259 20.7088 32.9714 21.2915 32.9082 21.6566C32.838 22.0708 32.7889 22.7027 32.7889 23.3065C32.7889 23.9032 32.838 24.5491 32.9082 24.9353C32.9714 25.2933 33.1118 25.8831 33.2312 26.2341C33.3435 26.5922 33.5822 27.1538 33.7577 27.4838C33.9333 27.8138 34.2632 28.3122 34.4809 28.6001C34.6985 28.8879 35.1198 29.3373 35.4076 29.6041C35.6955 29.8708 36.1729 30.2429 36.4607 30.4395C36.7486 30.6361 37.24 30.9169 37.5489 31.0644C37.8578 31.2118 38.3633 31.4154 38.6722 31.5207C38.9812 31.626 39.5147 31.7664 39.8658 31.8437C40.2168 31.9139 40.9399 32.0051 41.4805 32.0473C42.2037 32.1034 42.7021 32.1034 43.3761 32.0473C43.8746 32.0051 44.5907 31.9069 44.9558 31.8296C45.3209 31.7524 45.9527 31.5769 46.3599 31.4435C46.7671 31.3101 47.3148 31.0924 47.5816 30.9731L48.059 30.7484C48.5013 29.6883 48.5153 29.6111 48.424 29.4987C48.3328 29.3864 48.2977 29.4005 47.8694 29.6602C47.6167 29.8147 47.2305 30.0253 47.0129 30.1236C46.7882 30.2219 46.3248 30.3763 45.9738 30.4676C45.6228 30.5589 45.026 30.6712 44.6399 30.7133C44.2116 30.7695 43.5587 30.7906 42.9549 30.7625C42.4143 30.7414 41.7333 30.6782 41.4454 30.615C41.1576 30.5518 40.7153 30.4325 40.4625 30.3553C40.2098 30.271 39.7043 30.0534 39.3392 29.8638C38.9741 29.6743 38.4195 29.3232 38.1106 29.0705C37.8017 28.8248 37.3875 28.4246 37.1909 28.1788C36.9943 27.9331 36.6994 27.5259 36.5379 27.2732C36.3765 27.0204 36.1448 26.5781 36.0254 26.2903C35.9061 26.0024 35.7306 25.4618 35.6393 25.0967C35.4989 24.5702 35.4568 24.1911 35.4287 23.3065C35.4076 22.6535 35.4217 21.9304 35.4708 21.5864C35.5129 21.2564 35.6112 20.7369 35.6884 20.428C35.7727 20.1191 35.9903 19.5504 36.1799 19.1642C36.3765 18.7781 36.6994 18.2586 36.903 18.0058C37.1066 17.7531 37.4928 17.3669 37.7666 17.1423C38.0404 16.9106 38.5599 16.5806 38.9531 16.384C39.3533 16.1875 39.957 15.9628 40.3572 15.8575C40.8557 15.7311 41.3261 15.6679 41.972 15.6398C42.6109 15.6188 43.0953 15.6398 43.5868 15.71C43.9729 15.7732 44.5556 15.9066 44.8856 16.0049C45.2156 16.1102 45.7491 16.3349 46.0791 16.5034C46.4091 16.6789 46.7461 16.8685 46.8303 16.9387C46.9637 17.044 46.9848 17.1633 47.041 18.0409C47.0761 18.5815 47.1322 19.0659 47.1533 19.1081C47.1814 19.1572 47.3288 19.1993 47.4833 19.1993C47.6377 19.1993 47.7852 19.1572 47.8132 19.1081C47.8343 19.0659 47.8975 18.6307 47.9537 18.1462C48.0028 17.6618 48.1151 16.9176 48.1924 16.4964C48.2696 16.0751 48.3117 15.703 48.2766 15.682C48.2485 15.6609 48.0449 15.5696 47.8343 15.4924C47.6237 15.4081 47.1954 15.2607 46.8865 15.1694C46.5776 15.0782 46.0089 14.9378 45.6228 14.8605C45.2366 14.7763 44.6539 14.678 44.3239 14.6359ZM51.801 26.3184C51.801 23.7979 51.7799 21.7268 51.7589 21.7057C51.7378 21.6917 51.5483 21.7338 51.3376 21.811C51.127 21.8813 50.7058 21.9866 50.3969 22.0498C50.088 22.1129 49.758 22.1761 49.6667 22.1902C49.5474 22.2112 49.5052 22.2674 49.5123 22.3938C49.5193 22.5623 49.5474 22.5693 49.9686 22.5833C50.2143 22.5974 50.446 22.6325 50.4811 22.6606C50.5092 22.6957 50.5583 22.9484 50.5864 23.2222C50.6145 23.503 50.6356 25.181 50.6356 26.9572C50.6356 28.7335 50.6145 30.4044 50.5864 30.6642C50.5583 30.9661 50.5022 31.1627 50.432 31.2048C50.3758 31.2399 50.2143 31.275 50.0809 31.275C49.9475 31.275 49.765 31.289 49.6737 31.3101C49.5614 31.3382 49.5193 31.3943 49.5193 31.5207L49.5193 31.6962L52.8892 31.6962C52.8892 31.3943 52.8471 31.3382 52.7277 31.3101C52.6435 31.289 52.4539 31.275 52.3065 31.275C52.1029 31.275 52.0187 31.2329 51.9204 31.0854C51.808 30.9099 51.801 30.5589 51.801 26.3184ZM75.9523 26.3113C75.9523 23.7979 75.9312 21.7268 75.9102 21.7057C75.8891 21.6917 75.6996 21.7338 75.4889 21.811C75.2783 21.8813 74.8571 21.9866 74.5482 22.0498C74.2393 22.1129 73.9093 22.1761 73.818 22.1902C73.6987 22.2112 73.6565 22.2674 73.6636 22.3938C73.6706 22.5623 73.6987 22.5693 74.1199 22.5833C74.3656 22.5974 74.5973 22.6325 74.6324 22.6606C74.6605 22.6957 74.7096 22.9975 74.7377 23.3275C74.7588 23.6645 74.7869 24.3104 74.7869 24.7598C74.7939 25.518 74.7869 25.5812 74.6675 25.5461C74.6043 25.518 74.3656 25.4408 74.141 25.3706C73.9163 25.2933 73.5372 25.2372 73.2634 25.2372C73.0036 25.2372 72.6526 25.2793 72.4771 25.3284C72.3015 25.3776 71.8452 25.6022 71.459 25.8269C71.0729 26.0516 70.6376 26.3535 70.4832 26.4939C70.3357 26.6343 70.1181 26.9502 70.0058 27.203C69.8864 27.4557 69.76 27.898 69.7179 28.1859C69.6617 28.579 69.6617 28.8599 69.7249 29.3092C69.7811 29.6813 69.8864 30.0674 70.0198 30.3412C70.1391 30.587 70.3638 30.9169 70.5253 31.0854C70.6938 31.2539 71.0167 31.4786 71.2484 31.5839C71.5854 31.7454 71.796 31.7945 72.3015 31.8226C72.7649 31.8437 72.9966 31.8226 73.1791 31.7524C73.3125 31.6892 73.7057 31.4014 74.0567 31.1135C74.4078 30.8186 74.7096 30.587 74.7377 30.608C74.7728 30.6291 74.7939 30.8818 74.7939 31.1697L74.7939 31.6962C76.851 31.6962 77.0475 31.6752 77.0756 31.5909C77.0967 31.5348 77.0686 31.4365 77.0195 31.3803C76.9703 31.3101 76.8299 31.268 76.6684 31.275C76.528 31.275 76.3314 31.2329 76.2331 31.1837C76.1349 31.1416 76.0295 31.0503 76.0015 30.9942C75.9734 30.938 75.9523 28.8318 75.9523 26.3113ZM106.984 26.3113C106.984 23.7979 106.963 21.7268 106.942 21.7057C106.921 21.6917 106.731 21.7338 106.521 21.811C106.31 21.8813 105.889 21.9866 105.58 22.0497C105.271 22.1129 104.941 22.1761 104.85 22.1902C104.73 22.2112 104.688 22.2674 104.695 22.3938C104.702 22.5623 104.73 22.5693 105.152 22.5833C105.397 22.5974 105.629 22.6325 105.664 22.6606C105.692 22.6957 105.741 22.9344 105.769 23.1871C105.797 23.4469 105.818 24.0928 105.818 24.6193C105.826 25.511 105.818 25.5882 105.699 25.5461C105.636 25.518 105.397 25.4408 105.173 25.3706C104.941 25.2933 104.569 25.2372 104.281 25.2372C104.014 25.2372 103.642 25.2863 103.452 25.3495C103.27 25.4127 102.793 25.6584 102.392 25.8971C101.943 26.1569 101.557 26.4447 101.388 26.6413C101.234 26.8168 101.051 27.1257 100.974 27.3223C100.904 27.5259 100.806 27.9261 100.757 28.1999C100.693 28.5931 100.693 28.8388 100.757 29.253C100.806 29.5549 100.904 29.9691 100.981 30.1657C101.051 30.3693 101.213 30.6642 101.332 30.8186C101.452 30.9731 101.683 31.2048 101.845 31.3241C102.006 31.4505 102.343 31.619 102.596 31.6962C102.87 31.7805 103.242 31.8366 103.523 31.8366C103.789 31.8366 104.105 31.7945 104.225 31.7383C104.351 31.6892 104.737 31.4014 105.088 31.1065C105.439 30.8186 105.741 30.5729 105.769 30.5729C105.804 30.5729 105.826 30.8257 105.826 31.1346L105.826 31.6962C108.044 31.6611 108.107 31.6541 108.128 31.5207C108.142 31.4435 108.114 31.3592 108.058 31.3312C108.009 31.3031 107.876 31.275 107.756 31.275C107.637 31.275 107.454 31.2469 107.335 31.2118C107.216 31.1697 107.089 31.0854 107.054 31.0152C107.012 30.931 106.984 29.232 106.984 26.3113ZM110.93 22.3587C110.81 22.2814 110.628 22.2182 110.529 22.2182C110.431 22.2182 110.249 22.2814 110.122 22.3587C110.003 22.4359 109.862 22.5623 109.827 22.6395C109.792 22.7167 109.757 22.8922 109.757 23.0256C109.757 23.2152 109.82 23.3345 110.01 23.5311C110.256 23.7839 110.277 23.7979 110.593 23.7488C110.768 23.7207 110.972 23.6435 111.042 23.5732C111.112 23.503 111.203 23.3486 111.246 23.2363C111.302 23.0818 111.302 22.9554 111.246 22.7588C111.189 22.5903 111.084 22.4499 110.93 22.3587ZM57.8739 25.2652C57.6212 25.2091 57.2561 25.174 57.0666 25.174C56.87 25.181 56.5751 25.2091 56.3996 25.2442C56.2241 25.2793 55.9432 25.3565 55.7677 25.4197C55.5922 25.4829 55.2552 25.6724 55.0095 25.8409C54.7567 26.0235 54.4548 26.3184 54.2934 26.55C54.1319 26.7747 53.9494 27.1468 53.8721 27.3785C53.8019 27.6102 53.7247 28.0244 53.6966 28.2912C53.6615 28.6352 53.6826 28.9371 53.7598 29.3092C53.823 29.597 53.9564 30.0113 54.0547 30.2219C54.16 30.4465 54.4127 30.7835 54.6655 31.0363C54.9042 31.268 55.2763 31.5418 55.4869 31.6471C55.6975 31.7454 56.0907 31.8647 56.3645 31.9068C56.7155 31.963 56.9893 31.963 57.3263 31.9068C57.5931 31.8717 57.9371 31.7875 58.0986 31.7173C58.2671 31.6541 58.5549 31.4996 58.7515 31.3733C58.9411 31.2539 59.2219 31.0222 59.3623 30.8608C59.5098 30.6993 59.7063 30.4465 59.8046 30.2921C59.9029 30.1376 60.0433 29.8287 60.1136 29.604C60.1908 29.3864 60.268 29.0003 60.2961 28.7475C60.3242 28.4948 60.3031 28.0735 60.261 27.7997C60.2189 27.5329 60.0925 27.1187 59.9802 26.887C59.8538 26.6273 59.6291 26.3184 59.3694 26.0726C59.1447 25.855 58.8217 25.6093 58.6462 25.518C58.4707 25.4337 58.1267 25.3144 57.8739 25.2652ZM87.8173 25.8199C87.8173 25.4759 87.7893 25.2091 87.7471 25.2021C87.712 25.195 87.4733 25.2582 87.2206 25.3425C86.9678 25.4337 86.4974 25.5461 86.1675 25.6022C85.5988 25.6935 85.5707 25.7075 85.5496 25.8901C85.5356 26.0726 85.5426 26.0796 85.9358 26.0796C86.1815 26.0796 86.3992 26.1148 86.4834 26.1779C86.6238 26.2762 86.6238 26.3605 86.6238 30.5167C86.6238 33.7744 86.6028 34.7853 86.5325 34.9047C86.4623 35.0381 86.3711 35.0732 85.992 35.1013C85.5637 35.1364 85.5356 35.1434 85.5356 35.3119L85.5356 35.4874L88.9056 35.4874C88.9056 35.1434 88.8775 35.1364 88.4492 35.1013C88.0631 35.0732 87.9788 35.0381 87.9156 34.9047C87.8665 34.8134 87.8173 34.1043 87.7893 33.1495C87.7682 32.2719 87.7612 31.5558 87.7822 31.5558C87.8033 31.5558 87.9437 31.605 88.0982 31.6681C88.2526 31.7313 88.5686 31.8086 88.8002 31.8437C89.0741 31.8858 89.3619 31.8858 89.6217 31.8366C89.9516 31.7805 90.2184 31.6471 91.0469 31.0995C91.9385 30.5167 92.1 30.3833 92.3246 30.0253C92.4651 29.8076 92.6616 29.4215 92.7599 29.1688C92.9074 28.7826 92.9355 28.5931 92.9425 27.9331C92.9425 27.1819 92.9355 27.1468 92.6757 26.6202C92.5002 26.2481 92.3246 26.0024 92.114 25.8409C91.9525 25.7075 91.6577 25.525 91.4681 25.4337C91.1592 25.2933 91.0048 25.2723 90.2746 25.2723C89.6568 25.2723 89.383 25.3003 89.2426 25.3776C89.1443 25.4337 88.8002 25.7005 88.4843 25.9743C88.1684 26.2411 87.8875 26.4588 87.8665 26.4447C87.8384 26.4377 87.8173 26.1569 87.8173 25.8199ZM98.1027 25.3425C97.9272 25.2793 97.5621 25.2161 97.2953 25.2021C97.0285 25.188 96.6635 25.2021 96.4879 25.2372C96.3124 25.2723 95.9473 25.4127 95.6806 25.5461C95.4138 25.6795 95.0206 25.9463 94.81 26.1288C94.5994 26.3113 94.3607 26.6132 94.2694 26.7958C94.1781 26.9853 94.0517 27.3293 93.9956 27.568C93.9394 27.8138 93.8903 28.2912 93.8903 28.6422C93.8903 28.9932 93.9394 29.4636 93.9956 29.6953C94.0588 29.927 94.1922 30.257 94.2975 30.4325C94.3958 30.608 94.5923 30.8678 94.7328 31.0152C94.8662 31.1697 95.1821 31.3873 95.4348 31.5137C95.7437 31.6681 96.0807 31.7735 96.4879 31.8296C96.9864 31.8998 97.183 31.8928 97.6815 31.8015C98.0465 31.7384 98.4537 31.605 98.7346 31.4645C99.0786 31.289 99.233 31.1627 99.3454 30.952C99.4296 30.8046 99.4788 30.6572 99.4507 30.6221C99.4226 30.594 99.1628 30.6782 98.875 30.8186C98.5871 30.952 98.1589 31.0995 97.9272 31.1346C97.6464 31.1837 97.3866 31.1907 97.1549 31.1416C96.9583 31.1065 96.6845 31.0293 96.5371 30.9661C96.3967 30.9029 96.1299 30.7203 95.9544 30.5518C95.7718 30.3904 95.5682 30.1306 95.491 29.9761C95.4138 29.8217 95.3014 29.4917 95.2523 29.239C95.1961 28.9862 95.154 28.7124 95.154 28.6211C95.154 28.5899 95.154 28.5649 95.164 28.545C95.2035 28.4667 95.3985 28.4667 96.3616 28.4667C97.0285 28.4667 98.0185 28.4316 98.5591 28.3965C99.0996 28.3544 99.57 28.2982 99.5981 28.2701C99.6332 28.242 99.6543 27.9963 99.6543 27.7295C99.6473 27.4627 99.5981 27.0625 99.5349 26.8519C99.4717 26.6413 99.3454 26.3464 99.2541 26.199C99.1628 26.0586 98.9382 25.8269 98.7486 25.6935C98.5661 25.5601 98.2782 25.3986 98.1027 25.3425ZM63.2237 27.8138C63.2167 26.4517 63.1816 25.3214 63.1535 25.3003C63.1254 25.2793 62.8657 25.3355 62.5778 25.4267C62.29 25.518 61.7985 25.6373 61.4896 25.6795C60.956 25.7637 60.928 25.7778 60.9069 25.9603C60.8928 26.1499 60.8999 26.1499 61.3281 26.1499C61.5739 26.1499 61.8196 26.185 61.8758 26.2201C61.967 26.2762 61.9881 26.6343 62.0232 28.4105C62.0513 29.6813 62.1004 30.6361 62.1496 30.7835C62.1917 30.9169 62.283 31.1065 62.3461 31.2048C62.4093 31.3031 62.5146 31.4224 62.5708 31.4716C62.634 31.5207 62.8236 31.633 62.9991 31.7103C63.2448 31.8296 63.4554 31.8577 63.9469 31.8647C64.4594 31.8647 64.6489 31.8366 64.9298 31.7032C65.1193 31.619 65.5125 31.3241 65.7863 31.0573C66.0671 30.7906 66.3409 30.5729 66.3831 30.5729C66.4533 30.5729 66.4603 30.7063 66.4182 31.1346L66.369 31.6962C68.6578 31.6611 68.721 31.6541 68.742 31.5207C68.7631 31.3943 68.7069 31.3733 68.3208 31.3312C68.068 31.3031 67.8364 31.2329 67.7732 31.1697C67.6819 31.0784 67.6679 30.6291 67.6538 28.1648C67.6398 26.5711 67.6257 25.2652 67.6187 25.2582C67.6047 25.2442 67.4081 25.3003 67.1764 25.3776C66.9447 25.4548 66.5024 25.5671 66.1935 25.6303C66.0576 25.655 65.919 25.6811 65.7985 25.7037C65.6452 25.7326 65.5215 25.7559 65.4704 25.7637C65.358 25.7918 65.3159 25.848 65.3159 25.9743C65.3159 26.1428 65.33 26.1499 65.7723 26.1499C66.039 26.1499 66.2637 26.185 66.3199 26.2341C66.376 26.2903 66.4322 26.6273 66.4673 27.1679C66.5024 27.6312 66.5024 28.4176 66.4673 28.923C66.4182 29.7796 66.3971 29.8568 66.2005 30.1446C66.0812 30.3202 65.8425 30.5518 65.6669 30.6572C65.4914 30.7695 65.2387 30.8888 65.1053 30.9239C64.9719 30.9661 64.6981 30.9942 64.5085 30.9942C64.2839 30.9942 64.0452 30.938 63.8486 30.8397C63.6731 30.7484 63.4695 30.587 63.3922 30.4816C63.2518 30.2921 63.2448 30.1797 63.2237 27.8138ZM111.168 27.8348C111.175 26.3675 111.154 25.2652 111.119 25.2582C111.084 25.2582 110.894 25.3074 110.705 25.3776C110.508 25.4478 110.087 25.5601 109.757 25.6233C109.651 25.6436 109.544 25.6638 109.444 25.6827C109.233 25.7227 109.054 25.7564 108.992 25.7707C108.872 25.7918 108.83 25.848 108.837 25.9743C108.844 26.1428 108.865 26.1499 109.301 26.1499C109.61 26.1499 109.792 26.185 109.862 26.2552C109.94 26.3324 109.982 26.5992 110.01 27.2521C110.038 27.7506 110.031 28.7826 110.003 29.5549C109.968 30.5729 109.926 31.0012 109.855 31.1135C109.778 31.2399 109.694 31.275 109.441 31.275C109.266 31.275 109.076 31.289 109.02 31.3101C108.964 31.3311 108.915 31.4224 108.915 31.5207L108.915 31.6962C112.186 31.6611 112.249 31.6541 112.271 31.5207C112.285 31.4224 112.242 31.3663 112.13 31.3312C112.039 31.3031 111.856 31.275 111.723 31.275C111.59 31.275 111.435 31.2469 111.386 31.2188C111.337 31.1907 111.26 30.9942 111.224 30.7835C111.189 30.5729 111.161 29.246 111.168 27.8348ZM117.094 25.4408C116.862 25.3425 116.56 25.2793 116.216 25.2652C115.928 25.2512 115.535 25.2793 115.339 25.3284C115.142 25.3846 114.847 25.4829 114.672 25.5601C114.496 25.6373 114.208 25.8058 114.019 25.9252L113.689 26.1499C113.689 26.9221 113.71 27.0064 113.829 27.0625C113.906 27.0977 113.984 27.1328 114.005 27.1328C114.026 27.1328 114.131 26.9292 114.25 26.6764C114.426 26.2973 114.503 26.199 114.721 26.1077C114.868 26.0445 115.142 25.9814 115.339 25.9603C115.549 25.9322 115.837 25.9603 116.076 26.0305C116.364 26.1077 116.532 26.213 116.722 26.4237C116.869 26.5851 117.017 26.8309 117.059 26.9713C117.094 27.1187 117.129 27.3574 117.129 27.4978C117.129 27.7155 117.101 27.7716 116.967 27.7997C116.937 27.8048 116.861 27.8189 116.756 27.8386C116.569 27.8735 116.289 27.9258 116.006 27.9752C115.563 28.0595 114.959 28.1999 114.672 28.2982C114.384 28.3895 114.026 28.5439 113.878 28.6422C113.738 28.7405 113.541 28.9511 113.443 29.1126C113.352 29.2811 113.232 29.604 113.19 29.8357C113.134 30.1446 113.134 30.3623 113.19 30.6431C113.239 30.8959 113.345 31.1205 113.499 31.3031C113.619 31.4505 113.808 31.619 113.913 31.6681C114.026 31.7243 114.293 31.8015 114.51 31.8437C114.791 31.8928 115.023 31.8928 115.268 31.8437C115.542 31.7875 115.774 31.6471 116.336 31.2048C116.736 30.8959 117.073 30.6431 117.094 30.6431C117.115 30.6431 117.136 30.8748 117.143 31.1486L117.164 31.6611L119.165 31.6962C119.165 31.3943 119.123 31.3382 119.003 31.3101L118.984 31.3068C118.896 31.2921 118.749 31.2675 118.638 31.2609C118.498 31.2469 118.397 31.1814 118.336 31.0644C118.266 30.931 118.252 30.4114 118.266 28.7826L118.287 26.6764C117.985 26.1077 117.796 25.862 117.669 25.7707C117.55 25.6724 117.283 25.525 117.094 25.4408ZM80.8387 25.4127L77.6443 25.4057L77.6584 25.5882C77.6654 25.7286 77.7145 25.7707 77.9322 25.8129C78.0796 25.8409 78.2621 25.9322 78.3464 26.0235C78.4306 26.1148 78.6693 26.5922 78.887 27.0977C79.0976 27.6031 79.582 28.7686 79.9541 29.6953C80.3332 30.6221 80.6983 31.5348 80.7615 31.7313L80.8879 32.0824C80.4175 33.1706 80.1998 33.6269 80.1086 33.8024C80.0103 33.978 79.8207 34.2237 79.6803 34.343C79.4697 34.5326 79.3714 34.5747 79.0906 34.5747C78.8659 34.5817 78.6974 34.5326 78.564 34.4343C78.4587 34.3571 78.3253 34.2939 78.2692 34.2939C78.1989 34.2939 78.117 34.4577 78.0234 34.7853C77.9462 35.0521 77.8971 35.3119 77.9181 35.347C77.9392 35.3821 78.0726 35.4523 78.213 35.4944C78.3604 35.5436 78.6342 35.5576 78.8308 35.5436C79.0204 35.5225 79.2942 35.4523 79.4276 35.3821C79.561 35.3189 79.7786 35.1645 79.905 35.0381C80.0384 34.9187 80.249 34.6309 80.3754 34.3992C80.5088 34.1675 81.0072 33.0653 81.4846 31.942C81.9621 30.8186 82.6009 29.3653 82.9028 28.7124C83.1977 28.0595 83.6119 27.1819 83.8225 26.7607C84.0542 26.3113 84.2648 25.9743 84.3561 25.9252C84.4474 25.8831 84.6089 25.8269 84.7282 25.7988C84.8897 25.7707 84.9388 25.7216 84.9388 25.5882L84.9388 25.4267L82.3763 25.4057C82.3763 25.7848 82.3973 25.7988 82.7413 25.8339C82.952 25.855 83.1486 25.9111 83.1977 25.9743C83.2679 26.0516 83.2679 26.1499 83.2188 26.3394C83.1837 26.4869 82.9309 27.1749 82.6571 27.8699C82.3833 28.565 82.0323 29.4285 81.8778 29.7796C81.7304 30.1376 81.5689 30.4325 81.5338 30.4325C81.4917 30.4325 81.2249 29.8428 80.93 29.1126C80.6351 28.3895 80.263 27.4136 80.1086 26.9362C79.8278 26.1147 79.8207 26.0726 79.9401 25.9533C80.0103 25.8831 80.2209 25.8199 80.4315 25.7988C80.7545 25.7707 80.7966 25.7427 80.8177 25.5882L80.8387 25.4127ZM72.6175 36.709C72.6175 36.5125 72.5894 36.4633 72.4771 36.4633C72.3928 36.4633 72.1752 36.6107 71.9856 36.7933C71.7118 37.046 71.6416 37.1654 71.6416 37.3339C71.6416 37.4813 71.5854 37.5936 71.4801 37.6709L71.3186 37.7972C71.6416 37.9026 71.6486 37.9236 71.6275 38.4923C71.6065 38.9416 71.5714 39.0961 71.4801 39.1593C71.4099 39.2014 71.3608 39.2646 71.3537 39.2927C71.3537 39.3207 71.5924 39.3418 71.8803 39.3418C72.1822 39.3418 72.4068 39.3137 72.4068 39.2716C72.4068 39.2365 72.3437 39.1873 72.2664 39.1663C72.1541 39.1382 72.119 39.0539 72.0839 38.6959C72.0628 38.4502 72.0558 38.1764 72.0698 38.0781C72.0839 37.9377 72.1401 37.8955 72.3296 37.8674C72.463 37.8534 72.5824 37.7972 72.5964 37.7481C72.6104 37.6919 72.5332 37.6568 72.3717 37.6568C72.2383 37.6568 72.105 37.6217 72.0839 37.5726C72.0558 37.5234 72.0558 37.3479 72.0839 37.1864C72.105 37.0109 72.1681 36.8705 72.2313 36.8494C72.2875 36.8354 72.3998 36.8494 72.4771 36.8845C72.6034 36.9477 72.6175 36.9337 72.6175 36.709ZM95.0276 37.7411C95.0487 37.0741 95.0487 36.5195 95.0136 36.5124C94.9855 36.5054 94.824 36.5335 94.6555 36.5756C94.487 36.6178 94.3396 36.688 94.3326 36.7371C94.3185 36.7792 94.3607 36.8143 94.4168 36.8143C94.4941 36.8143 94.5362 36.9337 94.5643 37.2917C94.5923 37.5515 94.5923 38.064 94.5713 38.4291C94.5362 38.8995 94.4941 39.1171 94.4238 39.1663C94.3607 39.2084 94.3185 39.2646 94.3115 39.2927C94.3115 39.3207 94.5362 39.3418 94.803 39.3418C95.0768 39.3418 95.2944 39.3278 95.2944 39.3067C95.2944 39.2927 95.2242 39.2014 95.14 39.1171C94.9925 38.9627 94.9925 38.9206 95.0276 37.7411ZM40.954 37.6217C40.954 37.5656 40.8978 37.5234 40.8346 37.5234C40.7644 37.5305 40.5959 37.5656 40.4625 37.6007C40.3291 37.6358 40.1887 37.699 40.1536 37.7341C40.1115 37.7762 40.1396 37.7972 40.2379 37.7972C40.3221 37.7972 40.4064 37.8464 40.4274 37.9026C40.4485 37.9657 40.4625 38.2325 40.4625 38.4993C40.4625 38.8995 40.4345 39.0188 40.3221 39.1312C40.2449 39.2084 40.1817 39.2927 40.1817 39.3067C40.1817 39.3278 40.4064 39.3418 40.6732 39.3418C40.954 39.3418 41.1646 39.3137 41.1646 39.2716C41.1646 39.2365 41.1155 39.1873 41.0593 39.1663C40.975 39.1382 40.954 39.0118 40.975 38.5204L40.9891 37.9026C41.3191 37.8745 41.4454 37.8955 41.4805 37.9377C41.5227 37.9798 41.5437 38.2606 41.5297 38.5555C41.5227 38.9346 41.4876 39.1171 41.4103 39.1663C41.3542 39.2084 41.312 39.2646 41.305 39.2927C41.305 39.3207 41.5297 39.3418 41.7965 39.3418C42.0773 39.3418 42.2879 39.3137 42.2879 39.2716C42.2879 39.2365 42.2388 39.1873 42.1826 39.1663C42.1124 39.1452 42.0633 38.9908 42.0352 38.6608C42.0071 38.3729 42.0211 38.1272 42.0703 38.0289C42.1335 37.9025 42.1967 37.8745 42.3792 37.8885L42.6039 37.9026L42.639 39.3418C43.2357 39.3418 43.4112 39.3207 43.4042 39.2927C43.3972 39.2646 43.334 39.2014 43.2568 39.1522C43.1304 39.068 43.1164 38.9908 43.1234 38.4151C43.1304 37.8745 43.1164 37.7411 43.0111 37.6428C42.9409 37.5796 42.7724 37.5234 42.639 37.5164C42.4985 37.5164 42.323 37.5726 42.2177 37.6498C42.0422 37.7902 42.0422 37.7902 41.9228 37.6568C41.8316 37.5585 41.7052 37.5164 41.5016 37.5164C41.312 37.5164 41.1786 37.5585 41.1295 37.6287C41.0944 37.6849 41.0382 37.7341 41.0102 37.7341C40.975 37.7341 40.954 37.6849 40.954 37.6217ZM49.4561 37.713C49.2735 37.5445 49.1753 37.5164 48.8383 37.5234C48.6136 37.5234 48.3538 37.5656 48.2555 37.6147C48.1573 37.6709 48.0309 37.8183 47.9747 37.9447C47.9185 38.0781 47.8834 38.3449 47.8905 38.5344C47.8975 38.731 47.9466 38.9557 48.0098 39.0469C48.066 39.1312 48.2345 39.2576 48.3819 39.3137C48.5504 39.3909 48.74 39.412 48.9225 39.3909C49.077 39.3629 49.2735 39.2997 49.3648 39.2365C49.4491 39.1803 49.5684 39.0118 49.6316 38.8714C49.7088 38.6959 49.7369 38.4923 49.7088 38.2536C49.6808 37.9728 49.6316 37.8674 49.4561 37.713ZM54.9884 37.8323C54.9954 37.5726 54.9533 37.5234 54.8761 37.5234C54.8059 37.5305 54.6233 37.5656 54.4689 37.6007C54.3144 37.6428 54.2021 37.699 54.2091 37.7341C54.2161 37.7692 54.2723 37.7972 54.3285 37.7972C54.3846 37.7972 54.4478 37.8464 54.4689 37.9026C54.4899 37.9657 54.504 38.2466 54.504 38.5344C54.504 38.9908 54.4829 39.075 54.3636 39.1522C54.2863 39.2014 54.2232 39.2646 54.2232 39.2927C54.2232 39.3207 54.4619 39.3418 54.7497 39.3418C55.0516 39.3418 55.2763 39.3137 55.2763 39.2716C55.2763 39.2365 55.2131 39.1873 55.1359 39.1663C55.0095 39.1382 54.9954 39.075 54.9954 38.6257C54.9884 38.2466 55.0165 38.0851 55.1008 38.0079C55.192 37.9236 55.2412 37.9166 55.3886 37.9938C55.529 38.064 55.5641 38.064 55.5922 37.9728C55.6133 37.9166 55.6273 37.7902 55.6273 37.6919C55.6273 37.5656 55.5922 37.5164 55.4869 37.5164C55.4026 37.5164 55.2622 37.5866 55.1639 37.6779L54.9884 37.8323ZM61.4194 37.6919C61.279 37.5585 61.1737 37.5164 60.9139 37.5234C60.7173 37.5234 60.4927 37.5726 60.3803 37.6428C60.275 37.713 60.1346 37.8745 60.0784 38.0079C60.0012 38.1623 59.9731 38.38 59.9872 38.5836C60.0082 38.8293 60.0644 38.9627 60.2259 39.1312C60.3663 39.2716 60.5348 39.3558 60.7173 39.3839C60.8999 39.412 61.0894 39.3909 61.265 39.3137C61.4054 39.2505 61.5247 39.1593 61.5247 39.0961C61.5247 39.0118 61.4896 39.0048 61.3001 39.068C61.1175 39.1312 61.0192 39.1242 60.8648 39.054C60.7524 38.9978 60.619 38.8644 60.5699 38.745C60.5208 38.6327 60.4997 38.5134 60.5137 38.4853C60.5278 38.4572 60.7805 38.4291 61.0684 38.4291L61.5949 38.4291C61.5949 37.9447 61.5458 37.8253 61.4194 37.6919ZM78.6413 37.6849C78.4728 37.5445 78.3674 37.5164 77.9883 37.5164C77.5811 37.5164 77.5109 37.5375 77.3354 37.72C77.1809 37.8745 77.1248 38.0149 77.0827 38.3308C77.0405 38.6678 77.0546 38.7942 77.1599 38.9908C77.2511 39.1663 77.3705 39.2646 77.5671 39.3348C77.7356 39.398 77.9532 39.419 78.1147 39.3909C78.2551 39.3629 78.4798 39.2505 78.6062 39.1382C78.8238 38.9416 78.8308 38.9135 78.8308 38.394C78.8308 37.8955 78.8168 37.8464 78.6413 37.6849ZM84.2017 37.8323C84.1455 37.5866 84.0893 37.5234 84.0472 37.5304C83.9981 37.5304 83.8225 37.5726 83.6541 37.6147C83.4926 37.6568 83.3592 37.72 83.3592 37.7481C83.3592 37.7762 83.4224 37.8183 83.4996 37.8323C83.626 37.8674 83.64 37.9306 83.64 38.4993C83.64 39.075 83.626 39.1382 83.4996 39.1663C83.4224 39.1873 83.3592 39.2365 83.3592 39.2716C83.3592 39.3137 83.5838 39.3418 83.8857 39.3418C84.1876 39.3418 84.4123 39.3137 84.4123 39.2716C84.4123 39.2365 84.3491 39.1873 84.2719 39.1663C84.1455 39.1382 84.1315 39.082 84.1525 38.5976C84.1595 38.1764 84.1946 38.043 84.2859 37.9798C84.3772 37.9236 84.4474 37.9306 84.5527 37.9938C84.6299 38.043 84.7072 38.057 84.7282 38.0289C84.7493 38.0008 84.7633 37.8745 84.7633 37.7481C84.7633 37.5515 84.7352 37.5164 84.5878 37.5164C84.4825 37.5164 84.3702 37.5866 84.307 37.6779L84.2017 37.8323ZM101.304 37.7481C101.143 37.5445 101.079 37.5164 100.792 37.5164C100.581 37.5164 100.37 37.5726 100.23 37.6568C100.104 37.7341 99.9702 37.8815 99.9281 37.9728C99.893 38.071 99.8579 38.2957 99.8579 38.4642C99.8579 38.6397 99.907 38.8784 99.9632 38.9908C100.019 39.1101 100.174 39.2505 100.314 39.3067C100.448 39.3699 100.637 39.412 100.735 39.412C100.834 39.412 101.023 39.3699 101.157 39.3067C101.29 39.2505 101.402 39.1593 101.402 39.0961C101.402 39.0188 101.36 39.0048 101.248 39.0399C101.157 39.068 100.995 39.0891 100.876 39.0891C100.743 39.082 100.609 39.0118 100.511 38.8925C100.42 38.7942 100.349 38.6467 100.349 38.5695C100.349 38.4431 100.406 38.4291 100.897 38.4151L101.438 38.394C101.48 38.043 101.431 37.9025 101.304 37.7481ZM107.216 37.8183L107.195 37.5515C106.429 37.5164 106.324 37.5375 106.191 37.6568C106.106 37.7341 106.015 37.8674 105.994 37.9587C105.973 38.043 105.973 38.1834 105.994 38.2746C106.015 38.3659 106.134 38.4712 106.268 38.5274C106.387 38.5836 106.591 38.6538 106.703 38.6889C106.844 38.731 106.921 38.8012 106.935 38.9065C106.942 39.0118 106.893 39.089 106.773 39.1522C106.633 39.2224 106.563 39.2224 106.422 39.1522C106.324 39.1031 106.233 38.9978 106.212 38.9206C106.191 38.8433 106.127 38.7801 106.071 38.7801C105.994 38.7801 105.973 38.8503 105.987 39.0399C106.001 39.2856 106.022 39.3067 106.282 39.3699C106.436 39.405 106.668 39.412 106.794 39.3839C106.914 39.3629 107.096 39.2646 107.195 39.1663C107.314 39.0469 107.37 38.9135 107.37 38.745C107.37 38.6116 107.321 38.4572 107.265 38.394C107.209 38.3378 107.075 38.2747 106.97 38.2466C106.858 38.2255 106.696 38.1834 106.598 38.1553C106.471 38.1202 106.422 38.057 106.422 37.9306C106.422 37.7832 106.45 37.7621 106.703 37.7621C106.928 37.7621 106.998 37.7972 107.054 37.9236C107.096 38.0079 107.145 38.0781 107.181 38.0781C107.209 38.0781 107.223 37.9587 107.216 37.8183ZM113.183 37.8183L113.162 37.5515C112.397 37.5164 112.292 37.5375 112.158 37.6568C112.074 37.7341 111.983 37.8885 111.962 37.9938C111.934 38.1132 111.955 38.2536 112.011 38.3589C112.081 38.4782 112.214 38.5625 112.425 38.6116C112.601 38.6538 112.783 38.7099 112.832 38.738C112.874 38.7591 112.916 38.8433 112.916 38.9206C112.916 39.0048 112.839 39.1031 112.741 39.1522C112.601 39.2224 112.53 39.2224 112.39 39.1522C112.292 39.1031 112.2 38.9978 112.179 38.9206C112.158 38.8433 112.095 38.7801 112.039 38.7801C111.962 38.7801 111.941 38.8503 111.955 39.0399C111.969 39.2856 111.99 39.3067 112.249 39.3699C112.404 39.405 112.636 39.412 112.762 39.3839C112.881 39.3629 113.064 39.2646 113.162 39.1663C113.282 39.0469 113.338 38.9135 113.338 38.745C113.338 38.6116 113.289 38.4572 113.232 38.394C113.176 38.3378 113.043 38.2747 112.938 38.2466C112.825 38.2255 112.664 38.1834 112.565 38.1553C112.439 38.1202 112.39 38.057 112.39 37.9306C112.39 37.7832 112.418 37.7621 112.671 37.7621C112.895 37.7621 112.966 37.7972 113.022 37.9236C113.064 38.0079 113.113 38.0781 113.148 38.0781C113.176 38.0781 113.19 37.9587 113.183 37.8183ZM35.6884 38.1834C35.6674 38.1623 35.4568 38.1483 35.2181 38.1483C34.86 38.1483 34.7687 38.1764 34.6985 38.2887C34.6564 38.3589 34.6283 38.4572 34.6283 38.4993C34.6353 38.5414 34.8389 38.5695 35.1619 38.5695C35.6744 38.5695 35.6884 38.5695 35.7095 38.394C35.7165 38.2957 35.7095 38.1974 35.6884 38.1834ZM118.884 38.2536C118.884 38.1693 118.786 38.1483 118.393 38.1483C118.013 38.1483 117.887 38.1764 117.866 38.2536C117.859 38.2739 117.852 38.2972 117.844 38.3213C117.828 38.3719 117.81 38.4261 117.796 38.4642C117.768 38.5555 117.852 38.5695 118.287 38.5695C118.695 38.5695 118.821 38.5485 118.849 38.4642C118.87 38.408 118.884 38.3168 118.884 38.2536ZM57.6282 25.8198C57.3754 25.7075 57.1508 25.6584 56.8208 25.6584C56.5259 25.6584 56.2662 25.7075 56.0836 25.7918C55.9292 25.862 55.7045 26.0305 55.5781 26.1568C55.4517 26.2902 55.2833 26.557 55.199 26.7466C55.0726 27.0204 55.0305 27.2661 55.0094 27.905C54.9954 28.3473 55.0165 28.937 55.0586 29.2038C55.1007 29.4706 55.2341 29.8989 55.3535 30.1516C55.4728 30.4044 55.6834 30.7273 55.8238 30.8748C55.9643 31.0222 56.21 31.2117 56.3644 31.289C56.5189 31.3662 56.8068 31.4504 56.9963 31.4645C57.1859 31.4856 57.4878 31.4645 57.6633 31.4154C57.8879 31.3592 58.0775 31.2328 58.3302 30.973C58.59 30.7063 58.7234 30.4956 58.8217 30.1867C58.934 29.8497 58.9621 29.5759 58.9621 28.8528C58.9551 28.1788 58.92 27.8278 58.8287 27.5188C58.7585 27.2872 58.6321 26.9572 58.5409 26.7817C58.4566 26.6062 58.2951 26.3604 58.1828 26.227C58.0705 26.0936 57.8248 25.9111 57.6282 25.8198ZM97.4919 25.7566C97.3655 25.7005 97.0776 25.6584 96.86 25.6584C96.6353 25.6654 96.3405 25.7145 96.2071 25.7707C96.0737 25.8268 95.856 25.9743 95.7297 26.1007C95.6033 26.227 95.4418 26.4868 95.3716 26.6764C95.3014 26.8659 95.2171 27.217 95.1891 27.4486L95.1399 27.8699C95.505 27.9401 96.2562 27.9682 97.0496 27.9682L98.4888 27.9822C98.4116 27.1889 98.3414 26.8168 98.2782 26.6413C98.215 26.4657 98.0676 26.22 97.9412 26.0866C97.8148 25.9602 97.6112 25.8058 97.4919 25.7566ZM73.8461 26.0726C73.5652 25.9322 73.2844 25.8549 73.0036 25.8339C72.7438 25.8128 72.456 25.8409 72.2664 25.8971C72.0909 25.9532 71.81 26.1217 71.6345 26.2762C71.445 26.4377 71.2554 26.6904 71.1641 26.908C71.0729 27.1116 70.9676 27.5189 70.9184 27.8207C70.8622 28.235 70.8622 28.4877 70.9254 28.8879C70.9746 29.1757 71.0869 29.5829 71.1782 29.7865C71.2765 29.9831 71.4871 30.285 71.6556 30.4535C71.8381 30.6431 72.0839 30.8045 72.3015 30.8748C72.4981 30.945 72.814 30.9941 73.0036 30.9941C73.2212 30.9941 73.488 30.9309 73.7056 30.8326C73.9022 30.7414 74.1479 30.5588 74.2603 30.4254C74.3726 30.292 74.5271 30.0604 74.6113 29.9059C74.7447 29.6531 74.7588 29.4847 74.7798 28.2209L74.8079 26.8168C74.3866 26.4026 74.0777 26.1919 73.8461 26.0726ZM104.807 26.0375C104.562 25.9251 104.225 25.8409 104 25.8269C103.782 25.8128 103.467 25.8479 103.284 25.9041C103.066 25.9743 102.828 26.1287 102.603 26.3464C102.343 26.6062 102.238 26.7746 102.126 27.1327C102.048 27.3855 101.957 27.7786 101.936 28.0103C101.908 28.242 101.922 28.6492 101.964 28.923C102.006 29.1898 102.119 29.5829 102.217 29.7865C102.308 29.9831 102.519 30.285 102.687 30.4535C102.863 30.622 103.13 30.7975 103.333 30.8748C103.53 30.9379 103.846 30.9941 104.035 30.9941C104.232 30.9941 104.527 30.9309 104.702 30.8467C104.878 30.7694 105.109 30.622 105.215 30.5167C105.327 30.4114 105.503 30.1727 105.601 29.9761C105.783 29.6391 105.79 29.5829 105.811 28.1858L105.84 26.7466C105.369 26.3464 105.039 26.1498 104.807 26.0375ZM90.5694 26.3113C90.3869 26.22 90.0569 26.1358 89.8393 26.1147C89.6146 26.1007 89.3408 26.1077 89.2214 26.1428C89.1021 26.1709 88.8985 26.2551 88.7651 26.3183C88.6317 26.3885 88.4 26.564 88.2526 26.7044C88.1051 26.8449 87.9367 27.0414 87.8805 27.1467C87.8033 27.3012 87.7822 27.6873 87.7822 28.8528L87.7822 30.3622C88.1894 30.6922 88.4492 30.8537 88.6247 30.9379C88.8002 31.0152 89.1442 31.0994 89.397 31.1205C89.7269 31.1415 89.9586 31.1205 90.2394 31.0292C90.4711 30.952 90.752 30.7835 90.9345 30.615C91.11 30.4535 91.3277 30.1446 91.44 29.9059C91.5523 29.6742 91.6787 29.26 91.7208 28.9932C91.7629 28.7264 91.784 28.3333 91.7559 28.1367C91.7349 27.9331 91.6506 27.5961 91.5804 27.3995C91.5032 27.1959 91.3206 26.901 91.1662 26.7466C91.0187 26.5921 90.7449 26.3955 90.5694 26.3113ZM117.129 30.0463L117.094 28.2069L116.462 28.3403C116.111 28.4105 115.626 28.5368 115.374 28.6211C115.107 28.7124 114.826 28.8668 114.707 28.9932C114.573 29.1196 114.454 29.3442 114.398 29.5549C114.342 29.7795 114.328 30.0182 114.363 30.2218C114.391 30.3973 114.489 30.622 114.58 30.7343C114.672 30.8397 114.868 30.959 115.044 31.0011C115.254 31.0573 115.437 31.0573 115.69 31.0011C115.886 30.959 116.181 30.8326 116.357 30.7203C116.532 30.608 116.778 30.4044 116.904 30.278L117.129 30.0463ZM49.0629 37.8885C49.0067 37.7972 48.8874 37.727 48.7891 37.727C48.6978 37.727 48.5925 37.7761 48.5504 37.8323C48.5083 37.8955 48.4521 38.078 48.431 38.2395C48.4029 38.401 48.41 38.6467 48.4451 38.7801C48.4872 38.9416 48.5855 39.0679 48.7048 39.1311C48.8874 39.2364 48.9084 39.2294 49.0348 39.0609C49.1401 38.9346 49.1752 38.7871 49.1752 38.4642C49.1752 38.2114 49.1261 37.9867 49.0629 37.8885ZM61.0192 37.8182C60.97 37.7691 60.8577 37.727 60.7735 37.727C60.6892 37.727 60.5839 37.7902 60.5418 37.8674C60.4926 37.9376 60.4645 38.0499 60.4645 38.1131C60.4716 38.1974 60.5488 38.2184 60.7875 38.2184C61.0683 38.2184 61.1034 38.2044 61.1034 38.064C61.1034 37.9797 61.0683 37.8674 61.0192 37.8182ZM78.234 37.8674C78.1872 37.7738 78.0959 37.727 77.9602 37.727C77.8198 37.727 77.7215 37.7831 77.6653 37.8744C77.6162 37.9587 77.5811 38.1552 77.5811 38.3167C77.5881 38.4782 77.6092 38.7099 77.6302 38.8363C77.6583 38.9626 77.7355 39.096 77.8128 39.1311C77.89 39.1733 78.0164 39.1873 78.0936 39.1662C78.1849 39.1452 78.2621 39.0328 78.3183 38.8714C78.3604 38.7239 78.3744 38.4712 78.3534 38.3097C78.3253 38.1482 78.2761 37.9446 78.234 37.8674ZM100.911 37.8674C100.876 37.7902 100.771 37.727 100.679 37.727C100.595 37.727 100.476 37.7691 100.42 37.8112C100.37 37.8604 100.328 37.9727 100.335 38.057C100.349 38.2044 100.391 38.2184 100.665 38.2184C100.904 38.2184 100.981 38.1974 100.981 38.1131C100.981 38.057 100.953 37.9446 100.911 37.8674Z" fill="white"/>
</svg>
