<svg width="82" height="25" viewBox="0 0 82 25" fill="none" xmlns="http://www.w3.org/2000/svg">
<path fill-rule="evenodd" clip-rule="evenodd" d="M0.351349 20.3687L0.351349 24.0654L82.0001 24.0654V20.3687L0.351349 20.3687Z" fill="white"/>
<path d="M11.0945 0L15.4194 0L15.4194 16.671H11.0945L11.0945 9.92774L4.32498 9.92774L4.32498 16.671H0L0 0L4.32498 0L4.32498 6.4856L11.0945 6.4856L11.0945 0.000623926V0ZM30.2081 4.7767L30.2081 16.671H26.0478V15.0788C25.2804 16.2649 24.1437 16.8582 22.6394 16.8582C21.1195 16.8582 19.9834 16.4371 19.2309 15.5941C18.4947 14.7512 18.1266 13.4635 18.1266 11.7309L18.1266 4.77607L22.3811 4.77607L22.3811 11.8469C22.3811 13.018 22.8902 13.6032 23.9091 13.6032C24.5043 13.6032 24.9822 13.3923 25.3428 12.9706C25.7184 12.5494 25.9068 11.9873 25.9068 11.2848L25.9068 4.7767H30.2081ZM47.9579 4.44914C49.3367 4.44914 50.355 4.87029 51.0132 5.71319C51.687 6.55548 52.0239 7.84387 52.0239 9.57648V16.671H47.7695V9.69315C47.7695 8.99125 47.6603 8.484 47.4407 8.17142C47.2366 7.85946 46.8841 7.70349 46.3831 7.70349C45.7873 7.70349 45.325 7.92186 44.9962 8.3586C44.6667 8.79534 44.5026 9.41301 44.5026 10.2085V16.6716H40.2475V9.69315C40.2475 8.99125 40.1384 8.484 39.9187 8.17142C39.6997 7.85946 39.3472 7.70349 38.8612 7.70349C38.266 7.70349 37.8037 7.92186 37.4742 8.3586C37.161 8.79534 37.0044 9.41301 37.0044 10.2085V16.6716L32.75 16.6716V8.19513C32.75 6.91486 32.6876 5.77559 32.5621 4.77607L36.5577 4.77607L36.7698 6.43881C37.1172 5.81158 37.6397 5.29907 38.2735 4.96387C38.9317 4.62072 39.6835 4.44852 40.5302 4.44852C42.2378 4.44852 43.3977 5.16664 44.0091 6.6029C44.4281 5.95089 45.001 5.412 45.6775 5.03375C46.3745 4.64558 47.16 4.44399 47.9579 4.44852V4.44914ZM67.0628 4.7767V16.671H62.8788V15.0551C62.5338 15.6172 62.0328 16.0621 61.3746 16.3903C60.7163 16.7022 59.9957 16.8582 59.2121 16.8582C58.1932 16.8582 57.2842 16.6086 56.4856 16.1095C55.6863 15.6097 55.0593 14.8991 54.6051 13.9782C54.1665 13.0423 53.9468 11.9648 53.9468 10.7469C53.9468 9.51409 54.174 8.42161 54.6288 7.46889C55.083 6.5168 55.71 5.77559 56.5086 5.24463C57.3079 4.71431 58.2088 4.44852 59.2121 4.44852C59.9957 4.44852 60.7082 4.62009 61.3509 4.96387C62.0091 5.29143 62.5182 5.73628 62.8788 6.29843V4.77607L67.0628 4.77607V4.7767ZM60.5285 13.6974C61.2804 13.6974 61.86 13.4398 62.2674 12.925C62.6748 12.4097 62.8788 11.6678 62.8788 10.7002C62.8788 9.71686 62.6748 8.96754 62.2674 8.45218C61.86 7.92185 61.2804 7.65607 60.5285 7.65607C59.7923 7.65607 59.2121 7.92934 58.7891 8.47589C58.366 9.00622 58.1545 9.76365 58.1545 10.7469C58.1545 11.699 58.3579 12.4328 58.766 12.9481C59.1728 13.4473 59.7605 13.6968 60.5285 13.6968V13.6974ZM77.5833 4.44914C78.9933 4.44914 80.0434 4.87777 80.7328 5.73628C81.4378 6.57919 81.7903 7.85946 81.7903 9.57648V16.671H77.5358V9.76428C77.5358 9.02993 77.4104 8.50709 77.1596 8.19513C76.9094 7.86695 76.5176 7.70349 75.9848 7.70349C75.3422 7.70349 74.8249 7.92186 74.4331 8.3586C74.0413 8.78036 73.846 9.34251 73.846 10.0444V16.6716H69.5915V8.19513C69.5915 6.91486 69.5285 5.77559 69.4031 4.77607H73.3993L73.6108 6.5324C74.065 5.86106 74.629 5.34633 75.3029 4.98696C75.9767 4.62821 76.7366 4.44852 77.5833 4.44852V4.44914Z" fill="white"/>
</svg>
