<svg width="90" height="86" viewBox="0 0 90 86" fill="none" xmlns="http://www.w3.org/2000/svg">
<rect width="90" height="64.2857" fill="#FEDE00"/>
<path d="M61.9442 23.8387C60.5244 23.8387 58.8464 24.9681 56.9103 27.2269C52.3281 32.4545 48.4558 38.9728 45.2935 46.7818L30.9661 49.1052L28.7395 61.6901C31.6437 60.9156 34.5479 60.238 37.4521 59.6571C40.4208 59.0118 43.3573 58.3018 46.2615 57.5274V57.6242C46.3906 57.4951 46.5842 57.4306 46.8424 57.4306C47.1005 57.4306 47.2619 57.4306 47.3264 57.4306H48.3913C53.2961 57.4306 57.4911 56.7529 60.9761 55.3976C64.4612 54.0423 67.4945 52.1385 70.076 49.6861C72.722 47.2336 75.1099 44.3939 77.2397 41.1671C80.1439 36.7139 81.7896 32.6803 82.1768 29.0662C82.2414 28.5499 82.2736 28.0336 82.2736 27.5173C82.3382 26.9365 82.3704 26.3879 82.3704 25.8716C82.3704 25.0326 82.3059 24.2259 82.1768 23.4514C82.1123 22.677 82.0155 21.8702 81.8864 21.0313C81.6282 19.676 81.4024 18.2884 81.2088 16.8686C81.0151 15.3842 80.7893 13.8998 80.5311 12.4155C79.8212 8.02689 78.595 5.25176 76.8524 4.09008C75.8198 3.38016 74.5936 3.02521 73.1738 3.02521C72.3348 3.02521 71.5603 3.15428 70.8504 3.41243C69.3015 3.92873 67.7526 4.76773 66.2037 5.92941C64.7193 7.09109 63.3318 8.38184 62.041 9.80168C60.7503 11.2215 59.6208 12.5445 58.6528 13.7708C57.4266 15.3842 56.1681 17.0299 54.8773 18.7079C53.5866 20.3859 52.5862 22.2575 51.8763 24.3227C51.8763 24.3872 51.844 24.4195 51.7795 24.4195C51.7795 24.7422 52.0699 24.9035 52.6508 24.9035L52.7476 24.8067C53.393 24.8067 53.877 24.6454 54.1997 24.3227C54.9096 23.4837 55.6195 22.6447 56.3294 21.8057C57.0393 20.9667 57.717 20.0632 58.3624 19.0951C59.7177 17.159 61.4279 15.6746 63.4931 14.642C64.2676 14.3193 64.8807 14.158 65.3324 14.158C66.3005 14.158 67.1718 14.5129 67.9462 15.2229C68.7207 15.8682 69.237 16.4813 69.4951 17.0622C70.8504 19.8373 71.8508 22.9351 72.4961 26.3556C73.1415 29.7116 73.4642 33.3257 73.4642 37.198C73.4642 37.7143 73.4642 38.2629 73.4642 38.8437C73.4642 39.36 73.4319 39.8763 73.3674 40.3926C70.1405 42.4578 66.1392 43.9099 61.3634 44.7489C62.2669 43.0709 63.1059 41.4897 63.8803 40.0054C64.6548 38.4565 65.3647 36.9721 66.0101 35.5523C66.5909 34.3906 66.8814 33.2289 66.8814 32.0672C66.8814 31.1637 66.6555 30.0665 66.2037 28.7758C65.8165 27.485 65.2679 26.3556 64.558 25.3876C63.8481 24.355 62.9768 23.8387 61.9442 23.8387ZM50.6178 43.2968C50.6178 43.1032 50.6824 42.8128 50.8114 42.4255C51.9086 40.0376 53.2639 38.5533 54.8773 37.9724C55.0709 37.9079 55.2968 37.8756 55.555 37.8756C56.8457 37.8756 57.9429 39.1664 58.8464 41.7479L59.04 42.0383C57.362 43.5227 55.1677 44.6521 52.4571 45.4266H52.3603C52.1022 45.4266 51.7472 45.2007 51.2955 44.7489C50.8437 44.2326 50.6178 43.7486 50.6178 43.2968Z" fill="black"/>
<path d="M0.258545 81.0012C0.258545 81.4591 0.524433 81.7324 1.07837 81.7324C1.6323 81.7324 1.89819 81.4591 1.89819 81.0012V76.5845C1.89819 76.5845 2.48905 75.3954 3.67077 75.3954C4.66046 75.3954 5.23655 75.9789 5.23655 77.3379V81.0012C5.23655 81.4591 5.50983 81.7324 6.05637 81.7324C6.6103 81.7324 6.87619 81.4591 6.87619 81.0012V77.1237C6.87619 75.1369 5.81264 74.0734 4.07699 74.0734C2.57029 74.0734 1.86126 75.1 1.86126 75.1H1.8391C1.88341 74.7159 1.89819 74.3983 1.89819 74.0364V71.4588C1.89819 71.0009 1.6323 70.735 1.07837 70.735C0.524433 70.735 0.258545 71.0009 0.258545 71.4588V81.0012Z" fill="#1A0E43"/>
<path d="M13.3387 79.6644C13.3387 79.6644 12.7257 80.5802 11.6622 80.5802C10.835 80.5802 10.3918 80.1297 10.3918 79.5536C10.3918 78.9627 10.931 78.6451 12.0536 78.6451C12.807 78.6451 13.3387 78.8002 13.3387 78.8002V79.6644ZM13.3387 77.6924C13.3387 77.6924 12.7848 77.5447 11.8837 77.5447C9.94867 77.5447 8.72263 78.2537 8.72263 79.6201C8.72263 80.8756 9.66063 81.821 11.256 81.821C12.7626 81.821 13.5086 80.7944 13.5086 80.7944H13.5308C13.6563 81.3631 13.937 81.7472 14.4688 81.7472C14.9193 81.7472 15.1852 81.4887 15.1852 81.1341C15.1852 80.787 14.971 80.5654 14.971 79.2508V76.6584C14.971 74.9818 13.9961 74.0734 12.0315 74.0734C10.6577 74.0734 9.60893 74.4943 9.3135 74.7898C9.17317 74.9227 9.11408 75.063 9.11408 75.2477C9.11408 75.6022 9.33565 75.809 9.64586 75.809C10.0151 75.809 10.4804 75.3659 11.6696 75.3659C12.8882 75.3659 13.3387 75.8164 13.3387 76.9169V77.6924Z" fill="#1A0E43"/>
<path d="M17.3197 81.0012C17.3197 81.4591 17.5856 81.7324 18.1395 81.7324C18.6934 81.7324 18.9593 81.4591 18.9593 81.0012V76.5845C18.9593 76.5845 19.5502 75.3954 20.7319 75.3954C21.7216 75.3954 22.2977 75.9789 22.2977 77.3379V81.0012C22.2977 81.4591 22.5709 81.7324 23.1175 81.7324C23.6714 81.7324 23.9373 81.4591 23.9373 81.0012V77.1237C23.9373 75.1369 22.8738 74.0734 21.1381 74.0734C19.5059 74.0734 18.819 75.2329 18.819 75.2329H18.7894L18.723 74.7824C18.6639 74.3688 18.4423 74.1398 17.9992 74.1398C17.5634 74.1398 17.3197 74.3836 17.3197 74.8193V81.0012Z" fill="#1A0E43"/>
<path d="M27.8075 81.8875C27.2388 83.2095 26.5814 83.926 25.6877 83.926C25.4588 83.926 25.3185 83.8817 25.0821 83.8817C24.7202 83.8817 24.4986 84.1106 24.4986 84.4504C24.4986 84.6572 24.5651 84.827 24.698 84.96C24.8827 85.1446 25.2224 85.248 25.6582 85.248C27.4677 85.248 28.7085 84.0589 29.9198 80.8756L32.0321 75.3289C32.1355 75.0483 32.1577 74.9449 32.1577 74.8341C32.1577 74.3762 31.6998 74.1398 31.3083 74.1398C31.0941 74.1398 30.9169 74.2063 30.8061 74.3245C30.7027 74.4353 30.6436 74.5977 30.555 74.8562L29.0926 79.0809C28.8784 79.7013 28.7528 80.2257 28.7528 80.2257H28.7233C28.7233 80.2257 28.6051 79.7013 28.3835 79.0809L26.9064 74.9006C26.7956 74.583 26.7439 74.4426 26.6405 74.3319C26.5297 74.2137 26.3746 74.1398 26.1457 74.1398C25.7394 74.1398 25.2372 74.4131 25.2372 74.8932C25.2372 75.0187 25.2594 75.1147 25.3775 75.4397L27.8075 81.8875Z" fill="#1A0E43"/>
<path d="M37.8004 79.6644C37.8004 79.6644 37.1874 80.5802 36.1238 80.5802C35.2966 80.5802 34.8535 80.1297 34.8535 79.5536C34.8535 78.9627 35.3926 78.6451 36.5153 78.6451C37.2686 78.6451 37.8004 78.8002 37.8004 78.8002V79.6644ZM37.8004 77.6924C37.8004 77.6924 37.2465 77.5447 36.3454 77.5447C34.4103 77.5447 33.1843 78.2537 33.1843 79.6201C33.1843 80.8756 34.1223 81.821 35.7176 81.821C37.2243 81.821 37.9703 80.7944 37.9703 80.7944H37.9924C38.118 81.3631 38.3986 81.7472 38.9304 81.7472C39.381 81.7472 39.6468 81.4887 39.6468 81.1341C39.6468 80.787 39.4327 80.5654 39.4327 79.2508V76.6584C39.4327 74.9818 38.4577 74.0734 36.4931 74.0734C35.1194 74.0734 34.0706 74.4943 33.7752 74.7898C33.6348 74.9227 33.5757 75.063 33.5757 75.2477C33.5757 75.6022 33.7973 75.809 34.1075 75.809C34.4768 75.809 34.9421 75.3659 36.1312 75.3659C37.3499 75.3659 37.8004 75.8164 37.8004 76.9169V77.6924Z" fill="#1A0E43"/>
<path d="M42.0915 75.4471V81.0012C42.0915 81.4591 42.3574 81.7324 42.9114 81.7324C43.4579 81.7324 43.7312 81.4591 43.7312 81.0012V75.4471H46.8037V81.0012C46.8037 81.4591 47.0695 81.7324 47.6235 81.7324C48.17 81.7324 48.4433 81.4591 48.4433 81.0012V74.9596C48.4433 74.4648 48.1774 74.2063 47.6899 74.2063H43.7312V73.5342C43.7312 72.4928 44.2851 71.9389 45.5333 71.9389C46.7076 71.9389 46.9735 72.2491 47.3576 72.2491C47.6604 72.2491 47.9115 72.0201 47.9115 71.6582C47.9115 71.444 47.8524 71.3185 47.7195 71.1781C47.461 70.9196 46.7815 70.6611 45.7032 70.6611C43.2511 70.6611 42.0915 71.8207 42.0915 73.6302V74.2063H41.3751C41.0428 74.2063 40.8138 74.4353 40.8138 74.8267C40.8138 75.2255 41.0428 75.4471 41.3751 75.4471H42.0915Z" fill="#1A0E43"/>
<path d="M51.1465 75.4471V81.0012C51.1465 81.4591 51.4124 81.7324 51.9663 81.7324C52.5129 81.7324 52.7861 81.4591 52.7861 81.0012V75.4471H55.8586V81.0012C55.8586 81.4591 56.1245 81.7324 56.6784 81.7324C57.225 81.7324 57.4982 81.4591 57.4982 81.0012V74.9596C57.4982 74.4648 57.2324 74.2063 56.7449 74.2063H52.7861V73.5342C52.7861 72.4928 53.3401 71.9389 54.5882 71.9389C55.7626 71.9389 56.0285 72.2491 56.4125 72.2491C56.7154 72.2491 56.9665 72.0201 56.9665 71.6582C56.9665 71.444 56.9074 71.3185 56.7744 71.1781C56.5159 70.9196 55.8364 70.6611 54.7581 70.6611C52.306 70.6611 51.1465 71.8207 51.1465 73.6302V74.2063H50.4301C50.0977 74.2063 49.8687 74.4353 49.8687 74.8267C49.8687 75.2255 50.0977 75.4471 50.4301 75.4471H51.1465Z" fill="#1A0E43"/>
<path d="M70.961 73.3274C70.961 73.6376 70.9684 73.933 70.9832 74.2137L70.961 74.2211C70.961 74.2211 70.4662 74.066 69.8015 74.066C67.2386 74.066 65.7319 75.5727 65.7319 78.1429C65.7319 80.595 66.9579 81.821 68.7822 81.821C70.3923 81.821 71.1013 80.6541 71.1013 80.6541H71.1235L71.19 81.0972C71.2565 81.5182 71.478 81.7472 71.9138 81.7472C72.3495 81.7472 72.5933 81.5034 72.5933 81.0677V71.4588C72.5933 71.0009 72.3274 70.735 71.7735 70.735C71.2269 70.735 70.961 71.0009 70.961 71.4588V73.3274ZM70.961 79.3025C70.961 79.3025 70.3628 80.4916 69.1737 80.4916C68.1027 80.4916 67.4085 79.7899 67.4085 78.0026C67.4085 76.2595 68.3095 75.3585 69.6316 75.3585C70.4957 75.3585 70.961 75.6318 70.961 75.6318V79.3025Z" fill="#1A0E43"/>
<path d="M80.2154 78.2094C80.7767 78.2094 81.0869 77.8918 81.0869 77.264C81.0869 75.2625 79.8756 74.066 78.0809 74.066C75.9833 74.066 74.4766 75.5727 74.4766 78.1872C74.4766 80.4177 75.8873 81.821 78.1326 81.821C79.4399 81.821 80.2745 81.437 80.5477 81.1711C80.6955 81.016 80.7619 80.8756 80.7619 80.6762C80.7619 80.3882 80.5773 80.1518 80.2597 80.1518C79.8978 80.1518 79.4916 80.5137 78.4133 80.5137C77.0691 80.5137 76.1828 79.6792 76.1163 78.2463V78.2094H80.2154ZM76.1606 77.1015C76.3896 75.8386 77.0912 75.2772 77.911 75.2772C78.8712 75.2772 79.4177 75.8681 79.5507 77.1015H76.1606Z" fill="#1A0E43"/>
<path d="M84.2554 80.5581C84.4179 80.979 84.5582 81.2671 84.7207 81.437C84.9201 81.629 85.1786 81.7324 85.607 81.7324C86.0428 81.7324 86.3086 81.6216 86.4933 81.4296C86.6632 81.2671 86.7961 80.979 86.9586 80.5581L88.9528 75.3289C89.0562 75.0483 89.0783 74.9449 89.0783 74.8341C89.0783 74.3909 88.6204 74.1398 88.2289 74.1398C88.0074 74.1398 87.8375 74.2137 87.7267 74.3245C87.6233 74.4279 87.5642 74.5977 87.4682 74.8636L86.0058 79.0144C85.799 79.6127 85.6809 80.0706 85.6809 80.0706H85.6513C85.6513 80.0706 85.5405 79.6127 85.3263 79.0144L83.8418 74.9006C83.731 74.583 83.6719 74.4279 83.5685 74.3245C83.4577 74.2137 83.2952 74.1398 83.0663 74.1398C82.6601 74.1398 82.1578 74.4131 82.1578 74.8932C82.1578 75.0187 82.18 75.1147 82.2982 75.4397L84.2554 80.5581Z" fill="#1A0E43"/>
<circle cx="61.6388" cy="78.2773" r="1.89076" fill="#FEDE00"/>
</svg>
