<svg width="72" height="22" viewBox="0 0 72 22" fill="none" xmlns="http://www.w3.org/2000/svg">
<path fill-rule="evenodd" clip-rule="evenodd" d="M0.308594 18.3521L0.308594 21.5979L72 21.5979V18.3521L0.308594 18.3521Z" fill="white"/>
<path d="M9.74146 0.467529L13.539 0.467529L13.539 15.1055H9.74146V9.18456L3.79754 9.18456L3.79754 15.1055H0L0 0.467529L3.79754 0.467529L3.79754 6.16219L9.74146 6.16219L9.74146 0.468077V0.467529ZM26.5242 4.6617L26.5242 15.1055H22.8712V13.7074C22.1974 14.7488 21.1993 15.2698 19.8785 15.2698C18.544 15.2698 17.5464 14.9 16.8857 14.1599C16.2392 13.4198 15.916 12.2891 15.916 10.7678L15.916 4.66115L19.6517 4.66115V10.8697C19.6517 11.8979 20.0987 12.4118 20.9933 12.4118C21.5159 12.4118 21.9356 12.2266 22.2522 11.8563C22.582 11.4865 22.7474 10.9929 22.7474 10.3761V4.6617L26.5242 4.6617ZM42.1093 4.37409C43.32 4.37409 44.214 4.74387 44.792 5.48398C45.3837 6.22355 45.6795 7.35482 45.6795 8.87613V15.1055H41.9438V8.97858C41.9438 8.36227 41.848 7.91689 41.6551 7.64242C41.476 7.36851 41.1665 7.23155 40.7266 7.23155C40.2034 7.23155 39.7975 7.42329 39.5088 7.80677C39.2195 8.19025 39.0754 8.7326 39.0754 9.43108V15.106L35.3392 15.106V8.97858C35.3392 8.36227 35.2434 7.91689 35.0505 7.64242C34.8583 7.36851 34.5487 7.23155 34.122 7.23155C33.5993 7.23155 33.1934 7.42329 32.9042 7.80677C32.6291 8.19025 32.4916 8.7326 32.4916 9.43108V15.106H28.756L28.756 7.66324C28.756 6.5391 28.7012 5.53877 28.5911 4.66115L32.0994 4.66115L32.2857 6.12111C32.5906 5.57037 33.0494 5.12037 33.6059 4.82604C34.1839 4.52474 34.844 4.37354 35.5874 4.37354C37.0868 4.37354 38.1052 5.00409 38.6421 6.26519C39.01 5.69269 39.513 5.21952 40.107 4.8874C40.719 4.54657 41.4087 4.36956 42.1093 4.37354V4.37409ZM58.8843 4.6617V15.1055H55.2106V13.6866C54.9076 14.1802 54.4677 14.5708 53.8898 14.859C53.3118 15.1329 52.6791 15.2698 51.991 15.2698C51.0964 15.2698 50.2982 15.0507 49.597 14.6124C48.8952 14.1736 48.3447 13.5496 47.9458 12.7411C47.5607 11.9193 47.3679 10.9732 47.3679 9.90385C47.3679 8.82135 47.5673 7.8621 47.9667 7.02557C48.3655 6.18959 48.9161 5.53877 49.6173 5.07257C50.319 4.60691 51.1101 4.37354 51.991 4.37354C52.6791 4.37354 53.3047 4.52419 53.869 4.82604C54.4469 5.11365 54.8939 5.50425 55.2106 5.99785V4.66115L58.8843 4.66115V4.6617ZM53.1469 12.4945C53.8071 12.4945 54.316 12.2683 54.6737 11.8163C55.0314 11.3638 55.2106 10.7124 55.2106 9.86277C55.2106 8.99939 55.0314 8.34145 54.6737 7.88895C54.316 7.42329 53.8071 7.18992 53.1469 7.18992C52.5005 7.18992 51.991 7.42987 51.6196 7.90976C51.2481 8.37542 51.0624 9.04048 51.0624 9.90385C51.0624 10.7398 51.241 11.3841 51.5993 11.8366C51.9565 12.2749 52.4725 12.494 53.1469 12.494V12.4945ZM68.1218 4.37409C69.3599 4.37409 70.2819 4.75044 70.8872 5.50425C71.5063 6.24437 71.8158 7.36851 71.8158 8.87613V15.1055L68.0801 15.1055V9.04103C68.0801 8.39624 67.97 7.93716 67.7498 7.66324C67.5301 7.37508 67.1861 7.23155 66.7182 7.23155C66.154 7.23155 65.6998 7.42329 65.3558 7.80677C65.0118 8.1771 64.8403 8.6707 64.8403 9.287V15.106H61.1047V7.66324C61.1047 6.5391 61.0493 5.53877 60.9392 4.66115L64.448 4.66115L64.6338 6.20328C65.0326 5.61382 65.5278 5.16186 66.1195 4.84631C66.7111 4.53131 67.3784 4.37354 68.1218 4.37354V4.37409Z" fill="white"/>
</svg>
