<svg width="125" height="33" viewBox="0 0 125 33" fill="none" xmlns="http://www.w3.org/2000/svg">
<path fill-rule="evenodd" clip-rule="evenodd" d="M19.4194 0.0256204C20.8506 0.106905 22.2817 0.350758 23.1998 0.702991C24.0369 1.02813 25.333 1.84097 26.1701 2.59963C27.0072 3.35828 28.0333 4.60464 28.4923 5.52586C28.9784 6.3929 29.4914 7.80183 29.6804 8.61467C29.8965 9.69846 29.8965 10.5384 29.6804 11.7306C29.5184 12.6247 29.0864 14.0065 28.0603 16.2012L28.7353 18.0978C29.1134 19.1274 29.5184 20.8886 29.6534 21.9724C29.7884 23.0833 29.7884 24.6548 29.6534 25.6031C29.5184 26.5514 29.1944 27.7707 28.8974 28.3126C28.6273 28.8816 27.9523 29.7486 27.4122 30.2092C26.8722 30.6969 25.576 31.5369 24.5499 32.0517C23.0648 32.7832 22.3357 33 21.1746 33C20.3645 33 19.1224 32.7832 18.3933 32.5123C17.6912 32.2413 16.5301 31.6181 15.774 31.1033C15.045 30.5885 13.9379 29.6402 12.2637 27.9062L9.4284 27.7707C7.3492 27.6894 6.16108 27.4726 4.97296 27.012C3.94686 26.6327 2.92075 25.9553 2.19168 25.2238C1.4356 24.438 0.922553 23.571 0.625523 22.6227C0.382499 21.864 0.112472 20.2383 0.0584668 19.0462C-0.0765463 17.0411 -0.0225409 16.7702 0.706532 15.2529C1.21958 14.2504 2.08367 13.1124 2.97476 12.2996C3.78484 11.568 5.18898 10.5384 6.13408 9.9965C7.72724 9.07528 7.91626 8.88561 8.88835 6.85351C9.45541 5.66133 10.4005 4.14403 10.9676 3.49375C11.5346 2.84348 12.5337 2.00354 13.2088 1.59712C13.8839 1.21779 15.045 0.675895 15.774 0.404947C16.8001 0.0527147 17.6912 -0.0556643 19.4194 0.0256204ZM15.639 3.65632C15.126 3.95436 14.3159 4.68592 13.8299 5.25491C13.3708 5.851 12.5877 7.15155 12.0747 8.20825C11.2376 10.0236 11.1836 10.2404 11.1836 13.2208C11.1836 15.4155 11.3186 16.7973 11.6696 17.8811L12.1287 19.4526C13.6948 19.2087 14.3699 19.1004 14.6399 19.0191C15.072 18.9107 15.045 18.8023 14.4239 17.4747C14.0459 16.6889 13.6678 15.28 13.5868 14.3046C13.4518 12.9227 13.5328 12.137 13.9649 10.6468C14.3969 9.15656 14.7749 8.47919 15.747 7.44959C16.6111 6.58256 17.3402 6.09485 18.1233 5.87809C18.7713 5.71553 19.7164 5.66134 20.2295 5.76972C20.7425 5.8781 21.6876 6.23033 22.3357 6.60966C23.0108 6.98898 23.7938 7.80183 24.2799 8.53339C24.7389 9.26495 25.171 10.3758 25.279 11.0532C25.387 11.8119 25.8461 12.8415 26.4941 13.7627L27.5202 15.2529C28.2763 13.4646 28.4383 12.3267 28.4383 10.9177C28.4383 9.12947 28.3303 8.53339 27.7362 7.3954C27.3582 6.63675 26.3861 5.44458 25.603 4.74012C24.793 4.00856 23.4968 3.19571 22.7137 2.89767C21.9577 2.62672 20.6615 2.38287 19.8785 2.38287C19.1224 2.40996 18.0423 2.54544 17.5292 2.7351C17.0162 2.92476 16.1521 3.33118 15.639 3.65632ZM10.9676 5.90519C10.5085 6.58256 9.91446 7.80182 9.64443 8.61467C9.3204 9.5088 9.05037 11.27 8.96936 12.9498C8.88835 14.5755 8.94236 16.6347 9.13138 17.7456L9.42841 19.7235C10.8866 19.7235 11.3186 19.6422 11.3186 19.5068C11.3186 19.3984 11.0756 18.3959 10.7785 17.285C10.4815 16.1741 10.1575 14.3859 10.0765 13.3563C9.99546 12.2996 10.0495 10.7281 10.2115 9.83393C10.3735 8.9398 10.8325 7.53088 11.2376 6.71803C11.6426 5.90519 12.5067 4.65883 13.1548 3.92727C13.8028 3.2228 14.2889 2.65381 14.2349 2.65381C14.1809 2.65381 13.5868 3.11443 12.9388 3.65632C12.2907 4.22531 11.3996 5.22782 10.9676 5.90519ZM19.6084 8.56048C20.5535 8.88562 21.3096 9.07528 21.3096 8.93981C21.3096 8.83143 21.0396 8.47919 20.7155 8.15406C20.3645 7.80182 19.8515 7.55797 19.5544 7.55797C19.2574 7.55797 18.7713 7.66635 18.4743 7.77473C18.0423 7.9373 18.2583 8.09987 19.6354 8.56048L19.6084 8.56048ZM15.8821 10.3758C15.8821 10.4571 16.3411 10.6468 16.9082 10.8093C17.4482 10.999 18.3933 11.3783 18.9874 11.6764C19.5814 11.9744 20.7155 12.8415 21.4986 13.6001C22.3087 14.3588 23.3618 15.6593 23.8479 16.4722C24.3339 17.285 25.063 18.8836 25.495 19.9945C26.1161 21.7015 26.2241 22.4601 26.2511 24.8715C26.2781 26.443 26.1971 28.15 26.0891 28.6648L25.8731 29.6131C26.9262 28.3397 27.4122 27.3643 27.6552 26.6327C28.0063 25.6031 28.0873 24.6006 27.9793 22.433C27.8983 20.428 27.6822 19.0733 27.2502 17.8269C26.8992 16.8515 26.1161 15.28 25.468 14.3046C24.847 13.3292 23.6588 11.9473 22.8758 11.2429C22.0657 10.5113 20.8236 9.72555 20.0675 9.45461C19.3384 9.18366 18.3393 8.85852 17.9073 8.77724C17.1782 8.61467 16.9892 8.72305 16.4761 9.42751C16.1521 9.86103 15.8821 10.2945 15.8821 10.3758ZM23.4428 10.6468C23.7668 10.9448 23.9829 11.0532 23.9829 10.9177C23.9829 10.7823 23.7398 10.2404 23.4428 9.75265C23.1458 9.29204 22.8758 8.88562 22.8218 8.88562C22.7677 8.88562 22.7677 9.15657 22.8218 9.4817C22.8758 9.83394 23.1458 10.3487 23.4428 10.6468ZM2.75874 15.2529C2.3807 16.0657 2.11067 17.0953 2.11067 17.8269C2.08367 18.6397 2.27269 19.29 2.65073 19.7777C2.94776 20.2112 3.94686 20.8886 4.86495 21.3492C5.94506 21.864 7.32219 22.2433 8.59132 22.3788C9.69843 22.5143 11.3996 22.5414 12.3717 22.4059C13.3438 22.2975 14.7209 21.9995 15.477 21.7556C16.2061 21.5118 17.4212 20.9428 18.1773 20.5364C18.9064 20.13 19.7164 19.5881 19.9325 19.3171C20.2835 18.9378 20.2835 18.8294 19.9325 18.4772C19.5814 18.0978 19.3924 18.152 18.1773 18.9107C17.4212 19.3713 16.1521 19.9945 15.342 20.2925C14.1809 20.7531 13.2628 20.8615 11.1566 20.8344C9.02337 20.8344 8.21328 20.6989 7.3762 20.2925C6.78214 19.9945 6.08007 19.3442 5.78304 18.8565C5.48601 18.3146 5.29699 17.5018 5.29699 16.7431C5.324 15.9574 5.59402 15.1174 6.02607 14.3588C6.4041 13.7356 6.89015 13.1666 7.10617 13.0853C7.3492 13.004 7.59222 12.4621 7.67323 11.7848C7.78124 11.1616 7.80825 10.4571 7.72724 10.2404C7.64623 9.96941 6.97116 10.4571 5.51302 11.866C4.27089 13.0853 3.16378 14.44 2.75874 15.2529ZM15.072 14.0878C15.072 15.0361 15.126 15.1174 15.9361 15.2529C16.4221 15.3071 17.5562 15.7406 18.4473 16.1741C19.4194 16.6347 20.5265 17.4747 21.2286 18.2875C22.0117 19.1545 22.5517 20.0758 22.8217 21.0783C23.0918 22.0537 23.1728 23.0291 23.0648 23.9232C22.9838 24.6548 22.6867 25.6844 22.4167 26.1992C22.1737 26.6869 21.5256 27.3372 21.0126 27.6352C20.3105 28.0145 19.7704 28.0958 18.9874 27.9874C18.3933 27.9062 17.5292 27.6081 17.0972 27.3372C16.3681 26.8766 16.1791 26.8495 14.937 27.2017C14.1809 27.4185 13.5598 27.6352 13.5058 27.7165C13.4788 27.7978 13.7758 28.0958 14.1809 28.3668C14.6129 28.6648 15.72 29.2609 16.6921 29.7215C17.7452 30.2092 19.0954 30.6156 20.0675 30.6969C21.3366 30.8324 21.9037 30.7511 22.6057 30.3718C23.1188 30.1008 23.7668 29.586 24.0369 29.2067C24.3069 28.8274 24.6579 27.852 24.847 27.0391C25.09 25.8199 25.09 25.0612 24.7119 22.8394C24.4149 20.9157 24.0099 19.561 23.3348 18.2333C22.8218 17.2037 21.7956 15.6593 21.0666 14.8465C20.3375 14.0336 19.0684 12.9769 18.2853 12.4892C17.4752 12.0286 16.5301 11.5409 16.1521 11.4596C15.531 11.2971 15.45 11.3783 15.261 12.1912C15.153 12.6789 15.072 13.5459 15.072 14.0878ZM6.83615 16.2012C6.72814 16.716 6.72814 17.4205 6.80914 17.7456L6.97116 18.3688C7.97026 17.0953 8.02427 16.8244 7.83525 15.4426C7.61923 14.0336 7.56522 13.9523 7.3222 14.5755C7.16018 14.9548 6.94416 15.6864 6.83615 16.2012ZM15.747 17.6101L16.1521 18.9107C17.9343 18.0978 18.4743 17.7185 18.5013 17.5559C18.5553 17.4205 18.1233 17.0682 17.5562 16.7702C17.0162 16.4993 16.2871 16.1741 15.9631 16.0928C15.666 15.9845 15.369 15.9845 15.369 16.1199C15.342 16.2283 15.531 16.9057 15.747 17.6101ZM19.9325 20.5906C19.5544 20.8886 18.3933 21.566 17.3672 22.0537C16.3141 22.5414 14.8019 23.1375 13.9919 23.3542C13.1818 23.571 11.6426 23.8148 10.6165 23.9232C9.48241 24.0316 7.91625 23.9774 6.70113 23.7877C5.59402 23.6252 4.10887 23.2188 3.4338 22.8936C2.48871 22.433 2.21868 22.4059 2.3807 22.704C2.51571 22.9207 2.94776 23.4355 3.3798 23.8419C3.78484 24.2484 4.72993 24.8444 5.48601 25.1696C6.21508 25.4947 7.75424 25.9282 8.86135 26.145C10.1305 26.3888 11.4806 26.4701 12.5067 26.3347C13.3978 26.2534 15.045 25.874 16.1521 25.5218C17.2592 25.1696 18.8524 24.4651 19.6624 23.9774C20.7155 23.3542 21.1746 22.8936 21.2286 22.4059C21.2826 22.0537 21.1476 21.3763 20.9586 20.8886L20.5805 20.0216L19.9325 20.5906ZM17.9343 26.3618C19.6354 26.4972 20.2295 26.3889 20.4185 26.1721C20.6345 25.9824 20.7695 25.7386 20.7695 25.6302C20.7695 25.4947 20.4725 25.4134 20.1485 25.4134C19.8244 25.4405 19.1764 25.6573 18.7443 25.9011L17.9343 26.3618ZM116.629 11.3242C117.412 11.2971 118.06 11.4867 118.519 11.8119C119.167 12.3267 119.194 12.3267 120.004 11.839C120.437 11.5409 121.247 11.3242 121.814 11.3242C122.381 11.3242 123.137 11.4867 123.542 11.6493C123.92 11.839 124.406 12.3267 124.622 12.7331C124.892 13.275 125 14.6297 125 21.3492L122.3 21.3492L122.3 18.0166C122.3 15.7135 122.192 14.6026 121.949 14.3588C121.76 14.1691 121.328 14.0336 121.004 14.0336C120.68 14.0336 120.221 14.0878 120.004 14.1691C119.653 14.2775 119.599 14.9278 119.599 21.3492L116.629 21.3492L116.629 18.0166C116.629 15.7135 116.521 14.6026 116.278 14.3588C116.089 14.1691 115.657 14.0336 115.333 14.0336C115.009 14.0336 114.55 14.0878 114.334 14.1691C113.983 14.2775 113.929 14.9278 113.929 21.0783L110.959 21.0783L110.959 11.5951L111.958 11.568C112.552 11.568 113.119 11.7306 113.308 11.9744C113.605 12.3538 113.74 12.3538 114.523 11.8661C115.036 11.5409 115.9 11.3242 116.629 11.3242ZM82.6057 8.61468L83.4698 8.61468C83.9559 8.61468 84.5769 8.75015 84.847 8.93982C85.09 9.12948 85.414 9.80685 85.7111 11.5951L88.2763 11.5951L88.2763 13.7627L85.576 13.7627L85.576 16.3367C85.576 18.7752 85.6031 18.9107 86.1701 19.0733C86.4941 19.1546 87.0612 19.0733 87.4122 18.8565C87.9253 18.5585 88.0603 18.5585 88.2763 18.9107C88.4113 19.1275 88.5193 19.5881 88.5193 19.9132C88.5193 20.2654 88.2493 20.7261 87.9253 20.9428C87.5742 21.1867 86.7102 21.3492 85.9001 21.3492C85.117 21.3492 84.2529 21.2138 83.9559 21.0783C83.6589 20.9157 83.2268 20.3738 83.0108 19.859C82.6868 19.1275 82.6057 17.7456 82.6057 13.7627L82.6057 8.61468ZM39.6714 11.3242C40.1845 11.3242 40.9946 11.568 41.4806 11.866C41.9667 12.1641 42.5607 12.8144 42.8308 13.275C43.1818 13.9253 43.2898 14.7652 43.2898 16.3367C43.2898 17.8269 43.1278 18.7752 42.8308 19.3713C42.5607 19.859 42.0207 20.5093 41.6156 20.8344C41.0216 21.2679 40.5895 21.3763 39.5364 21.295C38.7804 21.2138 37.9703 21.1054 37.7002 20.997C37.2682 20.8344 37.2412 21.0241 37.2412 25.4134L34.5409 25.4134L34.5409 11.5951L35.351 11.5951C35.7831 11.5951 36.4041 11.7035 36.7011 11.866C37.0792 12.0557 37.4302 12.0286 37.9703 11.7306C38.3753 11.5138 39.1314 11.3242 39.6714 11.3242ZM37.4572 16.3909C37.4842 18.5043 37.5382 18.6668 38.1863 18.9649C38.7263 19.2358 38.9964 19.2358 39.5364 18.9649C39.9955 18.7481 40.2925 18.2604 40.4815 17.4747C40.6435 16.8515 40.6975 15.9574 40.5895 15.5238C40.4815 15.0632 40.2115 14.4942 39.9685 14.2233C39.7254 13.9523 39.1584 13.7356 38.6993 13.7627C38.2403 13.7627 37.7542 13.844 37.6462 13.9523C37.5112 14.0336 37.4302 15.1445 37.4572 16.3909ZM49.9325 11.5138C50.4455 11.5951 51.2286 11.866 51.6876 12.1099C52.1197 12.3538 52.6867 12.9769 52.9568 13.4917C53.2268 14.0065 53.4428 15.009 53.4428 17.0141L50.6075 17.0141C47.7723 17.0141 47.7723 17.0141 47.9343 17.6101C48.0153 17.9624 48.2853 18.4501 48.5283 18.721C48.7714 18.992 49.3384 19.1816 49.7975 19.1816C50.2295 19.1816 50.9856 18.9378 52.3627 18.0979L52.7678 18.6939C52.9838 19.0462 53.1728 19.5339 53.1728 19.7777C53.1728 20.0487 52.8218 20.5093 52.4167 20.8073C51.8497 21.2408 51.2826 21.3763 49.8515 21.3492C48.8524 21.3492 47.6372 21.1867 47.1512 20.997C46.6651 20.8073 45.9631 20.2112 45.612 19.6964C45.072 18.9649 44.91 18.3688 44.829 16.8786C44.7479 15.4155 44.829 14.7381 45.234 13.9253C45.504 13.3563 46.0981 12.6247 46.5571 12.2996C46.9892 12.0015 47.7183 11.6764 48.1773 11.568C48.6093 11.4596 49.3924 11.4325 49.9325 11.5138ZM47.7182 14.9278C47.7453 15.3071 48.0693 15.3884 49.2574 15.3884C50.4725 15.3884 50.7426 15.3071 50.7426 14.9007C50.7426 14.6568 50.5265 14.2233 50.2565 13.9794C50.0135 13.7085 49.5274 13.4917 49.2304 13.4917C48.9064 13.4917 48.4203 13.7085 48.1503 13.9794C47.8803 14.2504 47.6912 14.6839 47.7182 14.9278ZM59.6534 11.3242C60.0045 11.3242 60.5715 11.4867 60.8686 11.7035C61.3276 12.0286 61.3546 12.2183 61.1116 13.1124C60.8416 14.1691 60.8416 14.1691 59.5724 14.0878C58.5193 14.0336 58.2493 14.142 58.0333 14.5755C57.8713 14.8736 57.7633 16.4451 57.7633 21.0783L55.063 21.0783L55.063 11.5951L55.9271 11.5951C56.4131 11.5951 56.9802 11.7035 57.2232 11.839C57.4662 11.9744 57.8713 11.9202 58.3033 11.7035C58.6543 11.4867 59.2754 11.3242 59.6534 11.3242ZM67.5112 11.3783C68.4023 11.4325 68.9694 11.6493 69.5094 12.137C69.9145 12.5163 70.4005 13.2208 70.6165 13.6814C70.8056 14.1691 70.9946 15.28 70.9676 16.1199C70.9676 16.987 70.8596 18.152 70.6975 18.6939C70.5625 19.2629 70.0765 20.0758 69.6174 20.5364C68.9154 21.2138 68.5643 21.3492 67.4572 21.3492C66.7282 21.3492 65.8911 21.2138 65.594 21.0783C65.054 20.8073 65.054 20.8886 65.054 25.4134L62.0837 25.4134L62.0837 11.5951L63.0828 11.5951C63.6498 11.5951 64.2169 11.7306 64.3789 11.8931C64.5679 12.0828 64.865 12.0557 65.459 11.7577C65.9451 11.4867 66.7552 11.3513 67.5112 11.3783ZM65 16.3638C65.027 18.5043 65.081 18.6668 65.7291 18.9649C66.2691 19.2358 66.5391 19.2358 67.0792 18.9649C67.4302 18.8023 67.8623 18.3417 68.0243 17.9624C68.1593 17.5831 68.2943 16.8515 68.2943 16.3367C68.2943 15.8219 68.1053 15.009 67.8893 14.5755C67.5382 13.8982 67.3222 13.7627 66.5931 13.7898C66.1071 13.7898 65.54 13.8711 65.324 13.9524C65.027 14.0607 64.946 14.5755 65 16.3638ZM77.4752 11.5138C77.9883 11.5951 78.7714 11.8661 79.1764 12.1099C79.6084 12.3538 80.2025 12.9769 80.4725 13.4917C80.7696 14.0336 80.9856 14.982 80.9856 17.0141L78.1503 17.0141C76.0441 17.0141 75.288 17.0953 75.288 17.3392C75.288 17.5289 75.531 18.0166 75.8281 18.423C76.2331 18.992 76.6111 19.1816 77.2592 19.1816C77.7453 19.1816 78.5283 18.9378 79.9055 18.0979L80.3105 18.6939C80.5265 19.0462 80.7156 19.5339 80.7156 19.7777C80.7156 20.0487 80.3645 20.5093 79.9595 20.8344C79.3114 21.3221 78.9064 21.3763 77.0162 21.295C75.288 21.2409 74.6399 21.0783 74.0459 20.6448C73.6138 20.3196 73.0468 19.6694 72.7498 19.1546C72.3987 18.5043 72.2367 17.6914 72.2097 16.4722C72.2097 15.1987 72.3717 14.4672 72.7498 13.7898C73.0468 13.275 73.5868 12.6247 73.9649 12.3538C74.3159 12.0828 75.045 11.7306 75.585 11.6222C76.0981 11.4867 76.9352 11.4325 77.4752 11.5138ZM75.288 15.0361C75.288 15.28 75.7741 15.3884 76.8002 15.3884C78.0963 15.3884 78.2853 15.3342 78.2853 14.8465C78.2853 14.5484 78.0963 14.1149 77.8803 13.8982C77.6372 13.6814 77.1782 13.4917 76.8002 13.4917C76.4221 13.4917 75.9361 13.7627 75.6931 14.0878C75.45 14.413 75.261 14.8465 75.288 15.0361ZM89.6264 11.5951L90.5715 11.5951C91.1386 11.5951 91.7057 11.8119 92.0567 12.137C92.5157 12.5976 92.5967 13.0311 92.5967 15.3884C92.5967 16.8786 92.6508 18.2875 92.7318 18.5043C92.8128 18.7481 93.1908 18.9107 93.6769 18.9107C94.1089 18.9107 94.73 18.7752 95.027 18.6398C95.513 18.3959 95.567 18.0979 95.567 11.5951L96.5121 11.5951C97.0252 11.5951 97.6193 11.7848 97.8623 12.0015C98.1863 12.3267 98.2673 13.2479 98.2673 21.0783L96.9172 21.0783C96.1611 21.0783 95.567 20.9428 95.567 20.8073C95.567 20.6448 95.189 20.7261 94.757 20.9428C94.2979 21.1596 93.3258 21.3492 92.5967 21.3492C91.4356 21.3492 91.1116 21.2138 89.6264 19.7235L89.6264 11.5951ZM100.158 11.5951L101.103 11.5951C101.616 11.5951 102.291 11.7035 102.588 11.8661C103.074 12.1099 103.128 12.408 103.128 14.8465C103.128 16.3367 103.236 17.854 103.398 18.2333C103.587 18.7481 103.857 18.9107 104.478 18.9107C104.91 18.9107 105.45 18.8565 105.693 18.7752C106.017 18.6669 106.098 18.0166 106.098 11.5951L107.097 11.5951C107.691 11.5951 108.312 11.8119 108.582 12.0828C109.014 12.4892 109.068 13.0582 109.068 21.0783L107.718 21.0783C106.962 21.0783 106.287 20.9428 106.233 20.8073C106.125 20.6448 105.855 20.699 105.477 20.9428C105.153 21.1596 104.289 21.3492 103.587 21.3492C102.885 21.3492 101.94 21.1596 101.508 20.9428C100.914 20.6448 100.617 20.2383 100.428 19.5068C100.266 18.9649 100.158 16.9599 100.158 15.0361L100.158 11.5951Z" fill="white"/>
</svg>
