<svg width="55" height="51" viewBox="0 0 55 51" fill="none" xmlns="http://www.w3.org/2000/svg">
<rect width="54.2553" height="38.8029" fill="#FEDE00"/>
<path d="M37.4975 14.2653C36.643 14.2653 35.633 14.9463 34.4678 16.3081C31.7099 19.4598 29.3793 23.3897 27.476 28.0978L18.8529 29.4985L17.5128 37.0859C19.2607 36.619 21.0087 36.2105 22.7566 35.8603C24.5434 35.4712 26.3107 35.0432 28.0587 34.5762V34.6346C28.1364 34.5568 28.2529 34.5179 28.4083 34.5179C28.5636 34.5179 28.6607 34.5179 28.6996 34.5179H29.3405C32.2926 34.5179 34.8173 34.1093 36.9149 33.2922C39.0124 32.4751 40.838 31.3273 42.3917 29.8487C43.9843 28.3701 45.4215 26.6581 46.7033 24.7126C48.4512 22.0278 49.4417 19.596 49.6748 17.417C49.7136 17.1058 49.733 16.7945 49.733 16.4832C49.7719 16.133 49.7913 15.8023 49.7913 15.491C49.7913 14.9852 49.7525 14.4988 49.6748 14.0319C49.6359 13.565 49.5777 13.0786 49.5 12.5728C49.3446 11.7557 49.2087 10.9191 49.0921 10.0631C48.9756 9.16817 48.8397 8.27324 48.6843 7.37832C48.257 4.73246 47.519 3.05934 46.4702 2.35896C45.8487 1.93095 45.1107 1.71695 44.2562 1.71695C43.7512 1.71695 43.2851 1.79477 42.8578 1.95041C41.9256 2.26168 40.9934 2.76751 40.0611 3.46789C39.1678 4.16826 38.3326 4.94646 37.5558 5.80247C36.7789 6.65849 36.0992 7.45614 35.5165 8.19543C34.7785 9.16817 34.0211 10.1604 33.2442 11.172C32.4673 12.1837 31.8653 13.3121 31.438 14.5572C31.438 14.5961 31.4186 14.6155 31.3797 14.6155C31.3797 14.8101 31.5545 14.9074 31.9041 14.9074L31.9624 14.849C32.3508 14.849 32.6421 14.7517 32.8364 14.5572C33.2636 14.0513 33.6909 13.5455 34.1182 13.0397C34.5454 12.5339 34.9533 11.9891 35.3417 11.4055C36.1574 10.2382 37.1868 9.34326 38.4297 8.7207C38.8959 8.52616 39.2649 8.42888 39.5368 8.42888C40.1194 8.42888 40.6438 8.64289 41.1099 9.07089C41.576 9.45999 41.8868 9.82963 42.0421 10.1798C42.8578 11.8529 43.4599 13.7206 43.8483 15.7828C44.2368 17.8061 44.431 19.9851 44.431 22.3197C44.431 22.6309 44.431 22.9617 44.431 23.3119C44.431 23.6231 44.4116 23.9344 44.3727 24.2457C42.4306 25.4908 40.0223 26.3663 37.1479 26.8721C37.6917 25.8605 38.1967 24.9072 38.6628 24.0122C39.1289 23.0784 39.5562 22.1835 39.9446 21.3275C40.2942 20.6271 40.469 19.9267 40.469 19.2263C40.469 18.6816 40.333 18.0201 40.0611 17.2419C39.8281 16.4637 39.4979 15.7828 39.0707 15.1992C38.6434 14.5766 38.119 14.2653 37.4975 14.2653ZM30.6806 25.9966C30.6806 25.8799 30.7194 25.7048 30.7971 25.4714C31.4574 24.0317 32.2731 23.1368 33.2442 22.7866C33.3607 22.7477 33.4967 22.7282 33.6521 22.7282C34.4289 22.7282 35.0892 23.5064 35.633 25.0628L35.7496 25.2379C34.7397 26.1328 33.419 26.8138 31.7876 27.2807H31.7293C31.574 27.2807 31.3603 27.1445 31.0884 26.8721C30.8165 26.5608 30.6806 26.269 30.6806 25.9966Z" fill="black"/>
<path d="M2.24428 44.8291C1.64946 44.8291 1.15167 45.1899 1.07152 45.4647V42.6516H0V48.2941H1.07152V46.4652C1.07152 45.9526 1.49759 45.5836 1.92789 45.5836C2.35818 45.5836 2.63661 45.8501 2.63661 46.3996V48.2941H3.70813V46.2233C3.70813 45.2309 2.953 44.8291 2.24428 44.8291Z" fill="white"/>
<path d="M7.87238 48.2941H8.91859V44.9275H7.86395V45.4729C7.76692 45.2432 7.33241 44.8291 6.64056 44.8291C5.6492 44.8291 4.94048 45.5918 4.94048 46.6129C4.94048 47.6339 5.6492 48.3925 6.64056 48.3925C7.3535 48.3925 7.80067 47.8923 7.87238 47.7036V48.2941ZM5.98668 46.6129C5.98668 46.047 6.42963 45.6533 6.93164 45.6533C7.4674 45.6533 7.85551 46.0552 7.85551 46.6129C7.85551 47.1746 7.4674 47.5683 6.93164 47.5683C6.42963 47.5683 5.98668 47.1828 5.98668 46.6129Z" fill="white"/>
<path d="M12.5994 44.8291C12.013 44.8291 11.511 45.1899 11.4266 45.4647V44.9275H10.3635V48.2941H11.4266V46.4652C11.4266 45.9526 11.8358 45.5836 12.2661 45.5836C12.6964 45.5836 12.9959 45.8501 12.9959 46.3996V48.2941H14.0632V46.2233C14.0632 45.2309 13.3081 44.8291 12.5994 44.8291Z" fill="white"/>
<path d="M17.1065 47.3838L16.1784 44.9275H15.1111L16.5497 48.2941L15.7523 50H16.8239L19.1863 44.9275H18.1358L17.1065 47.3838Z" fill="white"/>
<path d="M22.9673 48.2941H24.0135V44.9275H22.9589V45.4729C22.8618 45.2432 22.4273 44.8291 21.7355 44.8291C20.7441 44.8291 20.0354 45.5918 20.0354 46.6129C20.0354 47.6339 20.7441 48.3925 21.7355 48.3925C22.4484 48.3925 22.8956 47.8923 22.9673 47.7036V48.2941ZM21.0816 46.6129C21.0816 46.047 21.5245 45.6533 22.0266 45.6533C22.5623 45.6533 22.9504 46.0552 22.9504 46.6129C22.9504 47.1746 22.5623 47.5683 22.0266 47.5683C21.5245 47.5683 21.0816 47.1828 21.0816 46.6129Z" fill="white"/>
<path d="M25.1681 44.9275V45.7886H25.7925V48.2941H26.8556V45.7886H27.7626V44.9275H26.8556V44.1114C26.8556 43.5538 27.0918 43.4348 27.3112 43.4348C27.5263 43.4348 27.6487 43.5538 27.6824 43.5907L28.0958 42.8238C28.0241 42.7582 27.7372 42.5532 27.1804 42.5532C26.4928 42.5532 25.7925 43.0125 25.7925 44.013V44.9275H25.1681Z" fill="white"/>
<path d="M29.4885 44.054C29.8386 44.054 30.1255 43.7793 30.1255 43.443C30.1255 43.1068 29.8302 42.8279 29.4885 42.8279C29.1426 42.8279 28.8641 43.1109 28.8641 43.443C28.8641 43.7793 29.1426 44.054 29.4885 44.054ZM28.9443 48.2941H30.0074V44.9275H28.9443V48.2941Z" fill="white"/>
<path d="M31.29 44.9275V45.7886H31.9144V48.2941H32.9774V45.7886H33.8844V44.9275H32.9774V44.1114C32.9774 43.5538 33.2137 43.4348 33.433 43.4348C33.6482 43.4348 33.7705 43.5538 33.8043 43.5907L34.2177 42.8238C34.146 42.7582 33.8591 42.5532 33.3023 42.5532C32.6146 42.5532 31.9144 43.0125 31.9144 44.013V44.9275H31.29Z" fill="white"/>
<path d="M35.6103 44.054C35.9605 44.054 36.2474 43.7793 36.2474 43.443C36.2474 43.1068 35.9521 42.8279 35.6103 42.8279C35.2644 42.8279 34.986 43.1109 34.986 43.443C34.986 43.7793 35.2644 44.054 35.6103 44.054ZM35.0661 48.2941H36.1292V44.9275H35.0661V48.2941Z" fill="white"/>
<path d="M41.9282 44.8291C41.152 44.8291 40.4517 45.1694 40.4517 45.8009C40.4517 46.4734 41.0592 46.7236 41.5401 46.8302C41.9282 46.9163 42.2066 47.0106 42.2066 47.2649C42.2066 47.4986 41.9493 47.6462 41.5485 47.6462C41.1562 47.6462 40.7934 47.4535 40.6457 47.3264L40.2829 48.0194C40.4306 48.1424 40.9031 48.3925 41.6371 48.3925C42.3838 48.3925 43.2613 48.1424 43.2613 47.2608C43.2613 46.5841 42.6791 46.3627 42.1433 46.2479C41.7215 46.1577 41.4684 46.0429 41.4684 45.8296C41.4684 45.6164 41.7215 45.5098 42.0421 45.5098C42.4007 45.5098 42.7171 45.6656 42.8267 45.7517L43.1938 45.1284C43.0672 45.0341 42.5441 44.8291 41.9282 44.8291Z" fill="white"/>
<path d="M45.2013 44.054C45.5515 44.054 45.8383 43.7793 45.8383 43.443C45.8383 43.1068 45.543 42.8279 45.2013 42.8279C44.8554 42.8279 44.577 43.1109 44.577 43.443C44.577 43.7793 44.8554 44.054 45.2013 44.054ZM44.6571 48.2941H45.7202V44.9275H44.6571V48.2941Z" fill="white"/>
<path d="M46.9986 44.9275V45.7886H47.623V47.2936C47.623 48.0481 48.0828 48.3925 48.7198 48.3925C49.2514 48.3925 49.6479 48.1957 49.707 48.1424L49.3315 47.4002C49.3104 47.4289 49.1881 47.5232 49.0109 47.5232C48.7831 47.5232 48.6776 47.3387 48.6776 47.0147V45.7886H49.5003V44.9275H48.6776V43.5456H47.623V44.9275H46.9986Z" fill="white"/>
<path d="M51.6567 46.8466H54.2427C54.2553 46.8056 54.2553 46.6252 54.2553 46.58C54.2553 45.4524 53.5635 44.8291 52.4709 44.8291C51.3065 44.8291 50.6316 45.5877 50.6316 46.5718C50.6316 47.7118 51.412 48.3925 52.5552 48.3925C53.458 48.3925 53.8799 48.1547 54.1203 47.8677L53.6689 47.2197C53.5213 47.3961 53.1627 47.6216 52.6227 47.6216C52.0153 47.6216 51.6736 47.2977 51.6567 46.8466ZM53.2344 46.1987H51.682C51.7073 45.9157 51.9478 45.5631 52.4835 45.5631C53.0151 45.5631 53.2218 45.9403 53.2344 46.1987Z" fill="white"/>
<path d="M38.2943 47.8723C38.8778 47.8723 39.3617 47.3956 39.3617 46.8121C39.3617 46.2286 38.8707 45.7447 38.2943 45.7447C37.7108 45.7447 37.2341 46.2357 37.2341 46.8121C37.2341 47.3956 37.7037 47.8723 38.2943 47.8723Z" fill="#FEDE00"/>
</svg>
