<svg width="43" height="38" viewBox="0 0 43 38" fill="none" xmlns="http://www.w3.org/2000/svg">
<mask id="mask0_137_776" style="mask-type:alpha" maskUnits="userSpaceOnUse" x="0" y="22" width="43" height="16">
<path d="M43 22.1302H0V37.2509H43V22.1302Z" fill="white"/>
</mask>
<g mask="url(#mask0_137_776)">
<path fill-rule="evenodd" clip-rule="evenodd" d="M20.9095 37.2623L18.5301 36.6944V27.1093L20.9095 26.6561V37.2623ZM37.5533 35.0023C35.8276 35.008 34.4287 33.6141 34.4172 31.8875C34.4172 31.8818 34.4172 31.876 34.4172 31.8703C34.4172 30.1724 35.8104 28.7785 37.5476 28.7785C39.2848 28.7785 40.678 30.1724 40.678 31.8703C40.6837 33.5969 39.2848 34.9965 37.5648 35.0023C37.5648 35.0023 37.5591 35.0023 37.5533 35.0023ZM42.9484 31.8703C42.9484 34.8531 40.5347 37.2681 37.5533 37.2681C34.572 37.2681 32.1583 34.8531 32.1583 31.8703C32.1583 28.9276 34.5777 26.5127 37.5591 26.5127C40.5404 26.5127 42.9484 28.9276 42.9484 31.8703ZM12.3381 36.7002L14.6773 37.1878V30.7345C14.6773 27.637 12.2636 26.5471 10.6009 26.5471C9.50586 26.5471 8.6 26.811 7.8088 27.6026C6.97746 26.811 5.99706 26.5069 5.20586 26.5069C4.03626 26.5069 3.05586 26.9945 2.3736 27.8263V26.7307L-0.0057373 27.1838V36.6944L2.3736 37.182V30.66C2.3736 29.6045 3.1304 28.8875 4.29426 28.8875C5.38933 28.8875 6.18053 29.6045 6.18053 30.66V36.7002L8.51973 37.1878V30.66C8.51973 29.6045 9.31093 28.8875 10.4461 28.8875C11.5412 28.8875 12.3324 29.6045 12.3324 30.66L12.3381 36.7002ZM30.3809 26.5127L28.982 26.702C26.3791 27.3043 24.682 28.136 24.682 31.0041V36.7002L27.0613 37.1533V31.3426C27.0613 30.0232 27.8181 29.4152 28.9877 29.1915L30.3867 28.9678L30.3809 26.5127ZM18.6448 22.5834C18.0772 23.1627 18.0772 24.0805 18.6448 24.6599C19.2239 25.2565 20.1813 25.2622 20.7719 24.6828C20.7776 24.6771 20.7891 24.6656 20.7948 24.6599C21.3624 24.0863 21.3624 23.157 20.7948 22.5834C20.1871 22.0155 19.2468 22.0155 18.6448 22.5834Z" fill="#FEDE00"/>
</g>
<path fill-rule="evenodd" clip-rule="evenodd" d="M24.9228 0H13.9435C11.6272 0 9.7467 1.88148 9.7467 4.1989V15.1837C9.7467 17.5012 11.6272 19.3826 13.9435 19.3826H24.9228C27.2391 19.3826 29.1196 17.5012 29.1196 15.1837V4.1989C29.1196 1.88148 27.2391 0 24.9228 0ZM21.0815 2.42065H23.2085L27.1072 4.84133L23.2085 16.9619H21.0815L22.8531 5.88532L18.9544 16.9619H16.8273L18.7767 6.57367L14.7003 16.9619H12.5732L14.7003 7.26775L12.5732 2.42065H14.7003L18.7767 6.22949L16.8273 2.42065H18.9544L22.8531 5.53541L21.0815 2.42065Z" fill="#FEDE00"/>
</svg>
