<svg width="35" height="35" viewBox="0 0 35 35" fill="none" xmlns="http://www.w3.org/2000/svg">
<path fill-rule="evenodd" clip-rule="evenodd" d="M17.5 35C27.165 35 35 27.165 35 17.5C35 7.83502 27.165 0 17.5 0C7.83502 0 0 7.83502 0 17.5C0 27.165 7.83502 35 17.5 35ZM17.5 17.5671V22.258H12.7822C11.531 22.258 10.331 21.7609 9.44628 20.8762C8.56154 19.9915 8.06449 18.7915 8.06449 17.5403C8.06449 16.289 8.56154 15.0891 9.44628 14.2043C10.3252 13.3254 11.5152 12.8291 12.7575 12.8226C11.5153 12.8161 10.3253 12.3197 9.44639 11.4408C8.56164 10.5561 8.06459 9.35612 8.06459 8.1049C8.06459 6.85367 8.56164 5.6537 9.44639 4.76895C10.3311 3.8842 11.5311 3.38716 12.7823 3.38716H17.4999V3.3871H22.2176C23.4689 3.3871 24.6688 3.88415 25.5536 4.7689C26.4383 5.65365 26.9354 6.85362 26.9354 8.10485C26.9354 9.35607 26.4383 10.556 25.5536 11.4408C24.6732 12.3212 23.4807 12.8177 22.2362 12.8225C23.4807 12.8274 24.6732 13.3239 25.5536 14.2043C26.4383 15.0891 26.9354 16.289 26.9354 17.5403C26.9354 18.7915 26.4383 19.9915 25.5536 20.8762C24.6688 21.7609 23.4689 22.258 22.2176 22.258C20.9664 22.258 19.7664 21.7609 18.8817 20.8762C18.0033 19.9978 17.507 18.8086 17.5 17.5671ZM17.5 17.5134C17.507 16.2719 18.0033 15.0827 18.8817 14.2043C19.7601 13.3259 20.9492 12.8297 22.1906 12.8226H17.5001V12.8226H17.5V17.5134ZM8.06449 26.9758C8.06449 25.7246 8.56154 24.5246 9.44628 23.6398C10.331 22.7551 11.531 22.258 12.7822 22.258H17.5V26.9758C17.5 28.227 17.0029 29.427 16.1182 30.3117C15.2334 31.1965 14.0335 31.6935 12.7822 31.6935C11.531 31.6935 10.331 31.1965 9.44628 30.3117C8.56154 29.427 8.06449 28.227 8.06449 26.9758Z" fill="#FEDE00"/>
</svg>
