<svg width="38" height="22" viewBox="0 0 38 22" fill="none" xmlns="http://www.w3.org/2000/svg">
<path d="M34.3051 1.11553H24.6799V3.57103H34.343L34.3051 1.11553ZM32.2737 18.008C31.5435 18.4518 30.6813 18.6769 29.8057 18.6523C29.2262 18.7077 28.6404 18.6528 28.0851 18.491C27.5298 18.3292 27.0168 18.064 26.5784 17.7119C25.7677 16.8688 25.3457 15.7699 25.4013 14.6469H37.9691C38.0597 13.4776 37.9508 12.3024 37.6464 11.1639C37.3519 10.0808 36.8365 9.0585 36.1276 8.15114C35.414 7.271 34.4923 6.55057 33.4318 6.04394C32.2518 5.51025 30.9504 5.24163 29.6349 5.26027C28.3977 5.25196 27.1712 5.47106 26.0278 5.90462C24.9808 6.30951 24.0321 6.9015 23.2371 7.64611C22.4443 8.4056 21.8304 9.30665 21.4336 10.2932C21.0077 11.3582 20.7955 12.4851 20.8071 13.6194C20.7875 14.7698 20.9933 15.9142 21.4146 16.9979C21.7724 17.9793 22.3404 18.8852 23.0852 19.6624C23.8558 20.4254 24.8029 21.0205 25.857 21.4039C27.0323 21.8146 28.2824 22.0156 29.54 21.996C31.3044 22.0464 33.0465 21.6227 34.5519 20.7769C36.0724 19.7858 37.1671 18.338 37.6464 16.6844H33.4508C33.2262 17.2315 32.8128 17.6962 32.2737 18.008ZM25.762 10.833C25.9098 10.3988 26.1551 9.99787 26.482 9.65593C26.809 9.314 27.2105 9.03869 27.6605 8.84774C28.2565 8.60164 28.9056 8.48256 29.5589 8.49944C30.0309 8.46246 30.5061 8.51958 30.9517 8.66687C31.3974 8.81416 31.803 9.04815 32.1408 9.35277C32.7859 10.0771 33.1999 10.9511 33.3369 11.8779H25.4583C25.489 11.524 25.559 11.1739 25.6671 10.833H25.762ZM15.7192 9.99712C16.6854 9.62803 17.525 9.02634 18.1492 8.25563C18.723 7.43714 19.008 6.47641 18.9656 5.50408C19.0028 4.61738 18.8143 3.73492 18.415 2.92668C18.0796 2.22646 17.5411 1.62409 16.8583 1.18519C16.1343 0.728877 15.3122 0.420094 14.4472 0.27962C13.4236 0.0826816 12.3796 -0.0107553 11.3338 0.000982819H0V21.9089H11.5806C12.6374 21.9096 13.6901 21.7867 14.713 21.5432C15.6827 21.3131 16.6013 20.9301 17.4278 20.4112C18.2285 19.9022 18.8804 19.2204 19.3263 18.4259C19.8197 17.5374 20.0613 16.5492 20.0287 15.5525C20.0647 14.3173 19.687 13.1017 18.9466 12.0695C18.1503 11.0314 16.9694 10.2948 15.6243 9.99712H15.7192ZM5.25872 3.74518H10.1757C10.6274 3.74467 11.0784 3.77963 11.5236 3.84967C11.9336 3.9054 12.3273 4.03566 12.6817 4.2328C13.0241 4.41045 13.3015 4.67706 13.479 4.99905C13.6989 5.38517 13.8037 5.81772 13.7828 6.25292C13.8182 6.62776 13.7557 7.00493 13.6005 7.3532C13.4453 7.70147 13.202 8.01082 12.8905 8.25563C12.2111 8.68409 11.3981 8.89804 10.5744 8.86515H5.25872V3.74518ZM14.4472 16.7018C14.2522 17.0568 13.9572 17.3574 13.5929 17.5726C13.2138 17.7889 12.7961 17.9422 12.3589 18.0254C11.873 18.1251 11.376 18.1719 10.8781 18.1647H5.18278V12.1566H10.8781C11.8555 12.1173 12.8207 12.3677 13.6309 12.8706C13.997 13.1719 14.2805 13.5481 14.4586 13.9686C14.6367 14.3892 14.7044 14.8423 14.6561 15.2912C14.7074 15.7699 14.6359 16.253 14.4472 16.7018Z" fill="#FEDE00"/>
</svg>
