<svg width="35" height="34" viewBox="0 0 35 34" fill="none" xmlns="http://www.w3.org/2000/svg">
<path d="M17.4978 0C7.83563 0 1.00985e-05 7.80395 1.00985e-05 17.4309C-0.00393751 21.0844 1.14957 24.6469 3.29751 27.6147C5.44546 30.5825 8.47921 32.8056 11.97 33.9698C12.845 34.1304 13.1644 33.5922 13.1644 33.1299C13.1644 32.7154 13.1491 31.6195 13.1403 30.1654C8.27313 31.218 7.24501 27.8282 7.24501 27.8282C6.45094 25.8142 5.30251 25.2782 5.30251 25.2782C3.7122 24.1975 5.42063 24.2192 5.42063 24.2192C7.17719 24.3429 8.10032 26.0161 8.10032 26.0161C9.66219 28.6789 12.1975 27.9106 13.195 27.4636C13.3525 26.3373 13.8053 25.569 14.3063 25.1328C10.4213 24.6923 6.33501 23.197 6.33501 16.5194C6.33501 14.6161 7.01751 13.0601 8.13751 11.8405C7.95594 11.3999 7.35657 9.6269 8.30813 7.22886C8.30813 7.22886 9.77813 6.7601 13.1206 9.01491C14.5485 8.62778 16.0219 8.43074 17.5022 8.42896C18.9825 8.43188 20.4559 8.62965 21.8837 9.01708C25.2241 6.76227 26.6919 7.23103 26.6919 7.23103C27.6456 9.63124 27.0462 11.4021 26.8669 11.8427C27.9891 13.0623 28.665 14.6183 28.665 16.5216C28.665 23.2165 24.5744 24.6901 20.6762 25.122C21.3041 25.6602 21.8641 26.7235 21.8641 28.349C21.8641 30.6798 21.8422 32.5592 21.8422 33.1299C21.8422 33.5965 22.1572 34.139 23.0453 33.9676C26.5327 32.8007 29.5627 30.5767 31.7077 27.6096C33.8526 24.6426 35.0042 21.0821 35 17.4309C35 7.80395 27.1644 0 17.4978 0Z" fill="#FEDE00"/>
</svg>
