<svg width="34" height="30" viewBox="0 0 34 30" fill="none" xmlns="http://www.w3.org/2000/svg">
<mask id="mask0_441_293" style="mask-type:luminance" maskUnits="userSpaceOnUse" x="0" y="17" width="34" height="13">
<path d="M33.7653 17.3776H0V29.2509H33.7653V17.3776Z" fill="white"/>
</mask>
<g mask="url(#mask0_441_293)">
<path fill-rule="evenodd" clip-rule="evenodd" d="M16.4189 29.2599L14.5506 28.8139V21.2873L16.4189 20.9314V29.2599ZM29.4884 27.4852C28.1333 27.4897 27.0348 26.3951 27.0258 25.0393C27.0258 25.0348 27.0258 25.0303 27.0258 25.0258C27.0258 23.6926 28.1197 22.598 29.4839 22.598C30.848 22.598 31.942 23.6926 31.942 25.0258C31.9465 26.3816 30.848 27.4807 29.4974 27.4852C29.4974 27.4852 29.4929 27.4852 29.4884 27.4852ZM33.7248 25.0258C33.7248 27.3681 31.8294 29.2644 29.4884 29.2644C27.1473 29.2644 25.2519 27.3681 25.2519 25.0258C25.2519 22.7151 27.1518 20.8188 29.4929 20.8188C31.8339 20.8188 33.7248 22.7151 33.7248 25.0258ZM9.68838 28.8184L11.5252 29.2013V24.134C11.5252 21.7017 9.62986 20.8458 8.32426 20.8458C7.46437 20.8458 6.75305 21.053 6.13177 21.6746C5.47897 21.053 4.70912 20.8143 4.08784 20.8143C3.16942 20.8143 2.39957 21.1972 1.86383 21.8503V20.99L-0.0045166 21.3458V28.8139L1.86383 29.1968V24.0754C1.86383 23.2466 2.4581 22.6836 3.37202 22.6836C4.23191 22.6836 4.85319 23.2466 4.85319 24.0754V28.8184L6.69002 29.2013V24.0754C6.69002 23.2466 7.31131 22.6836 8.20271 22.6836C9.0626 22.6836 9.68388 23.2466 9.68388 24.0754L9.68838 28.8184ZM23.8563 20.8188L22.7578 20.9675C20.7139 21.4404 19.3813 22.0935 19.3813 24.3457V28.8184L21.2496 29.1743V24.6114C21.2496 23.5754 21.8439 23.098 22.7623 22.9223L23.8608 22.7467L23.8563 20.8188ZM14.6406 17.7334C14.1949 18.1883 14.1949 18.909 14.6406 19.3639C15.0953 19.8324 15.8472 19.8369 16.3109 19.3819C16.3154 19.3774 16.3244 19.3684 16.3289 19.3639C16.7746 18.9135 16.7746 18.1838 16.3289 17.7334C15.8517 17.2874 15.1133 17.2874 14.6406 17.7334Z" fill="#FEDE00"/>
</g>
<path fill-rule="evenodd" clip-rule="evenodd" d="M19.5705 0H10.9491C9.13024 0 7.65356 1.47741 7.65356 3.29715V11.9229C7.65356 13.7426 9.13024 15.22 10.9491 15.22H19.5705C21.3893 15.22 22.866 13.7426 22.866 11.9229V3.29715C22.866 1.47741 21.3893 0 19.5705 0ZM16.5541 1.90083H18.2243L21.2857 3.80164L18.2243 13.3192H16.5541L17.9452 4.62143L14.8838 13.3192H13.2135L14.7442 5.16194L11.5433 13.3192H9.87303L11.5433 5.70696L9.87303 1.90083H11.5433L14.7442 4.89168L13.2135 1.90083H14.8838L17.9452 4.34666L16.5541 1.90083Z" fill="#FEDE00"/>
</svg>
