<svg width="28" height="27" viewBox="0 0 28 27" fill="none" xmlns="http://www.w3.org/2000/svg">
<path d="M13.9983 0C6.26851 0 8.07883e-06 6.19726 8.07883e-06 13.8421C-0.00315 16.7435 0.919658 19.5725 2.63801 21.9293C4.35637 24.2861 6.78336 26.0515 9.576 26.976C10.276 27.1035 10.5315 26.6761 10.5315 26.309C10.5315 25.9799 10.5193 25.1096 10.5123 23.9549C6.6185 24.7908 5.796 22.0988 5.796 22.0988C5.16075 20.4995 4.24201 20.0739 4.24201 20.0739C2.96976 19.2156 4.3365 19.2329 4.3365 19.2329C5.74175 19.3311 6.48025 20.6598 6.48025 20.6598C7.72975 22.7744 9.758 22.1643 10.556 21.8093C10.682 20.9149 11.0443 20.3048 11.445 19.9584C8.337 19.6086 5.068 18.4212 5.068 13.1183C5.068 11.6069 5.614 10.3713 6.51 9.40274C6.36475 9.05289 5.88525 7.64489 6.6465 5.74056C6.6465 5.74056 7.8225 5.36831 10.4965 7.1589C11.6388 6.85147 12.8176 6.695 14.0017 6.69359C15.186 6.69591 16.3647 6.85295 17.507 7.16062C20.1792 5.37004 21.3535 5.74229 21.3535 5.74229C22.1165 7.64834 21.637 9.05461 21.4935 9.40446C22.3912 10.373 22.932 11.6087 22.932 13.1201C22.932 18.4367 19.6595 19.6068 16.541 19.9498C17.0432 20.3772 17.4912 21.2216 17.4912 22.5125C17.4912 24.3634 17.4737 25.8558 17.4737 26.309C17.4737 26.6796 17.7257 27.1104 18.4362 26.9743C21.2262 26.0476 23.6502 24.2815 25.3661 21.9253C27.0821 19.5691 28.0034 16.7417 28 13.8421C28 6.19726 21.7315 0 13.9983 0Z" fill="#FEDE00"/>
</svg>
