<svg width="36" height="35" viewBox="0 0 36 35" fill="none" xmlns="http://www.w3.org/2000/svg">
<path d="M17.9977 0C8.05951 0 1.03871e-05 8.03348 1.03871e-05 17.9435C-0.00405001 21.7046 1.18242 25.3718 3.39173 28.4269C5.60104 31.482 8.72147 33.7705 12.312 34.9689C13.212 35.1342 13.5405 34.5802 13.5405 34.1043C13.5405 33.6776 13.5248 32.5495 13.5158 31.0527C8.50951 32.1362 7.45201 28.6466 7.45201 28.6466C6.63526 26.5735 5.45401 26.0217 5.45401 26.0217C3.81826 24.9092 5.57551 24.9315 5.57551 24.9315C7.38226 25.0588 8.33176 26.7813 8.33176 26.7813C9.93825 29.5224 12.546 28.7315 13.572 28.2713C13.734 27.1119 14.1998 26.321 14.715 25.872C10.719 25.4185 6.51601 23.8793 6.51601 17.0052C6.51601 15.046 7.21801 13.4442 8.37 12.1887C8.18326 11.7352 7.56676 9.91005 8.5455 7.44147C8.5455 7.44147 10.0575 6.95892 13.4955 9.28006C14.9642 8.88154 16.4797 8.6787 18.0023 8.67688C19.5249 8.67988 21.0403 8.88346 22.509 9.28229C25.9447 6.96116 27.4545 7.4437 27.4545 7.4437C28.4355 9.91451 27.819 11.7375 27.6345 12.191C28.7887 13.4465 29.484 15.0483 29.484 17.0075C29.484 23.8994 25.2765 25.4163 21.267 25.8608C21.9127 26.4149 22.4887 27.5095 22.4887 29.1828C22.4887 31.5821 22.4662 33.5168 22.4662 34.1043C22.4662 34.5846 22.7902 35.1431 23.7037 34.9666C27.2908 33.7654 30.4073 31.476 32.6136 28.4217C34.8198 25.3673 36.0043 21.7022 36 17.9435C36 8.03348 27.9405 0 17.9977 0Z" fill="#E5E6EA"/>
</svg>
