<svg width="48" height="30" viewBox="0 0 48 30" fill="none" xmlns="http://www.w3.org/2000/svg">
<path d="M43.3327 1.52118H31.1746V4.86959H43.3807L43.3327 1.52118ZM40.7668 24.5563C39.8445 25.1615 38.7553 25.4685 37.6494 25.435C36.9173 25.5105 36.1774 25.4357 35.4759 25.215C34.7744 24.9943 34.1265 24.6327 33.5727 24.1526C32.5487 23.0029 32.0157 21.5044 32.0859 19.973H47.961C48.0754 18.3785 47.9379 16.776 47.5533 15.2235C47.1813 13.7465 46.5304 12.3525 45.6349 11.1152C44.7335 9.915 43.5693 8.9326 42.2296 8.24174C40.7391 7.51397 39.0952 7.14768 37.4335 7.1731C35.8708 7.16177 34.3215 7.46053 32.8772 8.05176C31.5547 8.60387 30.3564 9.41114 29.3521 10.4265C28.3507 11.4622 27.5752 12.6909 27.074 14.0361C26.5361 15.4884 26.268 17.0251 26.2826 18.5719C26.2579 20.1407 26.5178 21.7011 27.05 23.1789C27.502 24.5172 28.2194 25.7525 29.1603 26.8123C30.1336 27.8528 31.33 28.6643 32.6614 29.1871C34.1461 29.7472 35.7251 30.0213 37.3136 29.9945C39.5424 30.0633 41.7429 29.4855 43.6445 28.3322C45.5651 26.9806 46.9479 25.0064 47.5533 22.7515H42.2536C41.9699 23.4975 41.4478 24.1312 40.7668 24.5563ZM32.5415 14.7723C32.7282 14.1802 33.038 13.6335 33.451 13.1672C33.864 12.7009 34.3711 12.3255 34.9396 12.0651C35.6924 11.7295 36.5123 11.5671 37.3376 11.5901C37.9338 11.5397 38.534 11.6176 39.0969 11.8185C39.6598 12.0193 40.1722 12.3384 40.599 12.7538C41.4138 13.7415 41.9367 14.9333 42.1097 16.1972H32.1578C32.1966 15.7146 32.285 15.2372 32.4216 14.7723H32.5415ZM19.8558 13.6324C21.0764 13.1291 22.1369 12.3086 22.9253 11.2577C23.6501 10.1416 24.0101 8.83147 23.9565 7.50557C24.0035 6.29643 23.7654 5.09308 23.2611 3.99093C22.8374 3.03608 22.1572 2.21467 21.2947 1.61617C20.3802 0.993923 19.3417 0.572855 18.2491 0.381301C16.9562 0.112748 15.6374 -0.0146663 14.3163 0.00134021H0V29.8758H14.6281C15.9631 29.8767 17.2927 29.7091 18.5849 29.3771C19.8097 29.0633 20.97 28.541 22.0141 27.8335C23.0254 27.1394 23.849 26.2097 24.4121 25.1262C25.0354 23.9146 25.3405 22.5671 25.2994 21.2079C25.3448 19.5236 24.8678 17.8659 23.9325 16.4584C22.9268 15.0429 21.435 14.0383 19.7359 13.6324H19.8558ZM6.64259 5.10706H12.8535C13.4241 5.10637 13.9938 5.15404 14.5562 5.24955C15.074 5.32555 15.5713 5.50317 16.019 5.772C16.4514 6.01425 16.8019 6.37781 17.0261 6.81689C17.3039 7.34341 17.4362 7.93325 17.4098 8.52671C17.4545 9.03785 17.3756 9.55217 17.1796 10.0271C16.9836 10.502 16.6762 10.9238 16.2827 11.2577C15.4245 11.8419 14.3976 12.1337 13.3571 12.0888H6.64259V5.10706ZM18.2491 22.7752C18.0028 23.2592 17.6302 23.6692 17.17 23.9626C16.6911 24.2576 16.1635 24.4666 15.6113 24.5801C14.9975 24.7161 14.3697 24.7799 13.7408 24.77H6.54667V16.5771H13.7408C14.9754 16.5236 16.1945 16.865 17.218 17.5508C17.6804 17.9617 18.0385 18.4746 18.2635 19.0481C18.4885 19.6216 18.5739 20.2394 18.5129 20.8517C18.5778 21.5045 18.4874 22.1632 18.2491 22.7752V22.7752Z" fill="#FEDE00"/>
</svg>
