<svg width="430" height="17" viewBox="0 0 430 17" fill="none" xmlns="http://www.w3.org/2000/svg">
<path fill-rule="evenodd" clip-rule="evenodd" d="M369.927 11.4453C363.795 11.9377 357.736 12.4224 352.104 12.6128C253.541 15.9459 154.82 17.2754 56.1732 15.614C56.0724 15.6113 55.9312 15.6041 55.8903 15.6013C55.8678 15.5996 55.8317 15.5966 55.8171 15.5954C55.7905 15.593 55.7686 15.5909 55.759 15.59L55.7001 15.584L55.1503 15.5257C54.7839 15.4869 54.2501 15.4308 53.5719 15.3616C52.2151 15.2231 50.28 15.0319 47.956 14.8213C43.3016 14.3994 37.1148 13.9024 30.9036 13.5942C24.6507 13.284 18.5425 13.1746 13.9799 13.4906C11.6619 13.6511 10.0121 13.9056 9.01669 14.1917C9 14.1964 8.98377 14.2012 8.968 14.2058C7.79186 15.736 5.78031 16.5087 3.7885 16.0107C1.10953 15.341 -0.519274 12.6263 0.15047 9.94733C0.663094 7.89683 2.05232 6.64752 3.07751 5.97272C4.11422 5.29034 5.25962 4.86659 6.25487 4.5806C8.26423 4.00319 10.7405 3.691 13.2889 3.51448C18.4592 3.15637 25.045 3.29124 31.3991 3.60649C37.795 3.9238 44.1283 4.43336 48.8586 4.86208C51.227 5.07673 53.2004 5.27174 54.5874 5.41332C55.2811 5.48413 55.8278 5.54155 56.2033 5.58131L56.559 5.6191C154.933 7.27152 253.409 5.94462 351.766 2.61855C357.124 2.43736 362.945 1.97373 369.127 1.47736L369.377 1.45725C375.442 0.97023 381.823 0.457745 388.208 0.190089C401.075 -0.349367 414.495 0.0696723 426.174 3.96284C428.794 4.83608 430.21 7.66768 429.337 10.2874C428.464 12.9071 425.632 14.3229 423.012 13.4497C413.119 10.1521 401.2 9.65418 388.627 10.1813C382.435 10.4409 376.215 10.9404 370.095 11.4318L369.927 11.4453ZM56.81 5.64491C56.8132 5.64542 56.7908 5.64347 56.7331 5.6375C56.7779 5.6414 56.8068 5.64439 56.81 5.64491Z" fill="#FEDE00"/>
</svg>
