<svg width="305" height="25" viewBox="0 0 305 25" fill="none" xmlns="http://www.w3.org/2000/svg">
<path fill-rule="evenodd" clip-rule="evenodd" d="M174.956 10.0292C169.607 10.0431 164.261 10.057 158.92 10.057C118.705 10.057 78.6896 11.279 39.1204 17.0256C37.4943 17.2617 35.87 17.4863 34.2523 17.71C24.5804 19.0474 15.1467 20.3518 6.9949 23.8961C4.46248 24.9971 1.51697 23.8368 0.415919 21.3044C-0.685133 18.7719 0.475219 15.8264 3.00764 14.7254C12.5342 10.5834 23.532 9.07835 33.1131 7.76718C34.6785 7.55296 36.206 7.34392 37.6832 7.1294C77.9648 1.27937 118.544 0.0569949 158.92 0.0569949C164.216 0.0569949 169.536 0.0428433 174.874 0.0286431C210.149 -0.0651989 246.216 -0.161149 281.488 3.8114C282.131 3.88384 282.78 3.95573 283.436 4.02824C289.1 4.65505 295.181 5.32787 301.075 6.80129C303.754 7.47103 305.382 10.1857 304.713 12.8647C304.043 15.5437 301.328 17.1725 298.649 16.5027C293.451 15.2032 288.06 14.6042 282.298 13.9639C281.659 13.893 281.016 13.8215 280.368 13.7486C245.714 9.8455 210.277 9.93751 174.956 10.0292Z" fill="#FEDE00"/>
</svg>
