<svg width="320" height="251" viewBox="0 0 320 251" fill="none" xmlns="http://www.w3.org/2000/svg">
<path d="M244.578 174.949C248.525 170.932 253.905 168.647 259.536 168.597C265.168 168.547 270.588 170.736 274.605 174.683C278.622 178.629 280.907 184.01 280.956 189.641C281.006 195.272 278.817 200.692 274.871 204.709C270.924 208.726 265.544 211.011 259.913 211.061C254.282 211.111 248.862 208.922 244.845 204.975C240.827 201.029 238.543 195.648 238.493 190.017C238.443 184.386 240.632 178.966 244.578 174.949V174.949Z" fill="#1ABCFE"/>
<path d="M184.525 175.481C188.472 171.464 193.852 169.179 199.483 169.129C205.114 169.079 210.535 171.268 214.552 175.215L229.698 190.095L214.818 205.241C210.871 209.258 205.491 211.543 199.86 211.593C194.229 211.643 188.809 209.454 184.791 205.507C180.774 201.561 178.49 196.18 178.44 190.549C178.39 184.918 180.579 179.498 184.525 175.481L184.525 175.481Z" fill="#0ACF83"/>
<path d="M289.219 129.51L259.459 159.803L274.605 174.683C278.622 178.629 284.042 180.818 289.673 180.768C295.304 180.719 300.685 178.434 304.631 174.417C308.578 170.4 310.767 164.979 310.717 159.348C310.667 153.717 308.382 148.337 304.365 144.39L289.219 129.51Z" fill="#FF7262"/>
<path d="M244.046 114.896C240.1 118.913 237.911 124.333 237.961 129.964C238.011 135.595 240.295 140.976 244.312 144.922L259.459 159.802L289.219 129.51L274.073 114.63C270.056 110.683 264.635 108.494 259.004 108.544C253.373 108.594 247.993 110.879 244.046 114.896H244.046Z" fill="#F24E1E"/>
<path d="M214.286 145.188C210.34 149.205 208.151 154.626 208.201 160.257C208.251 165.888 210.535 171.268 214.552 175.215L229.699 190.095L259.459 159.802L244.313 144.922C240.296 140.976 234.875 138.787 229.244 138.837C223.613 138.887 218.233 141.171 214.286 145.188Z" fill="#A259FF"/>
<path d="M82.8131 64.7915L81.9964 64.9927L76.4852 42.6204C76.0663 40.92 75.3166 39.3188 74.2789 37.9081C73.2412 36.4974 71.9358 35.3049 70.4372 34.3988C68.9387 33.4926 67.2763 32.8904 65.545 32.6267C63.8137 32.363 62.0475 32.4429 60.347 32.8617L12.9485 44.538C9.51432 45.384 6.55689 47.5595 4.72678 50.586C2.89666 53.6125 2.34377 57.242 3.18974 60.6762L33.4248 183.412C34.2707 186.846 36.4463 189.803 39.4728 191.634C42.4993 193.464 46.1288 194.017 49.5629 193.171L96.9615 181.494C98.6619 181.075 100.263 180.326 101.674 179.288C103.085 178.25 104.277 176.945 105.183 175.446C106.089 173.948 106.692 172.285 106.955 170.554C107.219 168.823 107.139 167.057 106.72 165.356L85.9194 80.9176L86.7361 80.7164L82.8131 64.7915Z" fill="#3F3D56"/>
<path d="M61.6995 36.102L55.5125 37.6261C55.9688 38.2536 56.2639 38.9837 56.3716 39.7521C56.4794 40.5204 56.3965 41.3035 56.1303 42.0323C55.8641 42.7611 55.4228 43.4132 54.8452 43.9313C54.2676 44.4494 53.5715 44.8174 52.8181 45.0031L25.6641 51.6923C24.9107 51.8778 24.1232 51.8752 23.3711 51.6847C22.6189 51.4942 21.9252 51.1217 21.3509 50.5999C20.7767 50.0782 20.3396 49.4232 20.0781 48.6927C19.8166 47.9622 19.7388 47.1786 19.8514 46.4109L14.0727 47.8345C11.5081 48.4662 9.29955 50.0909 7.93284 52.3511C6.56613 54.6112 6.15324 57.3217 6.785 59.8863L36.9757 182.442C37.2885 183.712 37.8484 184.908 38.6233 185.961C39.3983 187.015 40.3731 187.905 41.4922 188.582C42.6114 189.259 43.8528 189.708 45.1457 189.905C46.4386 190.102 47.7576 190.042 49.0275 189.73L96.6543 177.997C97.9242 177.684 99.12 177.124 100.173 176.349C101.227 175.575 102.117 174.6 102.794 173.481C103.471 172.361 103.921 171.12 104.118 169.827C104.314 168.534 104.255 167.215 103.942 165.945V165.945L73.7514 43.3896C73.4385 42.1198 72.8787 40.924 72.1037 39.8705C71.3288 38.817 70.3539 37.9265 69.2348 37.2498C68.1157 36.5731 66.8742 36.1234 65.5813 35.9265C64.2884 35.7295 62.9694 35.7892 61.6995 36.102Z" fill="white"/>
<path d="M72.5489 82.1164C73.2382 84.8996 73.4221 87.7838 73.0919 90.632C72.9445 91.9356 72.6873 93.2244 72.3229 94.4847C71.1567 98.5577 68.9357 102.251 65.8846 105.19C62.8334 108.129 59.0602 110.211 54.9465 111.224C50.8328 112.238 46.5245 112.147 42.4572 110.961C38.3898 109.775 34.7077 107.537 31.783 104.471C31.4875 104.163 31.2014 103.847 30.9247 103.524C28.5613 100.765 26.8532 97.5077 25.9285 93.9951C25.0038 90.4825 24.8866 86.8061 25.5856 83.2418C26.2846 79.6774 27.7818 76.3176 29.9647 73.4144C32.1476 70.5112 34.9595 68.1401 38.1897 66.4788C41.4198 64.8176 44.9842 63.9094 48.6154 63.8224C52.2467 63.7354 55.8504 64.4718 59.1564 65.9764C62.4624 67.4811 65.3847 69.7148 67.7042 72.5101C70.0236 75.3054 71.6799 78.5896 72.5489 82.1164V82.1164Z" fill="#F1F1F1"/>
<path d="M51.3791 91.5137C53.8451 90.9062 55.3518 88.4147 54.7443 85.9487C54.1368 83.4827 51.6452 81.976 49.1792 82.5835C46.7132 83.191 45.2066 85.6826 45.8141 88.1486C46.4216 90.6146 48.9131 92.1212 51.3791 91.5137Z" fill="#FF6582"/>
<path d="M30.9245 103.523C32.368 100.913 34.1664 96.8894 37.2339 98.7208C38.7552 99.5663 41.3948 101.94 42.7902 99.6193L53.7047 81.5698C53.911 81.2334 54.1825 80.9417 54.5031 80.7118C54.8238 80.4819 55.1872 80.3184 55.5719 80.2309C55.9567 80.1433 56.355 80.1336 56.7436 80.2023C57.1321 80.2709 57.503 80.4165 57.8345 80.6305L73.0916 90.6318C72.9442 91.9354 72.6869 93.2242 72.3226 94.4845L31.7827 104.471L30.9245 103.523Z" fill="#6C63FF"/>
<path d="M71.8356 132.598C71.6759 132.638 71.5384 132.739 71.4534 132.88C71.3684 133.021 71.3428 133.19 71.3822 133.35C71.4215 133.51 71.5227 133.647 71.6634 133.732C71.8041 133.818 71.973 133.844 72.1328 133.805L78.4644 132.245C78.6244 132.206 78.7622 132.104 78.8475 131.963C78.9328 131.822 78.9586 131.653 78.9191 131.493C78.8797 131.333 78.7784 131.195 78.6373 131.11C78.4963 131.025 78.3272 130.999 78.1671 131.038L71.8356 132.598Z" fill="#6C63FF"/>
<path d="M41.1269 130.763C40.9669 130.802 40.8291 130.904 40.7438 131.045C40.6585 131.186 40.6327 131.355 40.6722 131.515C40.7116 131.675 40.813 131.813 40.954 131.898C41.095 131.983 41.2642 132.009 41.4242 131.969L76.5583 123.314C76.7183 123.275 76.8561 123.174 76.9414 123.033C77.0267 122.892 77.0524 122.722 77.013 122.562C76.9736 122.402 76.8722 122.265 76.7312 122.179C76.5902 122.094 76.421 122.068 76.261 122.108L41.1269 130.763Z" fill="#E5E5E5"/>
<path d="M42.2184 135.194C42.0587 135.233 41.9213 135.335 41.8363 135.476C41.7513 135.617 41.7256 135.786 41.765 135.945C41.8044 136.105 41.9055 136.243 42.0462 136.328C42.187 136.413 42.3558 136.439 42.5157 136.4L77.6498 127.745C77.7292 127.726 77.804 127.691 77.8699 127.643C77.9358 127.595 77.9915 127.534 78.0339 127.464C78.0762 127.394 78.1044 127.316 78.1168 127.236C78.1291 127.155 78.1254 127.072 78.1059 126.993C78.0863 126.914 78.0513 126.839 78.0028 126.773C77.9544 126.707 77.8934 126.652 77.8234 126.61C77.7535 126.567 77.6759 126.539 77.595 126.527C77.5142 126.515 77.4318 126.519 77.3525 126.539L42.2184 135.194Z" fill="#E5E5E5"/>
<path d="M78.8398 161.031C78.6797 161.071 78.5419 161.172 78.4566 161.313C78.3714 161.454 78.3456 161.623 78.385 161.783C78.4244 161.943 78.5258 162.081 78.6668 162.167C78.8079 162.252 78.977 162.278 79.137 162.238L85.4686 160.678C85.6286 160.639 85.7664 160.538 85.8517 160.397C85.937 160.256 85.9628 160.086 85.9233 159.926C85.8839 159.766 85.7825 159.629 85.6415 159.543C85.5005 159.458 85.3314 159.432 85.1713 159.472L78.8398 161.031Z" fill="#6C63FF"/>
<path d="M48.1313 159.196C47.9713 159.235 47.8335 159.337 47.7482 159.478C47.6629 159.619 47.6372 159.788 47.6766 159.948C47.716 160.108 47.8174 160.246 47.9584 160.331C48.0994 160.416 48.2686 160.442 48.4286 160.403L83.5627 151.748C83.6421 151.728 83.7169 151.693 83.7828 151.645C83.8487 151.597 83.9045 151.536 83.9468 151.466C83.9892 151.396 84.0173 151.319 84.0297 151.238C84.042 151.157 84.0383 151.075 84.0188 150.995C83.9993 150.916 83.9642 150.841 83.9158 150.775C83.8673 150.71 83.8064 150.654 83.7364 150.612C83.6664 150.57 83.5888 150.542 83.508 150.53C83.4272 150.517 83.3448 150.521 83.2654 150.541L48.1313 159.196Z" fill="#E5E5E5"/>
<path d="M49.2231 163.627C49.0631 163.666 48.9253 163.768 48.84 163.909C48.7547 164.05 48.729 164.219 48.7684 164.379C48.8078 164.539 48.9092 164.677 49.0502 164.762C49.1912 164.847 49.3604 164.873 49.5204 164.834L84.6545 156.179C84.8145 156.139 84.9523 156.038 85.0376 155.897C85.1229 155.756 85.1487 155.587 85.1092 155.427C85.0698 155.267 84.9684 155.129 84.8274 155.044C84.6864 154.958 84.5173 154.933 84.3572 154.972L49.2231 163.627Z" fill="#E5E5E5"/>
<path d="M195.958 35.4104L189.193 34.1555C189.363 34.9764 189.329 35.8265 189.093 36.6308C188.858 37.4351 188.428 38.1691 187.842 38.7679C187.256 39.3668 186.532 39.8122 185.733 40.065C184.935 40.3177 184.086 40.37 183.262 40.2173L153.573 34.7096C152.749 34.5568 151.975 34.2035 151.32 33.6811C150.665 33.1586 150.148 32.483 149.815 31.7136C149.482 30.9443 149.343 30.1049 149.411 29.2694C149.478 28.4338 149.75 27.6278 150.202 26.9224L143.884 25.7503C141.08 25.2301 138.184 25.8458 135.835 27.462C133.485 29.0782 131.874 31.5625 131.355 34.3683L106.564 168.453C106.307 169.842 106.326 171.269 106.62 172.651C106.914 174.033 107.477 175.344 108.278 176.508C109.078 177.673 110.099 178.668 111.284 179.438C112.468 180.208 113.792 180.736 115.181 180.994L115.181 180.994L167.255 190.654C170.059 191.174 172.954 190.558 175.304 188.942C177.653 187.326 179.265 184.842 179.784 182.036V182.036L204.575 47.9511C204.832 46.5618 204.812 45.1354 204.518 43.7533C204.224 42.3711 203.661 41.0604 202.861 39.8959C202.061 38.7314 201.04 37.7359 199.855 36.9663C198.671 36.1967 197.346 35.668 195.958 35.4104V35.4104Z" fill="#2421A6"/>
<path d="M158.69 100.803C154.125 99.9611 149.866 97.9387 146.342 94.939C142.819 91.9393 140.154 88.068 138.616 83.714C138.463 83.2823 138.319 82.8353 138.189 82.3862C137.03 78.4514 136.827 74.2966 137.597 70.2629C138.308 66.4881 139.842 62.9117 142.092 59.7861C144.343 56.6605 147.254 54.0618 150.62 52.1733C153.987 50.2848 157.727 49.1525 161.577 48.8563C165.427 48.5601 169.293 49.1073 172.902 50.4591C176.511 51.8109 179.776 53.9346 182.465 56.6802C185.154 59.4258 187.203 62.7265 188.467 66.3494C189.731 69.9724 190.179 73.8293 189.779 77.6482C189.38 81.467 188.143 85.1548 186.155 88.4512C185.416 89.6816 184.575 90.8482 183.639 91.9388C180.622 95.4608 176.728 98.134 172.349 99.69C167.97 101.246 163.259 101.63 158.69 100.803ZM168.237 49.956C161.561 48.7447 154.666 50.2171 149.065 54.0502C143.464 57.8833 139.615 63.7641 138.361 70.4025C137.613 74.3173 137.81 78.3498 138.935 82.1687C139.062 82.6044 139.201 83.0374 139.349 83.4561C140.836 87.6861 143.42 91.4475 146.841 94.3601C150.263 97.2727 154.399 99.2331 158.834 100.043C163.268 100.853 167.842 100.484 172.094 98.9733C176.346 97.4625 180.125 94.8635 183.048 91.439C183.956 90.3811 184.772 89.2493 185.489 88.0557C187.617 84.5262 188.855 80.5398 189.1 76.4368C189.344 72.3338 188.586 68.2359 186.891 64.493C185.197 60.75 182.615 57.473 179.366 54.9417C176.118 52.4103 172.3 50.6998 168.237 49.956L168.237 49.956Z" fill="white"/>
<path d="M172.595 137.728L123.613 128.588C123.249 128.52 122.928 128.31 122.718 128.004C122.509 127.699 122.429 127.323 122.495 126.958L124.374 116.739C124.441 116.374 124.65 116.052 124.954 115.842C125.258 115.633 125.633 115.553 125.996 115.62L174.978 124.76C175.341 124.828 175.663 125.038 175.872 125.344C176.082 125.649 176.162 126.025 176.096 126.39L174.217 136.61C174.15 136.974 173.941 137.296 173.637 137.506C173.333 137.715 172.958 137.795 172.595 137.728V137.728ZM125.856 116.383C125.694 116.353 125.527 116.389 125.392 116.482C125.257 116.575 125.164 116.719 125.134 116.881L123.256 127.1C123.226 127.262 123.262 127.43 123.355 127.566C123.448 127.701 123.591 127.795 123.753 127.825L172.735 136.965C172.896 136.995 173.063 136.96 173.198 136.866C173.334 136.773 173.427 136.63 173.456 136.468L175.335 126.248C175.365 126.086 175.329 125.919 175.236 125.783C175.142 125.647 174.999 125.553 174.838 125.523L125.856 116.383Z" fill="white"/>
<path d="M172.826 161.181L123.844 152.041C123.48 151.973 123.159 151.763 122.949 151.458C122.74 151.152 122.66 150.776 122.726 150.411L124.605 140.192C124.672 139.828 124.881 139.505 125.185 139.296C125.489 139.086 125.864 139.006 126.227 139.073L175.209 148.213C175.572 148.281 175.894 148.491 176.103 148.797C176.313 149.102 176.393 149.479 176.327 149.843L174.448 160.063C174.381 160.427 174.172 160.749 173.868 160.959C173.564 161.168 173.189 161.248 172.826 161.181V161.181ZM126.087 139.836C125.925 139.806 125.759 139.842 125.623 139.935C125.488 140.028 125.395 140.172 125.365 140.334L123.487 150.553C123.457 150.715 123.493 150.883 123.586 151.019C123.679 151.155 123.822 151.248 123.984 151.278L172.966 160.418C173.127 160.448 173.294 160.413 173.429 160.319C173.565 160.226 173.658 160.083 173.688 159.921L175.566 149.701C175.596 149.539 175.56 149.372 175.467 149.236C175.374 149.1 175.23 149.006 175.069 148.976L126.087 139.836Z" fill="white"/>
</svg>
